<svg width="16" height="16" viewBox="0 0 16 16" fill="none" xmlns="http://www.w3.org/2000/svg">
<path fill-rule="evenodd" clip-rule="evenodd" d="M7.99967 0.833496C8.13228 0.833496 8.25946 0.886175 8.35323 0.979943C8.447 1.07371 8.49967 1.20089 8.49967 1.3335V8.64883L9.61967 7.3415C9.6624 7.29159 9.71453 7.2506 9.7731 7.22084C9.83167 7.19109 9.89552 7.17316 9.96102 7.16808C10.0265 7.16301 10.0924 7.17088 10.1548 7.19126C10.2173 7.21163 10.2751 7.24411 10.325 7.28683C10.3749 7.32955 10.4159 7.38169 10.4457 7.44025C10.4754 7.49882 10.4933 7.56268 10.4984 7.62817C10.5035 7.69367 10.4956 7.75952 10.4752 7.82198C10.4549 7.88443 10.4224 7.94226 10.3797 7.99216L8.37967 10.3255C8.33273 10.3804 8.27446 10.4245 8.20886 10.4547C8.14326 10.4849 8.0719 10.5005 7.99967 10.5005C7.92745 10.5005 7.85608 10.4849 7.79049 10.4547C7.72489 10.4245 7.66661 10.3804 7.61967 10.3255L5.61967 7.99216C5.57695 7.94226 5.54447 7.88443 5.5241 7.82198C5.50373 7.75952 5.49585 7.69367 5.50093 7.62817C5.506 7.56268 5.52393 7.49882 5.55369 7.44025C5.58344 7.38169 5.62444 7.32955 5.67434 7.28683C5.72424 7.24411 5.78207 7.21163 5.84453 7.19126C5.90698 7.17088 5.97283 7.16301 6.03833 7.16808C6.10383 7.17316 6.16768 7.19109 6.22625 7.22084C6.28482 7.2506 6.33695 7.29159 6.37967 7.3415L7.49967 8.64816V1.3335C7.49967 1.20089 7.55235 1.07371 7.64612 0.979943C7.73989 0.886175 7.86707 0.833496 7.99967 0.833496ZM4.66367 5.5015C4.79628 5.50079 4.92374 5.55279 5.01801 5.64606C5.11228 5.73933 5.16563 5.86622 5.16634 5.99883C5.16705 6.13144 5.11505 6.2589 5.02178 6.35316C4.92851 6.44743 4.80162 6.50079 4.66901 6.5015C3.94034 6.5055 3.42367 6.52416 3.03101 6.59616C2.65367 6.66616 2.43434 6.7775 2.27234 6.9395C2.08767 7.12416 1.96767 7.3835 1.90167 7.87283C1.83434 8.37616 1.83301 9.0435 1.83301 10.0002V10.6668C1.83301 11.6242 1.83434 12.2915 1.90167 12.7948C1.96767 13.2842 2.08834 13.5428 2.27234 13.7282C2.45701 13.9122 2.71567 14.0322 3.20567 14.0982C3.70834 14.1662 4.37634 14.1668 5.33301 14.1668H10.6663C11.623 14.1668 12.2903 14.1662 12.7943 14.0982C13.2837 14.0322 13.5423 13.9122 13.727 13.7275C13.9117 13.5428 14.0317 13.2842 14.0977 12.7948C14.165 12.2915 14.1663 11.6242 14.1663 10.6668V10.0002C14.1663 9.0435 14.165 8.37616 14.0977 7.87216C14.0317 7.3835 13.911 7.12416 13.727 6.9395C13.5643 6.7775 13.3457 6.66616 12.9683 6.59616C12.5757 6.52416 12.059 6.5055 11.3303 6.5015C11.2647 6.50115 11.1997 6.48787 11.1392 6.46241C11.0787 6.43696 11.0237 6.39984 10.9776 6.35316C10.9314 6.30649 10.8949 6.25117 10.87 6.19037C10.8452 6.12958 10.8327 6.06449 10.833 5.99883C10.8334 5.93317 10.8466 5.86822 10.8721 5.80769C10.8975 5.74716 10.9347 5.69224 10.9813 5.64606C11.028 5.59987 11.0833 5.56334 11.1441 5.53854C11.2049 5.51373 11.27 5.50115 11.3357 5.5015C12.057 5.5055 12.6577 5.52283 13.149 5.61283C13.6543 5.70616 14.0843 5.88283 14.4343 6.23283C14.8357 6.6335 15.0077 7.1395 15.089 7.7395C15.1663 8.31683 15.1663 9.05216 15.1663 9.9635V10.7035C15.1663 11.6155 15.1663 12.3502 15.089 12.9282C15.0077 13.5282 14.8357 14.0335 14.4343 14.4348C14.033 14.8362 13.5277 15.0082 12.9277 15.0895C12.3497 15.1668 11.6143 15.1668 10.703 15.1668H5.29634C4.38501 15.1668 3.64967 15.1668 3.07167 15.0895C2.47167 15.0088 1.96634 14.8362 1.56501 14.4348C1.16367 14.0335 0.991674 13.5282 0.911008 12.9282C0.833008 12.3502 0.833008 11.6148 0.833008 10.7035V9.9635C0.833008 9.05216 0.833008 8.31683 0.911008 7.73883C0.991008 7.13883 1.16434 6.6335 1.56501 6.23216C1.91501 5.88283 2.34501 5.7055 2.85034 5.61283C3.34167 5.52283 3.94234 5.5055 4.66367 5.5015Z" fill="#031A3E"/>
</svg>
