<svg width="152" height="242" viewBox="0 0 152 242" fill="none" xmlns="http://www.w3.org/2000/svg">
<path d="M60.4844 79.6841C60.4844 89.6941 68.6004 97.8101 78.6094 97.8101C88.6184 97.8101 96.7344 89.6941 96.7344 79.6841C96.7344 69.6741 88.6184 61.5601 78.6094 61.5601C68.6004 61.5601 60.4844 69.6751 60.4844 79.6841Z" fill="#196DA7" stroke="#A3D9F4" stroke-linecap="round" stroke-linejoin="round"/>
<g style="mix-blend-mode:multiply">
<path d="M62.3984 87.7771C65.3584 93.7271 71.5084 97.8071 78.6084 97.8071C88.6184 97.8071 96.7384 89.6971 96.7384 79.6871C96.7384 73.4271 93.5584 67.8971 88.7284 64.6471C89.9484 67.0771 90.6384 69.8271 90.6384 72.7371C90.6384 82.7471 82.5184 90.8671 72.5084 90.8671C68.7684 90.8671 65.2784 89.7271 62.3984 87.7771Z" fill="#196DA7"/>
</g>
<g style="mix-blend-mode:screen">
<path d="M92.6528 84.5381C92.6528 83.7761 92.4678 83.0191 92.0238 82.2621C91.0658 80.6171 89.3018 80.1871 87.6558 81.1321C85.5828 82.3211 84.8968 84.8901 82.4008 85.7061C80.0878 86.4611 76.9838 86.0771 75.5518 88.4561C74.4418 90.2991 75.6428 91.9491 77.1768 92.8381C79.3248 94.0811 81.6568 94.0431 84.0448 93.6181C87.5518 92.9961 90.6108 90.4621 92.0138 87.2101C92.3998 86.3111 92.6528 85.4221 92.6528 84.5381Z" fill="#196DA7"/>
</g>
<path d="M74.262 64.7731C79.43 63.2431 84.114 64.6131 84.725 67.8191C85.342 71.0211 81.651 74.8531 76.486 76.3701C71.323 77.8921 66.632 76.5331 66.017 73.3241C65.408 70.1221 69.093 66.2901 74.262 64.7731Z" fill="#C2F4FF"/>
<path d="M104.202 107.996C104.202 115.177 110.025 121 117.206 121C124.388 121 130.211 115.177 130.211 107.996C130.211 100.815 124.388 94.9921 117.206 94.9921C110.025 94.9921 104.202 100.814 104.202 107.996Z" fill="#196DA7" stroke="#A3D9F4" stroke-linecap="round" stroke-linejoin="round"/>
<g style="mix-blend-mode:multiply">
<path d="M105.575 113.802C107.698 118.071 112.111 120.999 117.205 120.999C124.387 120.999 130.212 115.18 130.212 107.998C130.212 103.507 127.93 99.5393 124.465 97.2073C125.341 98.951 125.835 100.924 125.835 103.011C125.835 110.193 120.01 116.019 112.828 116.019C110.144 116.019 107.641 115.201 105.575 113.802Z" fill="#196DA7"/>
</g>
<g style="mix-blend-mode:screen">
<path d="M127.281 111.479C127.281 110.932 127.148 110.388 126.83 109.846C126.143 108.665 124.877 108.357 123.696 109.035C122.209 109.888 121.716 111.731 119.926 112.317C118.266 112.859 116.04 112.583 115.012 114.29C114.215 115.612 115.077 116.796 116.178 117.434C117.719 118.326 119.392 118.299 121.106 117.994C123.622 117.548 125.816 115.729 126.823 113.396C127.101 112.752 127.281 112.113 127.281 111.479Z" fill="#196DA7"/>
</g>
<path d="M114.086 97.2981C117.794 96.2009 121.154 97.1835 121.593 99.4842C122.036 101.782 119.387 104.531 115.681 105.619C111.977 106.711 108.611 105.737 108.17 103.433C107.733 101.135 110.377 98.387 114.086 97.2981Z" fill="#C2F4FF"/>
<path d="M53.0996 188.604C53.0996 198.614 61.2156 206.73 71.2246 206.73C81.2336 206.73 89.3496 198.614 89.3496 188.604C89.3496 178.594 81.2336 170.48 71.2246 170.48C61.2156 170.48 53.0996 178.595 53.0996 188.604Z" fill="#196DA7" stroke="#A3D9F4" stroke-linecap="round" stroke-linejoin="round"/>
<g style="mix-blend-mode:multiply">
<path d="M55.0137 196.697C57.9737 202.647 64.1237 206.727 71.2237 206.727C81.2337 206.727 89.3537 198.617 89.3537 188.607C89.3537 182.347 86.1737 176.817 81.3437 173.567C82.5637 175.997 83.2537 178.747 83.2537 181.657C83.2537 191.667 75.1337 199.787 65.1237 199.787C61.3837 199.787 57.8937 198.647 55.0137 196.697Z" fill="#196DA7"/>
</g>
<g style="mix-blend-mode:screen">
<path d="M85.268 193.458C85.268 192.696 85.083 191.939 84.639 191.182C83.681 189.537 81.917 189.107 80.271 190.052C78.198 191.241 77.512 193.81 75.016 194.626C72.703 195.381 69.599 194.997 68.167 197.376C67.057 199.219 68.258 200.869 69.793 201.758C71.941 203.001 74.273 202.963 76.661 202.538C80.168 201.916 83.227 199.382 84.63 196.13C85.016 195.231 85.268 194.342 85.268 193.458Z" fill="#196DA7"/>
</g>
<path d="M66.8772 173.694C72.0452 172.164 76.7292 173.534 77.3402 176.741C77.9572 179.943 74.2672 183.775 69.1012 185.292C63.9382 186.814 59.2472 185.456 58.6322 182.245C58.0232 179.043 61.7072 175.211 66.8772 173.694Z" fill="#C2F4FF"/>
<path d="M29.6201 141.864C29.6201 150.074 36.2764 156.73 44.4852 156.73C52.694 156.73 59.3502 150.074 59.3502 141.864C59.3502 133.655 52.694 127 44.4852 127C36.2764 127 29.6201 133.655 29.6201 141.864Z" fill="#196DA7" stroke="#A3D9F4" stroke-linecap="round" stroke-linejoin="round"/>
<g style="mix-blend-mode:multiply">
<path d="M31.1904 148.502C33.618 153.382 38.6619 156.728 44.4849 156.728C52.6945 156.728 59.3541 150.076 59.3541 141.867C59.3541 136.733 56.746 132.197 52.7847 129.532C53.7853 131.525 54.3512 133.78 54.3512 136.167C54.3512 144.376 47.6917 151.036 39.4821 151.036C36.4147 151.036 33.5524 150.101 31.1904 148.502Z" fill="#196DA7"/>
</g>
<g style="mix-blend-mode:screen">
<path d="M56.0031 145.845C56.0031 145.22 55.8514 144.599 55.4872 143.979C54.7015 142.629 53.2548 142.277 51.9048 143.052C50.2047 144.027 49.6421 146.134 47.595 146.803C45.698 147.422 43.1523 147.107 41.9779 149.059C41.0675 150.57 42.0525 151.923 43.3114 152.652C45.0731 153.672 46.9856 153.641 48.9441 153.292C51.8204 152.782 54.3292 150.704 55.4798 148.037C55.7964 147.299 56.0031 146.57 56.0031 145.845Z" fill="#196DA7"/>
</g>
<path d="M40.9196 129.636C45.158 128.381 48.9996 129.505 49.5007 132.135C50.0067 134.761 46.9804 137.904 42.7435 139.148C38.5092 140.396 34.6619 139.282 34.1575 136.649C33.658 134.023 36.6794 130.88 40.9196 129.636Z" fill="#C2F4FF"/>
<path d="M130.777 173.245C130.777 178.89 135.354 183.467 140.999 183.467C146.644 183.467 151.221 178.89 151.221 173.245C151.221 167.6 146.644 163.024 140.999 163.024C135.354 163.024 130.777 167.6 130.777 173.245Z" fill="#196DA7" stroke="#A3D9F4" stroke-linecap="round" stroke-linejoin="round"/>
<g style="mix-blend-mode:multiply">
<path d="M131.857 177.808C133.526 181.163 136.994 183.464 140.998 183.464C146.643 183.464 151.222 178.89 151.222 173.246C151.222 169.716 149.429 166.597 146.705 164.764C147.393 166.134 147.782 167.685 147.782 169.326C147.782 174.971 143.203 179.55 137.558 179.55C135.449 179.55 133.481 178.908 131.857 177.808Z" fill="#196DA7"/>
</g>
<g style="mix-blend-mode:screen">
<path d="M148.918 175.982C148.918 175.553 148.814 175.125 148.563 174.698C148.023 173.77 147.028 173.528 146.1 174.061C144.931 174.732 144.544 176.181 143.137 176.641C141.833 177.067 140.082 176.85 139.275 178.192C138.649 179.231 139.326 180.162 140.192 180.663C141.404 181.364 142.718 181.343 144.065 181.103C146.043 180.752 147.768 179.323 148.559 177.489C148.777 176.982 148.919 176.481 148.919 175.982H148.918Z" fill="#196DA7"/>
</g>
<path d="M138.547 164.836C141.462 163.973 144.103 164.746 144.448 166.554C144.796 168.36 142.715 170.521 139.802 171.376C136.89 172.234 134.245 171.468 133.898 169.658C133.555 167.852 135.632 165.691 138.547 164.836Z" fill="#C2F4FF"/>
<path d="M0.777344 113.221C0.777344 118.866 5.35434 123.443 10.9993 123.443C16.6443 123.443 21.2213 118.866 21.2213 113.221C21.2213 107.576 16.6443 103 10.9993 103C5.35434 103 0.777344 107.576 0.777344 113.221Z" fill="#196DA7" stroke="#A3D9F4" stroke-linecap="round" stroke-linejoin="round"/>
<g style="mix-blend-mode:multiply">
<path d="M1.85742 117.784C3.52642 121.139 6.99442 123.44 10.9984 123.44C16.6434 123.44 21.2224 118.866 21.2224 113.222C21.2224 109.692 19.4294 106.573 16.7054 104.74C17.3934 106.11 17.7824 107.661 17.7824 109.302C17.7824 114.947 13.2034 119.526 7.55842 119.526C5.44942 119.526 3.48142 118.884 1.85742 117.784Z" fill="#196DA7"/>
</g>
<g style="mix-blend-mode:screen">
<path d="M18.9183 115.958C18.9183 115.529 18.8143 115.101 18.5633 114.674C18.0233 113.746 17.0283 113.504 16.1003 114.037C14.9313 114.708 14.5443 116.157 13.1373 116.617C11.8333 117.043 10.0823 116.826 9.27528 118.168C8.64928 119.207 9.32628 120.138 10.1923 120.639C11.4043 121.34 12.7183 121.319 14.0653 121.079C16.0433 120.728 17.7683 119.299 18.5593 117.465C18.7773 116.958 18.9193 116.457 18.9193 115.958H18.9183Z" fill="#196DA7"/>
</g>
<path d="M8.54736 104.812C11.4624 103.949 14.1034 104.722 14.4484 106.53C14.7964 108.336 12.7154 110.497 9.80236 111.352C6.89036 112.21 4.24536 111.444 3.89836 109.634C3.55536 107.828 5.63236 105.667 8.54736 104.812Z" fill="#C2F4FF"/>
<path d="M74.2861 231.402C74.2861 236.702 78.5841 241 83.8841 241C89.1841 241 93.4821 236.702 93.4821 231.402C93.4821 226.102 89.1841 221.805 83.8841 221.805C78.5841 221.805 74.2861 226.102 74.2861 231.402Z" fill="#196DA7" stroke="#A3D9F4" stroke-linecap="round" stroke-linejoin="round"/>
<g style="mix-blend-mode:multiply">
<path d="M75.2998 235.688C76.8668 238.838 80.1238 240.999 83.8828 240.999C89.1828 240.999 93.4828 236.705 93.4828 231.404C93.4828 228.089 91.7988 225.161 89.2418 223.44C89.8878 224.727 90.2528 226.183 90.2528 227.724C90.2528 233.024 85.9528 237.324 80.6528 237.324C78.6728 237.324 76.8248 236.72 75.2998 235.688Z" fill="#196DA7"/>
</g>
<g style="mix-blend-mode:screen">
<path d="M91.3194 233.973C91.3194 233.57 91.2214 233.169 90.9864 232.768C90.4794 231.897 89.5454 231.669 88.6734 232.169C87.5764 232.799 87.2124 234.159 85.8904 234.591C84.6654 234.991 83.0224 234.788 82.2644 236.047C81.6764 237.023 82.3124 237.897 83.1254 238.368C84.2634 239.026 85.4974 239.006 86.7624 238.781C88.6194 238.452 90.2394 237.11 90.9824 235.388C91.1874 234.912 91.3204 234.441 91.3204 233.973H91.3194Z" fill="#196DA7"/>
</g>
<path d="M81.5824 223.507C84.3194 222.697 86.7994 223.422 87.1224 225.12C87.4494 226.816 85.4954 228.845 82.7594 229.648C80.0254 230.454 77.5414 229.735 77.2154 228.035C76.8934 226.339 78.8454 224.311 81.5824 223.507Z" fill="#C2F4FF"/>
<path d="M78.2031 7.16908C78.2031 10.8081 81.1531 13.7591 84.7921 13.7591C88.4311 13.7591 91.3811 10.8081 91.3811 7.16908C91.3811 3.53008 88.4301 0.580078 84.7921 0.580078C81.1541 0.580078 78.2031 3.53008 78.2031 7.16908Z" fill="#196DA7" stroke="#A3D9F4" stroke-linecap="round" stroke-linejoin="round"/>
<g style="mix-blend-mode:multiply">
<path d="M78.8994 10.111C79.9754 12.274 82.2114 13.757 84.7924 13.757C88.4314 13.757 91.3834 10.809 91.3834 7.17003C91.3834 4.89403 90.2274 2.88403 88.4714 1.70203C88.9154 2.58503 89.1654 3.58503 89.1654 4.64303C89.1654 8.28203 86.2134 11.234 82.5744 11.234C81.2144 11.234 79.9464 10.82 78.8994 10.111Z" fill="#196DA7"/>
</g>
<g style="mix-blend-mode:screen">
<path d="M89.897 8.93308C89.897 8.65608 89.83 8.38108 89.668 8.10608C89.32 7.50808 88.678 7.35208 88.08 7.69508C87.326 8.12708 87.077 9.06108 86.17 9.35808C85.329 9.63208 84.201 9.49308 83.68 10.3581C83.276 11.0281 83.713 11.6281 84.271 11.9511C85.052 12.4031 85.899 12.3891 86.768 12.2351C88.043 12.0091 89.155 11.0881 89.665 9.90508C89.805 9.57808 89.897 9.25508 89.897 8.93408V8.93308Z" fill="#196DA7"/>
</g>
<path d="M83.2113 1.74813C85.0903 1.19213 86.7923 1.69013 87.0153 2.85613C87.2403 4.02013 85.8983 5.41313 84.0203 5.96513C82.1433 6.51813 80.4383 6.02413 80.2143 4.85713C79.9933 3.69313 81.3323 2.30013 83.2113 1.74813Z" fill="#C2F4FF"/>
<path d="M94.4541 32.0791C94.4541 38.0541 99.2991 42.8991 105.273 42.8991C111.247 42.8991 116.092 38.0541 116.092 32.0791C116.092 26.1041 111.247 21.2601 105.273 21.2601C99.2991 21.2601 94.4541 26.1041 94.4541 32.0791Z" fill="#196DA7" stroke="#A3D9F4" stroke-linecap="round" stroke-linejoin="round"/>
<g style="mix-blend-mode:multiply">
<path d="M95.5967 36.9102C97.3637 40.4622 101.035 42.8972 105.273 42.8972C111.248 42.8972 116.095 38.0561 116.095 32.0811C116.095 28.3441 114.197 25.0431 111.314 23.1031C112.042 24.5531 112.454 26.1951 112.454 27.9321C112.454 33.9071 107.607 38.7541 101.632 38.7541C99.3997 38.7541 97.3157 38.0731 95.5967 36.9091V36.9102Z" fill="#196DA7"/>
</g>
<g style="mix-blend-mode:screen">
<path d="M113.656 34.9771C113.656 34.5221 113.546 34.0701 113.281 33.6181C112.709 32.6361 111.656 32.3801 110.673 32.9431C109.436 33.6531 109.026 35.1861 107.536 35.6731C106.155 36.1241 104.303 35.8951 103.448 37.3141C102.785 38.4141 103.502 39.3991 104.418 39.9301C105.7 40.6721 107.092 40.6491 108.518 40.3961C110.612 40.0251 112.437 38.5121 113.275 36.5711C113.506 36.0341 113.656 35.5051 113.656 34.9771Z" fill="#196DA7"/>
</g>
<path d="M102.678 23.1791C105.763 22.2661 108.559 23.0831 108.924 24.9981C109.292 26.9101 107.089 29.1971 104.006 30.1021C100.924 31.0111 98.124 30.2001 97.757 28.2841C97.394 26.3721 99.593 24.0851 102.679 23.1801L102.678 23.1791Z" fill="#C2F4FF"/>
<path d="M82.0771 133.894C82.0771 137.896 85.3221 141.141 89.3241 141.141C93.3261 141.141 96.5711 137.896 96.5711 133.894C96.5711 129.892 93.3261 126.648 89.3241 126.648C85.3221 126.648 82.0771 129.892 82.0771 133.894Z" fill="#196DA7" stroke="#A3D9F4" stroke-linecap="round" stroke-linejoin="round"/>
<g style="mix-blend-mode:multiply">
<path d="M82.8418 137.13C84.0248 139.509 86.4838 141.14 89.3228 141.14C93.3248 141.14 96.5708 137.897 96.5708 133.896C96.5708 131.393 95.2998 129.182 93.3688 127.883C93.8568 128.854 94.1328 129.954 94.1328 131.118C94.1328 135.12 90.8868 138.366 86.8838 138.366C85.3888 138.366 83.9928 137.909 82.8418 137.13Z" fill="#196DA7"/>
</g>
<g style="mix-blend-mode:screen">
<path d="M94.9379 135.835C94.9379 135.531 94.8639 135.228 94.6869 134.925C94.3039 134.267 93.5989 134.096 92.9399 134.473C92.1109 134.949 91.8369 135.976 90.8389 136.302C89.9139 136.604 88.6729 136.45 88.1009 137.402C87.6569 138.139 88.1369 138.799 88.7509 139.154C89.6099 139.651 90.5419 139.636 91.4969 139.466C92.8989 139.217 94.1219 138.204 94.6829 136.904C94.8369 136.544 94.9379 136.188 94.9379 135.835Z" fill="#196DA7"/>
</g>
<path d="M87.5849 127.933C89.6509 127.321 91.5239 127.869 91.7679 129.151C92.0149 130.431 90.5389 131.963 88.4739 132.57C86.4099 133.179 84.5339 132.635 84.2879 131.352C84.0449 130.072 85.5179 128.54 87.5849 127.933Z" fill="#C2F4FF"/>
<path d="M102.077 193.894C102.077 197.896 105.322 201.141 109.324 201.141C113.326 201.141 116.571 197.896 116.571 193.894C116.571 189.892 113.326 186.648 109.324 186.648C105.322 186.648 102.077 189.892 102.077 193.894Z" fill="#196DA7" stroke="#A3D9F4" stroke-linecap="round" stroke-linejoin="round"/>
<g style="mix-blend-mode:multiply">
<path d="M102.842 197.13C104.025 199.509 106.484 201.14 109.323 201.14C113.325 201.14 116.571 197.897 116.571 193.896C116.571 191.393 115.3 189.182 113.369 187.883C113.857 188.854 114.133 189.954 114.133 191.118C114.133 195.12 110.887 198.366 106.884 198.366C105.389 198.366 103.993 197.909 102.842 197.13Z" fill="#196DA7"/>
</g>
<g style="mix-blend-mode:screen">
<path d="M114.938 195.835C114.938 195.531 114.864 195.228 114.687 194.925C114.304 194.267 113.599 194.096 112.94 194.473C112.111 194.949 111.837 195.976 110.839 196.302C109.914 196.604 108.673 196.45 108.101 197.402C107.657 198.139 108.137 198.799 108.751 199.154C109.61 199.651 110.542 199.636 111.497 199.466C112.899 199.217 114.122 198.204 114.683 196.904C114.837 196.544 114.938 196.188 114.938 195.835Z" fill="#196DA7"/>
</g>
<path d="M107.585 187.933C109.651 187.321 111.524 187.869 111.768 189.151C112.015 190.431 110.539 191.963 108.474 192.57C106.41 193.179 104.534 192.635 104.288 191.352C104.045 190.072 105.518 188.54 107.585 187.933Z" fill="#C2F4FF"/>
<path d="M14.4033 213.894C14.4033 217.896 17.6483 221.141 21.6503 221.141C25.6523 221.141 28.8973 217.896 28.8973 213.894C28.8973 209.892 25.6523 206.648 21.6503 206.648C17.6483 206.648 14.4033 209.892 14.4033 213.894Z" fill="#196DA7" stroke="#A3D9F4" stroke-linecap="round" stroke-linejoin="round"/>
<g style="mix-blend-mode:multiply">
<path d="M15.168 217.13C16.351 219.509 18.81 221.14 21.649 221.14C25.651 221.14 28.897 217.897 28.897 213.896C28.897 211.393 27.626 209.182 25.695 207.883C26.183 208.854 26.459 209.954 26.459 211.118C26.459 215.12 23.213 218.366 19.21 218.366C17.715 218.366 16.319 217.909 15.168 217.13Z" fill="#196DA7"/>
</g>
<g style="mix-blend-mode:screen">
<path d="M27.264 215.835C27.264 215.531 27.19 215.228 27.013 214.925C26.63 214.267 25.925 214.096 25.266 214.473C24.437 214.949 24.163 215.976 23.165 216.302C22.24 216.604 20.999 216.45 20.427 217.402C19.983 218.139 20.463 218.799 21.077 219.154C21.936 219.651 22.868 219.636 23.823 219.466C25.225 219.217 26.448 218.204 27.009 216.904C27.163 216.544 27.264 216.188 27.264 215.835Z" fill="#196DA7"/>
</g>
<path d="M19.9111 207.933C21.9771 207.321 23.8501 207.869 24.0941 209.151C24.3411 210.431 22.8651 211.963 20.8001 212.57C18.7361 213.179 16.8601 212.635 16.6141 211.352C16.3711 210.072 17.8441 208.54 19.9111 207.933Z" fill="#C2F4FF"/>
<path d="M42.0771 33.8941C42.0771 37.8961 45.3221 41.1411 49.3241 41.1411C53.3261 41.1411 56.5711 37.8961 56.5711 33.8941C56.5711 29.8921 53.3261 26.6481 49.3241 26.6481C45.3221 26.6481 42.0771 29.8921 42.0771 33.8941Z" fill="#196DA7" stroke="#A3D9F4" stroke-linecap="round" stroke-linejoin="round"/>
<g style="mix-blend-mode:multiply">
<path d="M42.8418 37.1301C44.0248 39.5091 46.4838 41.1401 49.3228 41.1401C53.3248 41.1401 56.5708 37.897 56.5708 33.896C56.5708 31.393 55.2998 29.1821 53.3688 27.8831C53.8568 28.8541 54.1328 29.954 54.1328 31.118C54.1328 35.12 50.8868 38.3661 46.8838 38.3661C45.3888 38.3661 43.9928 37.9091 42.8418 37.1301Z" fill="#196DA7"/>
</g>
<g style="mix-blend-mode:screen">
<path d="M54.9379 35.8351C54.9379 35.5311 54.8639 35.2281 54.6869 34.9251C54.3039 34.2671 53.5989 34.0961 52.9399 34.4731C52.1109 34.9491 51.8369 35.9761 50.8389 36.3021C49.9139 36.6041 48.6729 36.4501 48.1009 37.4021C47.6569 38.1391 48.1369 38.7991 48.7509 39.1541C49.6099 39.6511 50.5419 39.6361 51.4969 39.4661C52.8989 39.2171 54.1219 38.2041 54.6829 36.9041C54.8369 36.5441 54.9379 36.1881 54.9379 35.8351Z" fill="#196DA7"/>
</g>
<path d="M47.5849 27.9331C49.6509 27.3211 51.5239 27.8691 51.7679 29.1511C52.0149 30.4311 50.5389 31.9631 48.4739 32.5701C46.4099 33.1791 44.5339 32.6351 44.2879 31.3521C44.0449 30.0721 45.5179 28.5401 47.5849 27.9331Z" fill="#C2F4FF"/>
</svg>
