<svg width="162" height="245" viewBox="0 0 162 245" fill="none" xmlns="http://www.w3.org/2000/svg">
<path d="M70.5312 41.329C70.5312 48.531 76.3703 54.37 83.5713 54.37C90.7723 54.37 96.6113 48.531 96.6113 41.329C96.6113 34.127 90.7723 28.29 83.5713 28.29C76.3703 28.29 70.5312 34.128 70.5312 41.329Z" fill="#196DA7" stroke="#A3D9F4" stroke-linecap="round" stroke-linejoin="round"/>
<g style="mix-blend-mode:multiply">
<path d="M71.9082 47.1521C74.0372 51.4331 78.4622 54.3681 83.5702 54.3681C90.7722 54.3681 96.6142 48.5331 96.6142 41.3321C96.6142 36.8281 94.3262 32.8501 90.8512 30.5121C91.7292 32.2601 92.2252 34.2391 92.2252 36.3321C92.2252 43.5341 86.3832 49.3761 79.1812 49.3761C76.4902 49.3761 73.9792 48.5561 71.9072 47.1531L71.9082 47.1521Z" fill="#196DA7"/>
</g>
<g style="mix-blend-mode:screen">
<path d="M93.6741 44.8211C93.6741 44.2731 93.5411 43.7281 93.2221 43.1841C92.5331 42.0001 91.2631 41.6911 90.0791 42.3711C88.5881 43.2271 88.0941 45.0751 86.2981 45.6621C84.6341 46.2051 82.4011 45.9291 81.3711 47.6401C80.5721 48.9661 81.4361 50.1531 82.5401 50.7931C84.0861 51.6881 85.7631 51.6601 87.4811 51.3541C90.0041 50.9071 92.2051 49.0831 93.2151 46.7441C93.4931 46.0971 93.6741 45.4581 93.6741 44.8211Z" fill="#196DA7"/>
</g>
<path d="M80.4432 30.6021C84.1612 29.5011 87.5312 30.4871 87.9712 32.7941C88.4152 35.0981 85.7602 37.8551 82.0432 38.9461C78.3282 40.0411 74.9532 39.0641 74.5112 36.7541C74.0732 34.4501 76.7242 31.6941 80.4432 30.6021Z" fill="#C2F4FF"/>
<path d="M63.5723 112.783C63.5723 122.793 71.6883 130.909 81.6973 130.909C91.7063 130.909 99.8223 122.793 99.8223 112.783C99.8223 102.773 91.7063 94.6591 81.6973 94.6591C71.6883 94.6591 63.5723 102.774 63.5723 112.783Z" fill="#196DA7" stroke="#A3D9F4" stroke-linecap="round" stroke-linejoin="round"/>
<g style="mix-blend-mode:multiply">
<path d="M65.4863 120.876C68.4463 126.826 74.5963 130.906 81.6963 130.906C91.7063 130.906 99.8263 122.796 99.8263 112.786C99.8263 106.526 96.6463 100.996 91.8163 97.7461C93.0363 100.176 93.7263 102.926 93.7263 105.836C93.7263 115.846 85.6063 123.966 75.5963 123.966C71.8563 123.966 68.3663 122.826 65.4863 120.876Z" fill="#196DA7"/>
</g>
<g style="mix-blend-mode:screen">
<path d="M95.7407 117.637C95.7407 116.875 95.5557 116.118 95.1117 115.361C94.1537 113.716 92.3897 113.286 90.7437 114.231C88.6707 115.42 87.9847 117.989 85.4887 118.805C83.1757 119.56 80.0717 119.176 78.6397 121.555C77.5297 123.398 78.7307 125.048 80.2647 125.937C82.4127 127.18 84.7447 127.142 87.1327 126.717C90.6397 126.095 93.6987 123.561 95.1017 120.309C95.4877 119.41 95.7397 118.521 95.7397 117.637H95.7407Z" fill="#196DA7"/>
</g>
<path d="M77.3499 97.8731C82.5179 96.3431 87.2019 97.7131 87.8129 100.919C88.4299 104.121 84.7389 107.953 79.5739 109.47C74.4109 110.992 69.7199 109.633 69.1049 106.424C68.4959 103.222 72.1809 99.3901 77.3499 97.8731Z" fill="#C2F4FF"/>
<path d="M113.572 69.9266C113.572 78.3589 120.409 85.1957 128.841 85.1957C137.272 85.1957 144.109 78.3589 144.109 69.9266C144.109 61.4942 137.272 54.6591 128.841 54.6591C120.409 54.6591 113.572 61.4951 113.572 69.9266Z" fill="#196DA7" stroke="#A3D9F4" stroke-linecap="round" stroke-linejoin="round"/>
<g style="mix-blend-mode:multiply">
<path d="M115.185 76.744C117.678 81.7563 122.859 85.1932 128.84 85.1932C137.272 85.1932 144.112 78.3614 144.112 69.9291C144.112 64.6557 141.433 59.9973 137.365 57.2595C138.392 59.3065 138.974 61.6231 138.974 64.0745C138.974 72.5068 132.133 79.347 123.701 79.347C120.551 79.347 117.611 78.3867 115.185 76.744Z" fill="#196DA7"/>
</g>
<g style="mix-blend-mode:screen">
<path d="M140.671 74.0155C140.671 73.3736 140.515 72.7359 140.141 72.0982C139.334 70.7125 137.848 70.3503 136.461 71.1463C134.715 72.1479 134.137 74.312 132.034 74.9994C130.086 75.6354 127.471 75.3119 126.265 77.316C125.33 78.8685 126.341 80.2585 127.634 81.0073C129.443 82.0544 131.408 82.0224 133.419 81.6644C136.374 81.1404 138.95 79.0058 140.132 76.2664C140.457 75.5091 140.67 74.7602 140.67 74.0155H140.671Z" fill="#196DA7"/>
</g>
<path d="M125.179 57.3665C129.532 56.0777 133.478 57.2317 133.993 59.9324C134.512 62.6298 131.403 65.8578 127.052 67.1357C122.703 68.4178 118.751 67.273 118.233 64.5698C117.72 61.8725 120.824 58.6444 125.179 57.3665Z" fill="#C2F4FF"/>
<path d="M23.5723 179.927C23.5723 188.359 30.4091 195.196 38.8406 195.196C47.2721 195.196 54.1089 188.359 54.1089 179.927C54.1089 171.494 47.2721 164.659 38.8406 164.659C30.4091 164.659 23.5723 171.495 23.5723 179.927Z" fill="#196DA7" stroke="#A3D9F4" stroke-linecap="round" stroke-linejoin="round"/>
<g style="mix-blend-mode:multiply">
<path d="M25.1846 186.744C27.678 191.756 32.8587 195.193 38.8397 195.193C47.2721 195.193 54.1123 188.361 54.1123 179.929C54.1123 174.656 51.4335 169.997 47.3647 167.26C48.3924 169.307 48.9737 171.623 48.9737 174.074C48.9737 182.507 42.1335 189.347 33.7011 189.347C30.5506 189.347 27.6107 188.387 25.1846 186.744Z" fill="#196DA7"/>
</g>
<g style="mix-blend-mode:screen">
<path d="M50.6706 184.016C50.6706 183.374 50.5147 182.736 50.1407 182.098C49.3337 180.712 47.8477 180.35 46.4611 181.146C44.7149 182.148 44.137 184.312 42.0344 184.999C40.0859 185.635 37.4711 185.312 36.2648 187.316C35.3298 188.869 36.3415 190.258 37.6337 191.007C39.4432 192.054 41.4076 192.022 43.4193 191.664C46.3735 191.14 48.9504 189.006 50.1323 186.266C50.4574 185.509 50.6697 184.76 50.6697 184.016H50.6706Z" fill="#196DA7"/>
</g>
<path d="M35.1787 167.367C39.5322 166.078 43.4779 167.232 43.9926 169.932C44.5124 172.63 41.4031 175.858 37.0522 177.136C32.7029 178.418 28.7512 177.273 28.2332 174.57C27.7202 171.872 30.8244 168.644 35.1787 167.367Z" fill="#C2F4FF"/>
<path d="M110.467 213.778C110.467 219.423 115.044 224 120.689 224C126.334 224 130.91 219.423 130.91 213.778C130.91 208.133 126.333 203.557 120.689 203.557C115.045 203.557 110.467 208.133 110.467 213.778Z" fill="#196DA7" stroke="#A3D9F4" stroke-linecap="round" stroke-linejoin="round"/>
<g style="mix-blend-mode:multiply">
<path d="M111.547 218.341C113.216 221.696 116.684 223.997 120.688 223.997C126.333 223.997 130.912 219.423 130.912 213.778C130.912 210.248 129.119 207.129 126.395 205.296C127.083 206.666 127.472 208.217 127.472 209.858C127.472 215.503 122.893 220.082 117.248 220.082C115.139 220.082 113.171 219.439 111.547 218.339V218.341Z" fill="#196DA7"/>
</g>
<g style="mix-blend-mode:screen">
<path d="M128.608 216.515C128.608 216.086 128.504 215.658 128.253 215.232C127.713 214.304 126.718 214.062 125.789 214.595C124.62 215.266 124.233 216.715 122.826 217.175C121.521 217.601 119.771 217.384 118.964 218.726C118.338 219.765 119.015 220.696 119.881 221.197C121.093 221.898 122.407 221.877 123.754 221.637C125.732 221.286 127.457 219.857 128.248 218.023C128.466 217.516 128.608 217.014 128.608 216.515Z" fill="#196DA7"/>
</g>
<path d="M118.237 205.369C121.152 204.506 123.793 205.279 124.138 207.087C124.486 208.893 122.405 211.054 119.492 211.909C116.58 212.767 113.935 212.001 113.588 210.191C113.245 208.385 115.322 206.225 118.237 205.369Z" fill="#C2F4FF"/>
<path d="M36.4668 233.778C36.4668 239.423 41.0438 244 46.6888 244C52.3338 244 56.9098 239.423 56.9098 233.778C56.9098 228.133 52.3328 223.557 46.6888 223.557C41.0448 223.557 36.4668 228.133 36.4668 233.778Z" fill="#196DA7" stroke="#A3D9F4" stroke-linecap="round" stroke-linejoin="round"/>
<g style="mix-blend-mode:multiply">
<path d="M37.5469 238.341C39.2159 241.696 42.6839 243.997 46.6879 243.997C52.3329 243.997 56.9119 239.423 56.9119 233.778C56.9119 230.248 55.1189 227.129 52.3949 225.296C53.0829 226.666 53.4719 228.217 53.4719 229.858C53.4719 235.503 48.8929 240.082 43.2479 240.082C41.1389 240.082 39.1709 239.439 37.5469 238.339V238.341Z" fill="#196DA7"/>
</g>
<g style="mix-blend-mode:screen">
<path d="M54.6077 236.515C54.6077 236.086 54.5038 235.658 54.2528 235.232C53.7128 234.304 52.7177 234.062 51.7887 234.595C50.6197 235.266 50.2328 236.715 48.8258 237.175C47.5208 237.601 45.7708 237.384 44.9638 238.726C44.3378 239.765 45.0148 240.696 45.8808 241.197C47.0928 241.898 48.4068 241.877 49.7538 241.637C51.7318 241.286 53.4568 239.857 54.2478 238.023C54.4658 237.516 54.6077 237.014 54.6077 236.515Z" fill="#196DA7"/>
</g>
<path d="M44.2368 225.369C47.1518 224.506 49.7928 225.279 50.1378 227.087C50.4858 228.893 48.4048 231.054 45.4918 231.909C42.5798 232.767 39.9348 232.001 39.5878 230.191C39.2448 228.385 41.3218 226.225 44.2368 225.369Z" fill="#C2F4FF"/>
<path d="M140.467 123.778C140.467 129.423 145.044 134 150.689 134C156.334 134 160.91 129.423 160.91 123.778C160.91 118.133 156.333 113.557 150.689 113.557C145.045 113.557 140.467 118.133 140.467 123.778Z" fill="#196DA7" stroke="#A3D9F4" stroke-linecap="round" stroke-linejoin="round"/>
<g style="mix-blend-mode:multiply">
<path d="M141.547 128.341C143.216 131.696 146.684 133.997 150.688 133.997C156.333 133.997 160.912 129.423 160.912 123.778C160.912 120.248 159.119 117.129 156.395 115.296C157.083 116.666 157.472 118.217 157.472 119.858C157.472 125.503 152.893 130.082 147.248 130.082C145.139 130.082 143.171 129.439 141.547 128.339V128.341Z" fill="#196DA7"/>
</g>
<g style="mix-blend-mode:screen">
<path d="M158.608 126.515C158.608 126.086 158.504 125.658 158.253 125.232C157.713 124.304 156.718 124.062 155.789 124.595C154.62 125.266 154.233 126.715 152.826 127.175C151.521 127.601 149.771 127.384 148.964 128.726C148.338 129.765 149.015 130.696 149.881 131.197C151.093 131.898 152.407 131.877 153.754 131.637C155.732 131.286 157.457 129.857 158.248 128.023C158.466 127.516 158.608 127.014 158.608 126.515Z" fill="#196DA7"/>
</g>
<path d="M148.237 115.369C151.152 114.506 153.793 115.279 154.138 117.087C154.486 118.893 152.405 121.054 149.492 121.909C146.58 122.767 143.935 122.001 143.588 120.191C143.245 118.385 145.322 116.225 148.237 115.369Z" fill="#C2F4FF"/>
<path d="M81.0879 211.79C81.0879 216.38 84.8099 220.102 89.3999 220.102C93.9899 220.102 97.7119 216.38 97.7119 211.79C97.7119 207.2 93.9899 203.479 89.3999 203.479C84.8099 203.479 81.0879 207.2 81.0879 211.79Z" fill="#196DA7" stroke="#A3D9F4" stroke-linecap="round" stroke-linejoin="round"/>
<g style="mix-blend-mode:multiply">
<path d="M81.9658 215.501C83.3228 218.23 86.1428 220.101 89.3988 220.101C93.9888 220.101 97.7128 216.382 97.7128 211.792C97.7128 208.921 96.2548 206.386 94.0398 204.895C94.5988 206.009 94.9158 207.27 94.9158 208.605C94.9158 213.195 91.1928 216.919 86.6018 216.919C84.8868 216.919 83.2868 216.396 81.9658 215.502V215.501Z" fill="#196DA7"/>
</g>
<g style="mix-blend-mode:screen">
<path d="M95.8393 214.016C95.8393 213.667 95.7544 213.319 95.5514 212.972C95.1124 212.218 94.3033 212.021 93.5483 212.454C92.5983 212.999 92.2833 214.178 91.1383 214.552C90.0773 214.898 88.6543 214.722 87.9973 215.813C87.4883 216.658 88.0383 217.415 88.7423 217.823C89.7273 218.393 90.7964 218.376 91.8924 218.181C93.5004 217.896 94.9033 216.734 95.5463 215.242C95.7233 214.83 95.8393 214.422 95.8393 214.016Z" fill="#196DA7"/>
</g>
<path d="M87.4058 204.952C89.7758 204.251 91.9238 204.879 92.2038 206.349C92.4868 207.817 90.7949 209.575 88.4259 210.27C86.0579 210.968 83.9069 210.345 83.6249 208.873C83.3459 207.405 85.0348 205.648 87.4058 204.952Z" fill="#C2F4FF"/>
<path d="M1.08789 131.79C1.08789 136.38 4.8099 140.102 9.3999 140.102C13.9899 140.102 17.7119 136.38 17.7119 131.79C17.7119 127.2 13.9899 123.479 9.3999 123.479C4.8099 123.479 1.08789 127.2 1.08789 131.79Z" fill="#196DA7" stroke="#A3D9F4" stroke-linecap="round" stroke-linejoin="round"/>
<g style="mix-blend-mode:multiply">
<path d="M1.96582 135.501C3.32282 138.23 6.14283 140.101 9.39883 140.101C13.9888 140.101 17.7128 136.382 17.7128 131.792C17.7128 128.921 16.2548 126.386 14.0398 124.895C14.5988 126.009 14.9158 127.27 14.9158 128.605C14.9158 133.195 11.1928 136.919 6.60184 136.919C4.88684 136.919 3.28682 136.396 1.96582 135.502V135.501Z" fill="#196DA7"/>
</g>
<g style="mix-blend-mode:screen">
<path d="M15.8393 134.016C15.8393 133.667 15.7544 133.319 15.5514 132.972C15.1124 132.218 14.3033 132.021 13.5483 132.454C12.5983 132.999 12.2833 134.178 11.1383 134.552C10.0773 134.898 8.65434 134.722 7.99734 135.813C7.48834 136.658 8.03833 137.415 8.74233 137.823C9.72733 138.393 10.7964 138.376 11.8924 138.181C13.5004 137.896 14.9033 136.734 15.5463 135.242C15.7233 134.83 15.8393 134.422 15.8393 134.016Z" fill="#196DA7"/>
</g>
<path d="M7.40584 124.952C9.77584 124.251 11.9238 124.879 12.2038 126.349C12.4868 127.817 10.7949 129.575 8.42586 130.27C6.05786 130.968 3.90687 130.345 3.62487 128.873C3.34587 127.405 5.03484 125.648 7.40584 124.952Z" fill="#C2F4FF"/>
<path d="M121.658 190.513C121.658 194.152 124.608 197.103 128.247 197.103C131.886 197.103 134.836 194.152 134.836 190.513C134.836 186.874 131.885 183.924 128.247 183.924C124.609 183.924 121.658 186.874 121.658 190.513Z" fill="#196DA7" stroke="#A3D9F4" stroke-linecap="round" stroke-linejoin="round"/>
<g style="mix-blend-mode:multiply">
<path d="M122.354 193.455C123.43 195.618 125.666 197.101 128.247 197.101C131.886 197.101 134.839 194.153 134.839 190.514C134.839 188.238 133.683 186.228 131.927 185.046C132.371 185.929 132.621 186.929 132.621 187.987C132.621 191.626 129.669 194.578 126.03 194.578C124.67 194.578 123.401 194.164 122.354 193.455Z" fill="#196DA7"/>
</g>
<g style="mix-blend-mode:screen">
<path d="M133.352 192.278C133.352 192.001 133.285 191.726 133.123 191.451C132.775 190.853 132.133 190.697 131.535 191.04C130.781 191.472 130.532 192.406 129.625 192.703C128.784 192.977 127.656 192.838 127.135 193.703C126.731 194.373 127.168 194.973 127.726 195.296C128.507 195.748 129.354 195.734 130.223 195.58C131.498 195.354 132.61 194.433 133.12 193.25C133.26 192.923 133.352 192.599 133.352 192.278Z" fill="#196DA7"/>
</g>
<path d="M126.667 185.093C128.546 184.537 130.248 185.035 130.471 186.201C130.696 187.365 129.354 188.758 127.476 189.31C125.599 189.863 123.894 189.369 123.67 188.202C123.449 187.038 124.788 185.645 126.667 185.093Z" fill="#C2F4FF"/>
<path d="M124.188 235.184C124.188 238.823 127.137 241.773 130.776 241.773C134.415 241.773 137.366 238.823 137.366 235.184C137.366 231.545 134.414 228.595 130.776 228.595C127.138 228.595 124.188 231.545 124.188 235.184Z" fill="#196DA7" stroke="#A3D9F4" stroke-linecap="round" stroke-linejoin="round"/>
<g style="mix-blend-mode:multiply">
<path d="M124.884 238.126C125.96 240.289 128.196 241.772 130.777 241.772C134.416 241.772 137.368 238.824 137.368 235.185C137.368 232.909 136.212 230.899 134.456 229.717C134.899 230.6 135.15 231.6 135.15 232.658C135.15 236.297 132.198 239.249 128.559 239.249C127.199 239.249 125.931 238.835 124.884 238.126Z" fill="#196DA7"/>
</g>
<g style="mix-blend-mode:screen">
<path d="M135.881 236.948C135.881 236.671 135.814 236.396 135.653 236.121C135.305 235.523 134.663 235.367 134.065 235.71C133.311 236.142 133.062 237.076 132.155 237.373C131.314 237.647 130.186 237.508 129.665 238.373C129.261 239.043 129.698 239.643 130.256 239.966C131.037 240.418 131.884 240.404 132.753 240.25C134.028 240.024 135.14 239.103 135.65 237.92C135.79 237.593 135.882 237.27 135.882 236.949L135.881 236.948Z" fill="#196DA7"/>
</g>
<path d="M129.196 229.763C131.075 229.207 132.777 229.705 133 230.871C133.224 232.035 131.883 233.428 130.005 233.979C128.128 234.532 126.423 234.038 126.199 232.872C125.978 231.708 127.317 230.315 129.196 229.763Z" fill="#C2F4FF"/>
<path d="M66.3975 153.796C66.3975 159.771 71.2425 164.616 77.2165 164.616C83.1905 164.616 88.0355 159.771 88.0355 153.796C88.0355 147.821 83.1905 142.977 77.2165 142.977C71.2425 142.977 66.3975 147.821 66.3975 153.796Z" fill="#196DA7" stroke="#A3D9F4" stroke-linecap="round" stroke-linejoin="round"/>
<g style="mix-blend-mode:multiply">
<path d="M67.54 158.627C69.307 162.179 72.978 164.614 77.216 164.614C83.191 164.614 88.0381 159.773 88.0381 153.798C88.0381 150.061 86.14 146.76 83.257 144.82C83.9851 146.271 84.397 147.912 84.397 149.649C84.397 155.624 79.55 160.471 73.575 160.471C71.343 160.471 69.259 159.791 67.54 158.626V158.627Z" fill="#196DA7"/>
</g>
<g style="mix-blend-mode:screen">
<path d="M85.5993 156.694C85.5993 156.239 85.4893 155.787 85.2243 155.335C84.6523 154.353 83.5993 154.097 82.6163 154.66C81.3793 155.37 80.9693 156.903 79.4793 157.391C78.0983 157.842 76.2463 157.613 75.3913 159.032C74.7283 160.132 75.4453 161.117 76.3613 161.648C77.6433 162.39 79.0353 162.368 80.4613 162.114C82.5543 161.743 84.3803 160.23 85.2183 158.289C85.4493 157.752 85.5993 157.222 85.5993 156.694Z" fill="#196DA7"/>
</g>
<path d="M74.6215 144.896C77.7065 143.983 80.5025 144.8 80.8675 146.715C81.2365 148.627 79.0325 150.914 75.9495 151.819C72.8675 152.728 70.0675 151.917 69.7005 150C69.3365 148.088 71.5365 145.801 74.6225 144.896H74.6215Z" fill="#C2F4FF"/>
<path d="M99.5704 164.435C99.8504 171.134 105.509 176.338 112.207 176.058C118.905 175.778 124.109 170.119 123.829 163.421C123.549 156.723 117.891 151.52 111.193 151.8C104.495 152.08 99.2904 157.737 99.5704 164.435Z" fill="#196DA7" stroke="#A3D9F4" stroke-linecap="round" stroke-linejoin="round"/>
<g style="mix-blend-mode:multiply">
<path d="M101.077 169.797C103.224 173.696 107.454 176.254 112.205 176.056C118.904 175.776 124.111 170.121 123.831 163.423C123.656 159.234 121.373 155.622 118.05 153.582C118.934 155.174 119.473 156.995 119.554 158.942C119.834 165.641 114.627 171.302 107.929 171.582C105.426 171.687 103.059 171.021 101.077 169.797Z" fill="#196DA7"/>
</g>
<g style="mix-blend-mode:screen">
<path d="M121.233 166.784C121.212 166.274 121.067 165.772 120.749 165.278C120.062 164.204 118.869 163.966 117.794 164.644C116.44 165.498 116.053 167.236 114.405 167.852C112.878 168.422 110.79 168.252 109.899 169.884C109.208 171.148 110.057 172.219 111.109 172.771C112.582 173.543 114.14 173.452 115.727 173.101C118.057 172.587 120.033 170.805 120.881 168.59C121.114 167.977 121.258 167.376 121.233 166.784Z" fill="#196DA7"/>
</g>
<path d="M108.373 154.071C111.789 152.903 114.961 153.688 115.46 155.817C115.963 157.943 113.6 160.61 110.186 161.77C106.773 162.933 103.596 162.155 103.095 160.024C102.598 157.898 104.957 155.231 108.374 154.071H108.373Z" fill="#C2F4FF"/>
<path d="M59.2549 9.31503C59.2549 13.712 62.8199 17.278 67.2169 17.278C71.6139 17.278 75.1789 13.713 75.1789 9.31503C75.1789 4.91703 71.6139 1.35303 67.2169 1.35303C62.8199 1.35303 59.2549 4.91803 59.2549 9.31503Z" fill="#196DA7" stroke="#A3D9F4" stroke-linecap="round" stroke-linejoin="round"/>
<g style="mix-blend-mode:multiply">
<path d="M60.0957 12.87C61.3957 15.484 64.0977 17.276 67.2167 17.276C71.6137 17.276 75.1807 13.713 75.1807 9.31598C75.1807 6.56598 73.7837 4.13698 71.6617 2.70898C72.1977 3.77598 72.5007 4.98398 72.5007 6.26298C72.5007 10.66 68.9337 14.227 64.5367 14.227C62.8937 14.227 61.3607 13.726 60.0957 12.869V12.87Z" fill="#196DA7"/>
</g>
<g style="mix-blend-mode:screen">
<path d="M73.3858 11.4471C73.3858 11.1131 73.3048 10.7801 73.1098 10.4471C72.6888 9.72407 71.9138 9.53607 71.1908 9.95107C70.2808 10.4741 69.9788 11.6021 68.8828 11.9611C67.8668 12.2931 66.5028 12.1241 65.8738 13.1691C65.3858 13.9791 65.9138 14.7041 66.5878 15.0941C67.5318 15.6401 68.5558 15.6231 69.6048 15.4371C71.1458 15.1641 72.4888 14.0511 73.1058 12.6221C73.2758 12.2271 73.3858 11.8371 73.3858 11.4481V11.4471Z" fill="#196DA7"/>
</g>
<path d="M65.3082 2.76499C67.5782 2.09299 69.6362 2.69499 69.9042 4.10299C70.1752 5.50999 68.5542 7.19299 66.2852 7.85899C64.0172 8.52799 61.9562 7.93099 61.6862 6.52099C61.4182 5.11399 63.0372 3.43099 65.3082 2.76499Z" fill="#C2F4FF"/>
<path d="M67.1738 71.343C67.1738 75.345 70.4188 78.59 74.4208 78.59C78.4228 78.59 81.6678 75.345 81.6678 71.343C81.6678 67.341 78.4228 64.097 74.4208 64.097C70.4188 64.097 67.1738 67.341 67.1738 71.343Z" fill="#196DA7" stroke="#A3D9F4" stroke-linecap="round" stroke-linejoin="round"/>
<g style="mix-blend-mode:multiply">
<path d="M67.9395 74.5791C69.1225 76.9581 71.5815 78.5891 74.4205 78.5891C78.4225 78.5891 81.6695 75.3461 81.6695 71.3441C81.6695 68.8411 80.3985 66.6301 78.4675 65.3311C78.9555 66.3021 79.2315 67.4021 79.2315 68.5651C79.2315 72.5671 75.9855 75.8141 71.9825 75.8141C70.4875 75.8141 69.0915 75.3581 67.9405 74.5791H67.9395Z" fill="#196DA7"/>
</g>
<g style="mix-blend-mode:screen">
<path d="M80.0345 73.2841C80.0345 72.9801 79.9605 72.6771 79.7835 72.3741C79.4005 71.7161 78.6955 71.5451 78.0375 71.9221C77.2085 72.3981 76.9345 73.4251 75.9365 73.7511C75.0115 74.0531 73.7705 73.9001 73.1985 74.8501C72.7545 75.5871 73.2345 76.2471 73.8485 76.6021C74.7075 77.0991 75.6395 77.084 76.5945 76.914C77.9965 76.665 79.2195 75.6521 79.7805 74.3521C79.9355 73.9921 80.0355 73.6371 80.0355 73.2831L80.0345 73.2841Z" fill="#196DA7"/>
</g>
<path d="M72.6826 65.3821C74.7486 64.7701 76.6216 65.3181 76.8656 66.6001C77.1126 67.8801 75.6366 69.4121 73.5716 70.0191C71.5076 70.6281 69.6316 70.0841 69.3856 68.8011C69.1426 67.5211 70.6156 65.9891 72.6826 65.3821Z" fill="#C2F4FF"/>
<path d="M7.17383 91.343C7.17383 95.345 10.4188 98.59 14.4208 98.59C18.4228 98.59 21.6678 95.345 21.6678 91.343C21.6678 87.341 18.4228 84.097 14.4208 84.097C10.4188 84.097 7.17383 87.341 7.17383 91.343Z" fill="#196DA7" stroke="#A3D9F4" stroke-linecap="round" stroke-linejoin="round"/>
<g style="mix-blend-mode:multiply">
<path d="M7.93945 94.5791C9.12245 96.9581 11.5815 98.5891 14.4205 98.5891C18.4225 98.5891 21.6695 95.3461 21.6695 91.3441C21.6695 88.8411 20.3985 86.6301 18.4675 85.3311C18.9555 86.3021 19.2315 87.4021 19.2315 88.5651C19.2315 92.5671 15.9855 95.8141 11.9825 95.8141C10.4875 95.8141 9.09146 95.3581 7.94046 94.5791H7.93945Z" fill="#196DA7"/>
</g>
<g style="mix-blend-mode:screen">
<path d="M20.0345 93.2841C20.0345 92.9801 19.9605 92.6771 19.7835 92.3741C19.4005 91.7161 18.6955 91.5451 18.0375 91.9221C17.2085 92.3981 16.9345 93.4251 15.9365 93.7511C15.0115 94.0531 13.7705 93.9001 13.1985 94.8501C12.7545 95.5871 13.2345 96.2471 13.8485 96.6021C14.7075 97.0991 15.6395 97.084 16.5945 96.914C17.9965 96.665 19.2195 95.6521 19.7805 94.3521C19.9355 93.9921 20.0355 93.6371 20.0355 93.2831L20.0345 93.2841Z" fill="#196DA7"/>
</g>
<path d="M12.6826 85.3821C14.7486 84.7701 16.6216 85.3181 16.8656 86.6001C17.1126 87.8801 15.6366 89.4121 13.5716 90.0191C11.5076 90.6281 9.6316 90.0841 9.3856 88.8011C9.1426 87.5211 10.6156 85.9891 12.6826 85.3821Z" fill="#C2F4FF"/>
</svg>
