<svg width="34" height="38" viewBox="0 0 34 38" fill="none" xmlns="http://www.w3.org/2000/svg">
<path d="M17 28V37M2.00005 10L9.00005 15M25 15L32.2001 10.5M31 8.68804C31.6126 9.04404 32.1202 9.55563 32.4715 10.171C32.8227 10.7863 33.005 11.4835 33 12.192V25.302C33 26.758 32.212 28.1 30.94 28.808L18.94 36.496C18.346 36.826 17.6776 36.9991 16.998 36.9991C16.3185 36.9991 15.6501 36.826 15.056 36.496L3.05605 28.808C2.43266 28.4595 1.91341 27.9511 1.5517 27.3352C1.18998 26.7194 0.998882 26.0183 0.998047 25.304V12.192C0.998047 10.734 1.78605 9.39204 3.05605 8.68604L15.056 1.52004C15.6673 1.17847 16.3558 0.999146 17.056 0.999146C17.7563 0.999146 18.4448 1.17847 19.056 1.52004L31.056 8.68804H30.996H31Z" stroke="#031A3E" stroke-width="2" stroke-linecap="round" stroke-linejoin="round"/>
<path d="M17 10V19M17 19L9 23M17 19L25 23" stroke="#031A3E" stroke-width="2" stroke-linecap="round" stroke-linejoin="round"/>
<path d="M17 28L25 23V15L17 10L9 15V23L17 28Z" stroke="#031A3E" stroke-width="2" stroke-linecap="round" stroke-linejoin="round"/>
</svg>
