<svg width="48" height="48" viewBox="0 0 48 48" fill="none" xmlns="http://www.w3.org/2000/svg">
<path d="M25.058 42.3247C24.4419 42.7257 23.6396 42.7322 23.0158 42.3432C8.6222 33.3702 6.97678 20.0716 6.95338 14.6425C6.95024 13.9138 7.37947 13.2663 8.03172 12.9413L23.1676 5.40015C23.7311 5.11943 24.3938 5.12035 24.9564 5.40264L39.8747 12.8873C40.5491 13.2257 40.9811 13.9083 40.9503 14.6623C40.7263 20.1514 38.703 33.4454 25.058 42.3247Z" stroke="#031A3E" stroke-width="2" stroke-linecap="round" stroke-linejoin="round"/>
<path d="M10.5 19.1185C12.9071 21.1066 16.9251 23.1859 23.5903 24.8778C23.9102 24.959 24.248 24.9574 24.567 24.873C30.9152 23.192 34.8266 21.1117 37.2296 19.1185" stroke="#031A3E" stroke-width="2" stroke-linecap="round" stroke-linejoin="round"/>
<path d="M24 9.5V38.5" stroke="#031A3E" stroke-width="2" stroke-linecap="round" stroke-linejoin="round"/>
</svg>
