<svg width="38" height="38" viewBox="0 0 38 38" fill="none" xmlns="http://www.w3.org/2000/svg">
<path d="M15.5 10.2972C15.9501 7.68854 17.362 5.34344 19.4569 3.7251C21.5519 2.10676 24.1775 1.33283 26.8153 1.55616C29.4531 1.77949 31.9113 2.98385 33.7043 4.93138C35.4974 6.87891 36.4949 9.428 36.5 12.0752C36.4997 14.5716 35.6164 16.9874 34.0064 18.8952C32.3964 20.803 30.1635 22.0799 27.7027 22.5M1.5 13.75C1.5 7.94523 6.19525 3.24998 12 3.24998L10.5003 6.24948M36.5 24.25C36.5 30.0547 31.8047 34.75 26 34.75L27.4998 31.7505M12 36.5C14.7848 36.5 17.4555 35.3937 19.4246 33.4246C21.3938 31.4555 22.5 28.7848 22.5 26C22.5 23.2152 21.3938 20.5445 19.4246 18.5754C17.4555 16.6062 14.7848 15.5 12 15.5C9.21523 15.5 6.54451 16.6062 4.57538 18.5754C2.60625 20.5445 1.5 23.2152 1.5 26C1.5 28.7848 2.60625 31.4555 4.57538 33.4246C6.54451 35.3937 9.21523 36.5 12 36.5Z" stroke="#031A3E" stroke-width="2" stroke-linecap="round" stroke-linejoin="round"/>
</svg>
