<svg width="14" height="14" viewBox="0 0 14 14" fill="none" xmlns="http://www.w3.org/2000/svg">
<path d="M11.4 5H6.6C6.38988 5 6.18183 5.04138 5.98771 5.12179C5.79359 5.2022 5.6172 5.32006 5.46863 5.46863C5.32006 5.6172 5.2022 5.79359 5.12179 5.98771C5.04138 6.18183 5 6.38988 5 6.6V11.4C5 11.8243 5.16857 12.2313 5.46863 12.5314C5.76869 12.8314 6.17565 13 6.6 13H11.4C11.8243 13 12.2313 12.8314 12.5314 12.5314C12.8314 12.2313 13 11.8243 13 11.4V6.6C13 6.17565 12.8314 5.76869 12.5314 5.46863C12.2313 5.16857 11.8243 5 11.4 5Z" fill="#031A3E" fill-opacity="0.16"/>
<path d="M3 9H2.6C1.71333 9 1 8.28667 1 7.4V2.6C1 1.71333 1.71333 1 2.6 1H7.4C8.28667 1 9 1.71333 9 2.6V3M6.6 5H11.4C11.8243 5 12.2313 5.16857 12.5314 5.46863C12.8314 5.76869 13 6.17565 13 6.6V11.4C13 11.8243 12.8314 12.2313 12.5314 12.5314C12.2313 12.8314 11.8243 13 11.4 13H6.6C6.17565 13 5.76869 12.8314 5.46863 12.5314C5.16857 12.2313 5 11.8243 5 11.4V6.6C5 6.38988 5.04139 6.18183 5.12179 5.98771C5.2022 5.79359 5.32006 5.6172 5.46863 5.46863C5.6172 5.32006 5.79359 5.2022 5.98771 5.12179C6.18183 5.04139 6.38988 5 6.6 5Z" stroke="#031A3E" stroke-miterlimit="10" stroke-linecap="round" stroke-linejoin="round"/>
</svg>
