<svg width="17" height="16" viewBox="0 0 17 16" fill="none" xmlns="http://www.w3.org/2000/svg">
<path d="M12.5338 6.45H11.1338H10.6338V5.95V4.4V3.9H11.1338H12.1838C12.4588 3.9 12.6838 3.7 12.6838 3.4V0.75C12.6838 0.475 12.4838 0.25 12.1838 0.25H10.3588C8.38379 0.25 7.00879 1.65 7.00879 3.725V5.9V6.4H6.50879H4.80879C4.45879 6.4 4.13379 6.675 4.13379 7.075V8.875C4.13379 9.225 4.40879 9.55 4.80879 9.55H6.45879H6.95879V10.05V15.075C6.95879 15.425 7.23379 15.75 7.63379 15.75H9.98379C10.1338 15.75 10.2588 15.675 10.3588 15.575C10.4588 15.475 10.5338 15.3 10.5338 15.15V10.075V9.575H11.0588H12.1838C12.5088 9.575 12.7588 9.375 12.8088 9.075V9.05V9.025L13.1588 7.3C13.1838 7.125 13.1588 6.925 13.0088 6.725C12.9588 6.6 12.7338 6.475 12.5338 6.45Z" fill="#031A3E"/>
</svg>
