<svg width="17" height="16" viewBox="0 0 17 16" fill="none" xmlns="http://www.w3.org/2000/svg">
<path d="M5.31022 3.33302C5.31004 3.68665 5.1694 4.02571 4.91923 4.27564C4.66905 4.52556 4.32984 4.66587 3.97622 4.66569C3.6226 4.66551 3.28353 4.52487 3.03361 4.27469C2.78368 4.02452 2.64338 3.68531 2.64355 3.33169C2.64373 2.97807 2.78438 2.639 3.03455 2.38908C3.28472 2.13915 3.62393 1.99885 3.97755 1.99902C4.33118 1.9992 4.67025 2.13985 4.92017 2.39002C5.17009 2.64019 5.3104 2.9794 5.31022 3.33302ZM5.35022 5.65302H2.68355V13.9997H5.35022V5.65302ZM9.56355 5.65302H6.91022V13.9997H9.53689V9.61969C9.53689 7.17969 12.7169 6.95302 12.7169 9.61969V13.9997H15.3502V8.71302C15.3502 4.59969 10.6436 4.75302 9.53689 6.77302L9.56355 5.65302Z" fill="#031A3E"/>
</svg>
