<svg width="276" height="392" viewBox="0 0 276 392" fill="none" xmlns="http://www.w3.org/2000/svg">
<g clip-path="url(#clip0_133_3277)">
<path d="M132.472 375.832C131.755 381.995 126.367 387.241 119.686 388.248C100.921 391.09 75.1714 389.382 75.8775 380.059C76.048 377.812 76.7823 375.902 77.8634 374.28C82.2988 367.604 92.4986 365.855 92.4986 365.855C90.2281 343.037 91.9349 322.009 93.2287 311.035V311.029C93.8291 305.985 94.3379 303.062 94.3379 303.062C138.519 295.704 136.423 318.779 136.423 318.779C137.338 331.099 134.252 360.483 132.472 375.832Z" fill="#003872"/>
<path d="M77.8643 374.279C82.2997 367.602 92.4996 365.853 92.4996 365.853C92.4122 364.981 92.3333 364.114 92.2586 363.248C95.7131 364.471 103.298 366.663 112.961 366.663C119.254 366.663 126.138 365.991 133.883 363.022C133.387 367.8 132.893 372.208 132.473 375.83C131.754 381.993 126.368 387.239 119.687 388.246C100.922 391.089 75.1724 389.38 75.8785 380.058C76.049 377.811 76.7833 375.901 77.8643 374.277V374.279Z" fill="#02234E"/>
<path d="M94.5236 369.329C88.5998 370.388 80.6508 373.253 75.4219 379.281C78.259 370.322 87.8881 365.705 94.6152 365.705C100.122 365.705 103.982 367.195 108.43 369.078C105.669 368.322 99.1704 368.497 94.5236 369.329Z" fill="#40AFEC"/>
<path d="M132.472 375.832C131.755 381.995 126.367 387.241 119.686 388.248C100.921 391.09 75.1714 389.382 75.8775 380.059C76.048 377.812 76.7823 375.902 77.8634 374.28C82.2988 367.604 92.4986 365.855 92.4986 365.855C90.2281 343.037 91.9349 322.009 93.2287 311.035V311.029C93.8291 305.985 94.3379 303.062 94.3379 303.062C138.519 295.704 136.423 318.779 136.423 318.779C137.338 331.099 134.252 360.483 132.472 375.832Z" stroke="#031A3E" stroke-width="3.547" stroke-miterlimit="10" stroke-linecap="round"/>
<path d="M90.7762 368.624C99.6541 366.976 107.554 368.422 114.657 371.862C116.701 371.464 110.687 367.777 110.041 367.666C108.16 366.352 88.9919 362.293 89.0004 366.668C88.9567 367.54 89.9884 368.71 90.7762 368.624Z" fill="#031A3E"/>
<path d="M112.856 367.663C119.159 367.663 126.053 366.991 133.812 364.009C134.504 363.744 135.217 362.757 134.94 362.227C134.664 361.696 133.884 361.503 133.185 361.747C111.403 369.327 92.2615 361.358 92.0769 361.266C91.4708 360.965 90.6266 361.135 90.1953 361.647C89.764 362.159 89.5315 363.159 90.1403 363.459C90.6815 363.727 99.9075 367.663 112.856 367.663Z" fill="#031A3E"/>
<path d="M143.487 375.832C144.205 381.995 149.593 387.241 156.274 388.248C175.038 391.09 200.788 389.382 200.082 380.059C199.912 377.812 199.177 375.902 198.096 374.28C193.661 367.604 183.461 365.855 183.461 365.855C185.732 343.037 184.025 322.009 182.731 311.035V311.029C182.131 305.985 181.622 303.062 181.622 303.062C137.441 295.704 139.537 318.779 139.537 318.779C138.622 331.099 141.707 360.483 143.487 375.832Z" fill="#003872"/>
<path d="M198.095 374.279C193.66 367.602 183.46 365.853 183.46 365.853C183.548 364.981 183.626 364.114 183.701 363.248C180.247 364.471 172.661 366.663 162.998 366.663C156.705 366.663 149.822 365.991 142.077 363.022C142.573 367.8 143.067 372.208 143.487 375.83C144.205 381.993 149.592 387.239 156.273 388.246C175.038 391.089 200.787 389.38 200.081 380.058C199.911 377.811 199.176 375.901 198.095 374.277V374.279Z" fill="#02234E"/>
<path d="M181.436 369.329C187.36 370.388 195.309 373.253 200.538 379.281C197.7 370.322 188.071 365.705 181.344 365.705C175.838 365.705 171.977 367.195 167.529 369.078C170.29 368.322 176.789 368.497 181.436 369.329Z" fill="#40AFEC"/>
<path d="M143.487 375.832C144.205 381.995 149.593 387.241 156.274 388.248C175.038 391.09 200.788 389.382 200.082 380.059C199.912 377.812 199.177 375.902 198.096 374.28C193.661 367.604 183.461 365.855 183.461 365.855C185.732 343.037 184.025 322.009 182.731 311.035V311.029C182.131 305.985 181.622 303.062 181.622 303.062C137.441 295.704 139.537 318.779 139.537 318.779C138.622 331.099 141.707 360.483 143.487 375.832Z" stroke="#031A3E" stroke-width="3.547" stroke-miterlimit="10" stroke-linecap="round"/>
<path d="M185.185 368.624C176.307 366.976 168.407 368.422 161.304 371.862C159.26 371.464 165.274 367.777 165.919 367.666C167.801 366.352 186.969 362.293 186.96 366.668C187.004 367.54 185.972 368.71 185.185 368.624Z" fill="#031A3E"/>
<path d="M163.103 367.663C156.801 367.663 149.906 366.991 142.147 364.009C141.455 363.744 140.742 362.757 141.019 362.227C141.296 361.696 142.075 361.503 142.774 361.747C164.557 369.327 183.698 361.358 183.882 361.266C184.488 360.965 185.333 361.135 185.764 361.647C186.195 362.159 186.428 363.159 185.819 363.459C185.278 363.727 176.052 367.663 163.103 367.663Z" fill="#031A3E"/>
<path d="M192.78 238.299C192.78 222.063 168.254 208.902 138 208.902C107.745 208.902 83.2188 222.063 83.2188 238.299V283.867C83.2188 300.103 107.745 313.263 138 313.263C168.254 313.263 192.78 300.103 192.78 283.867V238.299Z" fill="#003872"/>
<path d="M170.225 234.526C183.895 239.871 192.78 248.527 192.78 258.298V283.867C192.78 300.103 168.254 313.263 138 313.263C136.655 313.263 135.32 313.235 133.999 313.184C162.386 312.085 184.78 299.381 184.78 283.867V273.5C184.78 265.797 179.258 249.515 170.225 234.526Z" fill="#002A58"/>
<path d="M192.78 238.299C192.78 222.063 168.254 208.902 138 208.902C107.745 208.902 83.2188 222.063 83.2188 238.299V283.867C83.2188 300.103 107.745 313.263 138 313.263C168.254 313.263 192.78 300.103 192.78 283.867V238.299Z" stroke="#031A3E" stroke-width="3.547" stroke-miterlimit="10"/>
<path d="M138 251.272V295.285" stroke="#031A3E" stroke-width="3.51" stroke-miterlimit="10" stroke-linecap="round"/>
<path d="M83.2188 287.1C94.5067 292.01 114.757 295.285 137.878 295.285C161.17 295.285 181.545 291.961 192.782 286.99V303.427C181.538 309.761 161.156 313.993 137.878 313.993C115.735 313.993 95.1691 309.119 83.6402 303.295C83.4259 298.42 83.6289 293.066 83.2188 287.1Z" fill="#F8B30D"/>
<path d="M83.2188 287.1C94.5067 292.01 114.757 295.285 137.878 295.285C161.17 295.285 181.545 291.961 192.782 286.99V303.427C181.538 309.761 161.156 313.993 137.878 313.993C115.735 313.993 95.1691 309.119 83.6402 303.295C83.4259 298.42 83.2188 293.229 83.2188 287.1Z" stroke="#031A3E" stroke-width="3.547" stroke-miterlimit="10" stroke-linecap="round"/>
<path d="M151.308 293.749C152.615 296.728 153.367 300.184 153.367 303.873C153.367 307.562 152.616 311.018 151.308 313.997C147.391 314.991 142.849 315.563 138.001 315.563C133.152 315.563 128.608 314.991 124.693 313.997C123.386 311.018 122.634 307.562 122.634 303.873C122.634 300.184 123.385 296.728 124.693 293.749C128.61 292.755 133.152 292.183 138.001 292.183C142.85 292.183 147.393 292.755 151.308 293.749Z" fill="#F8B30D"/>
<path d="M151.308 293.749C152.615 296.728 153.367 300.184 153.367 303.873C153.367 307.562 152.616 311.018 151.308 313.997C147.391 314.991 142.849 315.563 138.001 315.563C133.152 315.563 128.608 314.991 124.693 313.997C123.386 311.018 122.634 307.562 122.634 303.873C122.634 300.184 123.385 296.728 124.693 293.749C128.61 292.755 133.152 292.183 138.001 292.183C142.85 292.183 147.393 292.755 151.308 293.749Z" stroke="#031A3E" stroke-width="3.288" stroke-miterlimit="10" stroke-linecap="round"/>
<path d="M93.0448 256.72C81.7132 271.528 65.3951 285.978 38.2837 282.457C-2.26634 277.187 6.34795 252.997 6.34795 252.997C5.25848 246.199 7.47689 243.614 9.79254 242.684C10.8087 242.278 11.9038 242.336 12.8552 242.753C13.76 243.147 14.531 243.873 14.9749 244.824C19.9445 255.516 27.7089 253.234 27.7089 253.234C27.7089 253.234 25.1198 244.14 29.4425 241.962C33.7652 239.79 39.2943 252.711 39.2943 252.711C43.0982 253.368 44.7416 253.169 47.9833 252.967C55.7392 252.501 62.8948 248.551 67.4979 242.288C86.1472 216.9 100.231 247.328 93.0448 256.72Z" fill="white"/>
<path d="M47.0611 282.944C85.4942 282.143 104.723 241.983 108.355 233.511C108.785 232.507 108.997 231.948 108.997 231.948L108.194 231.002L98.8343 219.953L98.699 219.793C98.699 219.793 86.1482 216.899 67.4975 242.286C62.893 248.55 55.7388 252.499 47.9828 252.966C46.9737 253.028 45.9293 253.062 44.8525 253.058C44.8525 253.058 47.5952 260.067 48.0167 267.388C48.4381 274.709 47.0611 282.943 47.0611 282.943V282.944Z" fill="#003872"/>
<path opacity="0.5" d="M45.3438 282.954C68.6765 283.18 85.1172 268.944 95.4369 255.457C102.622 246.067 98.6955 242.756 94.9577 243.432C91.22 244.108 94.9577 250.256 75.4684 265.017C65.9507 272.226 54.7445 277.185 45.6299 277.557L45.3438 282.954Z" fill="#001C3E"/>
<path d="M47.9112 254.145C51.8307 259.772 52.713 272.446 49.8322 281.889C47.3573 282.85 43.4997 282.819 41.1051 282.146C43.573 271.514 43.9944 260.263 40.9727 253.604C43.9578 253.536 46.4116 253.495 47.9112 254.145Z" fill="#40AFEC"/>
<path opacity="0.5" d="M45.3429 282.954C43.0554 282.931 40.7017 282.771 38.2818 282.456C-2.2683 277.186 6.346 252.996 6.346 252.996C6.735 251.795 8.11199 250.578 11.1521 249.617C11.1521 249.617 6.51654 260.172 13.9103 262.818C13.9103 262.818 14.7771 272.322 24.9995 274.856C30.2284 276.152 37.8533 277.876 45.6304 277.557L45.3429 282.954Z" fill="#47B4EA"/>
<path d="M94.3555 256.844C82.9294 271.226 64.5494 285.867 38.2822 282.456C15.2624 279.464 7.27528 270.835 5.14566 263.283C3.52485 257.531 5.53325 252.086 5.53325 252.086C4.44378 245.288 7.47541 243.612 9.79107 242.683C10.8073 242.277 11.9024 242.334 12.8537 242.752C13.7586 243.146 14.5295 243.872 14.9735 244.823C19.943 255.515 27.7075 253.233 27.7075 253.233C27.7075 253.233 25.1184 244.139 29.441 241.961C33.7637 239.788 39.2928 252.709 39.2928 252.709C43.0968 253.367 44.7401 253.168 47.9818 252.966C55.7377 252.499 62.8933 248.549 67.4964 242.286C76.8211 229.593 93.717 220.003 99.1855 217.553" stroke="#031A3E" stroke-width="3.547" stroke-miterlimit="10" stroke-linecap="round"/>
<path opacity="0.5" d="M14.2432 255.457C14.2432 255.457 24.3261 255.225 30.2681 260.399C36.2102 265.573 32.3146 272.071 32.3146 272.071C32.3146 272.071 27.9426 266.698 22.3374 267.842C22.3374 267.842 25.9962 256.665 18.9703 258.539C18.9703 258.539 15.0226 261.149 14.2432 255.457Z" fill="#47B4EA"/>
<path d="M40.0962 283.359C40.2301 283.459 40.3852 283.537 40.5557 283.584C41.3041 283.795 42.0807 283.359 42.2907 282.61C48.0016 262.258 41.6494 252.388 41.376 251.977C40.9447 251.328 40.0709 251.155 39.424 251.587C38.7784 252.017 38.6037 252.887 39.0293 253.533C39.0998 253.642 44.9009 262.884 39.579 281.847C39.4169 282.425 39.6396 283.02 40.0934 283.357L40.0962 283.359Z" fill="#031A3E"/>
<path d="M48.7373 283.319C48.8769 283.412 49.0347 283.482 49.2081 283.521C49.9663 283.693 50.7204 283.218 50.8923 282.459C55.5631 261.843 48.7176 252.309 48.4245 251.912C47.9608 251.286 47.0799 251.158 46.4555 251.622C45.8326 252.085 45.7015 252.963 46.1609 253.587C46.2371 253.693 52.5005 262.627 48.1482 281.835C48.0157 282.421 48.268 283.003 48.7388 283.318L48.7373 283.319Z" fill="#031A3E"/>
<path d="M2.24503 242.399C0.808847 226.747 12.3223 212.891 27.9611 211.454C43.597 210.016 57.4388 221.539 58.8736 237.193C60.3112 252.843 48.7978 266.698 33.1646 268.137C17.5244 269.574 3.68263 258.051 2.24644 242.401L2.24503 242.399Z" fill="#F8B30D"/>
<path d="M27.7902 212.56C31.0163 212.294 34.165 212.567 37.1501 213.287C35.6984 213.19 34.2227 213.199 32.7316 213.321C17.1154 214.606 5.69774 227.843 7.22836 242.885C8.44186 254.817 17.4452 264.295 28.9107 267.062C15.1718 266.144 3.67102 255.725 2.28698 242.123C0.756362 227.082 12.174 213.845 27.7902 212.56Z" fill="#E28C0E"/>
<path d="M12.0371 242.127C11.1407 230.501 19.2899 220.119 30.2368 218.943C41.1823 217.765 50.7831 226.235 51.6767 237.863C52.5745 249.488 44.4253 259.868 33.4813 261.046C22.533 262.224 12.9321 253.753 12.0357 242.129L12.0371 242.127Z" stroke="#E28C0E" stroke-width="2.061" stroke-miterlimit="10"/>
<path d="M43.3689 238.379C44.278 235.452 42.2471 233.491 39.2958 231.937L40.9307 228.035L38.5572 227.039L36.966 230.838C36.3416 230.576 35.6989 230.32 35.0605 230.068L36.663 226.244L34.2909 225.248L32.656 229.148C32.1374 228.944 31.63 228.741 31.1367 228.535L31.1409 228.522L27.8683 227.147L26.8056 229.683C26.8056 229.683 28.5716 230.385 28.5293 230.405C29.4905 230.808 29.5694 231.498 29.4581 232.019L24.979 242.708C24.8099 242.993 24.4293 243.401 23.7584 243.12C23.7782 243.16 22.0333 242.395 22.0333 242.395L20.373 245.033L23.4611 246.329C24.0361 246.57 24.597 246.819 25.1509 247.054L23.4977 251.001L25.8683 251.997L27.5046 248.093C28.1502 248.379 28.7773 248.648 29.3933 248.906L27.764 252.793L30.1374 253.788L31.7892 249.85C35.8751 251.296 39.0886 251.461 41.0068 247.857C42.5515 244.955 41.6974 243.013 39.6608 241.518C41.3309 241.394 42.7079 240.519 43.3689 238.376V238.379ZM36.5136 245.424C35.2789 248.373 30.3742 245.92 28.7661 245.247L30.9577 240.02C32.5658 240.695 37.8032 242.349 36.515 245.425L36.5136 245.424ZM38.5008 237.584C37.3761 240.267 33.2987 238.187 31.9598 237.624L33.9471 232.882C35.2874 233.445 39.6735 234.785 38.5008 237.584Z" fill="white"/>
<path d="M2.24503 242.399C0.808847 226.747 12.3223 212.891 27.9611 211.454C43.597 210.016 57.4388 221.539 58.8736 237.193C60.3112 252.843 48.7978 266.698 33.1646 268.137C17.5244 269.574 3.68263 258.051 2.24644 242.401L2.24503 242.399Z" stroke="#031A3E" stroke-width="3.014" stroke-miterlimit="10"/>
<path d="M32.5686 271.93C29.9866 269.315 25.2003 266.433 21.2074 267.604C24.979 263.163 23.6823 255.358 15.7939 260.218C14.548 253.475 12.7763 246.225 6.25923 252.402C-0.257872 258.579 6.64118 270.981 17.9728 276.23C29.3059 281.478 32.5686 271.93 32.5686 271.93Z" fill="white"/>
<path opacity="0.5" d="M6.34644 252.996C6.65651 252.039 7.61068 251.074 9.51479 250.235C10.0405 250.069 10.5197 250.031 10.958 250.1C10.1617 252.192 7.46269 260.51 13.9093 262.818C13.9093 262.818 14.7761 272.322 24.9985 274.856C26.3924 275.201 27.9625 275.577 29.6552 275.936C27.4368 277.731 23.7583 278.908 17.9726 276.23C15.8614 275.252 13.9037 274.025 12.1574 272.635C2.47198 263.878 6.34644 252.994 6.34644 252.994V252.996Z" fill="#47B4EA"/>
<path d="M38.2822 282.456C15.2624 279.464 7.27528 270.836 5.14566 263.283C3.52485 257.531 5.53325 252.086 5.53325 252.086" stroke="#031A3E" stroke-width="3.547" stroke-miterlimit="10"/>
<path d="M5.14015 252.272C10.1196 244.536 16.0363 249.96 16.5056 257.892C22.6746 253.797 27.2439 260.856 23.8867 266.291C27.5497 266.104 31.6469 268.186 32.5686 271.93C32.6574 272.218 32.2698 272.449 32.0612 272.214C29.2932 269.058 25.0678 268.178 21.1975 269.596C19.8713 270.122 18.6606 268.32 19.6909 267.292C25.585 260.843 20.0545 255.952 14.8016 263.273C12.486 266.154 12.9342 270.41 15.1004 273.265C16.3337 274.675 14.0391 276.546 12.9144 275.041C9.38247 270.617 9.65025 263.846 13.9067 259.998C13.7615 256.161 11.8066 247.118 7.55587 253.719C6.64258 255.299 4.18034 253.825 5.14015 252.272Z" fill="#031A3E"/>
<path d="M182.955 256.72C194.286 271.528 210.605 285.978 237.716 282.457C278.266 277.187 269.652 252.997 269.652 252.997C270.741 246.199 268.523 243.614 266.207 242.684C265.191 242.278 264.096 242.336 263.144 242.753C262.24 243.147 261.469 243.873 261.025 244.824C256.055 255.516 248.291 253.234 248.291 253.234C248.291 253.234 250.88 244.14 246.557 241.962C242.234 239.79 236.705 252.711 236.705 252.711C232.901 253.368 231.258 253.169 228.016 252.967C220.26 252.501 213.105 248.551 208.502 242.288C189.852 216.9 175.768 247.328 182.955 256.72Z" fill="white"/>
<path d="M228.938 282.944C190.505 282.143 171.277 241.983 167.645 233.511C167.215 232.507 167.002 231.948 167.002 231.948L167.805 231.002L177.165 219.953L177.3 219.793C177.3 219.793 189.851 216.899 208.502 242.286C213.107 248.55 220.261 252.499 228.017 252.966C229.026 253.028 230.07 253.062 231.147 253.058C231.147 253.058 228.404 260.067 227.983 267.388C227.561 274.709 228.938 282.943 228.938 282.943V282.944Z" fill="#003872"/>
<path opacity="0.5" d="M230.655 282.954C207.322 283.18 190.882 268.944 180.562 255.457C173.377 246.067 177.303 242.756 181.041 243.432C184.779 244.108 181.041 250.256 200.53 265.017C210.048 272.226 221.254 277.185 230.369 277.557L230.655 282.954Z" fill="#001C3E"/>
<path d="M228.089 254.145C224.169 259.772 223.287 272.446 226.168 281.889C228.643 282.85 232.5 282.819 234.895 282.146C232.427 271.514 232.006 260.263 235.027 253.604C232.042 253.536 229.589 253.495 228.089 254.145Z" fill="#40AFEC"/>
<path opacity="0.5" d="M230.655 282.954C232.942 282.931 235.296 282.771 237.716 282.456C278.266 277.186 269.652 252.996 269.652 252.996C269.263 251.795 267.886 250.578 264.846 249.617C264.846 249.617 269.481 260.172 262.087 262.818C262.087 262.818 261.221 272.322 250.998 274.856C245.769 276.152 238.144 277.876 230.367 277.557L230.653 282.954H230.655Z" fill="#47B4EA"/>
<path d="M181.644 256.844C193.071 271.226 211.451 285.867 237.718 282.456C260.738 279.464 268.725 270.835 270.854 263.283C272.475 257.531 270.467 252.086 270.467 252.086C271.556 245.288 268.525 243.612 266.209 242.683C265.193 242.277 264.098 242.334 263.146 242.752C262.241 243.146 261.471 243.872 261.027 244.823C256.057 255.515 248.293 253.233 248.293 253.233C248.293 253.233 250.882 244.139 246.559 241.961C242.236 239.788 236.707 252.709 236.707 252.709C232.903 253.367 231.26 253.168 228.018 252.966C220.262 252.499 213.107 248.549 208.504 242.286C199.179 229.593 182.283 220.003 176.814 217.553" stroke="#031A3E" stroke-width="3.547" stroke-miterlimit="10" stroke-linecap="round"/>
<path opacity="0.5" d="M261.755 255.457C261.755 255.457 251.672 255.225 245.73 260.399C239.788 265.573 243.684 272.071 243.684 272.071C243.684 272.071 248.055 266.698 253.661 267.842C253.661 267.842 250.002 256.665 257.028 258.539C257.028 258.539 260.976 261.149 261.755 255.457Z" fill="#47B4EA"/>
<path d="M235.903 283.359C235.769 283.459 235.614 283.537 235.444 283.584C234.695 283.795 233.919 283.359 233.709 282.61C227.998 262.258 234.35 252.388 234.624 251.977C235.055 251.328 235.929 251.155 236.576 251.587C237.221 252.017 237.396 252.887 236.97 253.533C236.9 253.642 231.099 262.884 236.421 281.847C236.583 282.425 236.36 283.02 235.906 283.357L235.903 283.359Z" fill="#031A3E"/>
<path d="M227.263 283.319C227.123 283.412 226.965 283.482 226.792 283.521C226.034 283.693 225.28 283.218 225.108 282.459C220.437 261.843 227.282 252.309 227.576 251.912C228.039 251.286 228.92 251.158 229.545 251.622C230.168 252.085 230.299 252.963 229.839 253.587C229.763 253.693 223.5 262.627 227.852 281.835C227.984 282.421 227.732 283.003 227.261 283.318L227.263 283.319Z" fill="#031A3E"/>
<path d="M267.38 257.715C277.432 245.609 275.777 227.637 263.679 217.579C251.585 207.521 233.628 209.18 223.577 221.289C213.524 233.392 215.181 251.362 227.274 261.418C239.373 271.478 257.328 269.82 267.38 257.715Z" fill="#627EEB"/>
<path d="M263.194 218.589C260.682 216.54 257.926 214.978 255.053 213.88C256.307 214.624 257.521 215.467 258.682 216.415C270.848 226.335 272.775 243.741 262.992 255.289C255.23 264.45 242.428 267.166 231.394 262.946C243.256 269.983 258.654 267.907 267.502 257.464C277.286 245.916 275.358 228.511 263.193 218.59L263.194 218.589Z" fill="#4A5FC6"/>
<path d="M259.45 251.935C266.777 242.845 265.93 229.652 257.558 222.47C249.188 215.288 236.462 216.834 229.138 225.924C221.812 235.012 222.659 248.203 231.028 255.385C237.661 261.076 246.97 261.417 253.957 257C256.34 255.494 257.489 253.899 259.45 251.935Z" stroke="#4A5FC6" stroke-width="4.64288" stroke-miterlimit="10"/>
<path d="M267.38 257.715C277.432 245.609 275.777 227.637 263.679 217.579C251.585 207.521 233.628 209.18 223.577 221.289C213.524 233.392 215.181 251.362 227.274 261.418C239.373 271.478 257.328 269.82 267.38 257.715Z" stroke="#031A3E" stroke-width="3.014" stroke-miterlimit="10"/>
<path d="M242.888 246.045V246.044L252.905 242.729L241.383 253.228L235.037 238.984L242.888 246.045Z" fill="white"/>
<path d="M247.371 224.627L253.55 239.65L243.531 242.966L235.687 235.906L247.371 224.627Z" fill="white"/>
<path d="M243.432 271.93C246.014 269.315 250.8 266.433 254.793 267.604C251.021 263.163 252.318 255.358 260.206 260.218C261.452 253.475 263.224 246.225 269.741 252.402C276.258 258.579 269.359 270.981 258.027 276.23C246.694 281.478 243.432 271.93 243.432 271.93Z" fill="white"/>
<path opacity="0.5" d="M269.654 252.996C269.343 252.039 268.389 251.074 266.485 250.235C265.959 250.069 265.48 250.031 265.042 250.1C265.838 252.192 268.537 260.51 262.091 262.818C262.091 262.818 261.224 272.322 251.001 274.856C249.608 275.201 248.037 275.577 246.345 275.936C248.563 277.731 252.242 278.908 258.027 276.23C260.139 275.252 262.096 274.025 263.843 272.635C273.528 263.878 269.654 252.994 269.654 252.994V252.996Z" fill="#47B4EA"/>
<path d="M237.716 282.456C260.736 279.464 268.723 270.836 270.852 263.283C272.473 257.531 270.465 252.086 270.465 252.086" stroke="#031A3E" stroke-width="3.547" stroke-miterlimit="10"/>
<path d="M270.859 252.272C265.88 244.536 259.963 249.96 259.494 257.892C253.325 253.797 248.756 260.856 252.113 266.291C248.45 266.104 244.353 268.186 243.431 271.93C243.342 272.218 243.73 272.449 243.938 272.214C246.706 269.058 250.932 268.178 254.802 269.596C256.128 270.122 257.339 268.32 256.309 267.292C250.415 260.843 255.945 255.952 261.198 263.273C263.514 266.154 263.065 270.41 260.899 273.265C259.666 274.675 261.96 276.546 263.085 275.041C266.617 270.617 266.349 263.846 262.093 259.998C262.238 256.161 264.193 247.118 268.444 253.719C269.357 255.299 271.819 253.825 270.859 252.272Z" fill="#031A3E"/>
<path d="M121.141 212.201C121.141 226.908 128.546 245.16 138 251.271C146.583 244.686 154.779 230.536 154.779 212.221L121.141 212.201Z" fill="white"/>
<path d="M146.696 225.926L138 217.555L129.304 225.926L134.149 231.494L127.895 243.583L138 254.937L148.105 243.583L141.85 231.494L146.696 225.926Z" fill="#40AFEC"/>
<path d="M146.696 225.926L138 217.555L129.304 225.926L134.149 231.494L127.895 243.583L138 254.937L148.105 243.583L141.85 231.494L146.696 225.926Z" stroke="#031A3E" stroke-width="3.547" stroke-miterlimit="10" stroke-linecap="round"/>
<path d="M138 251.272V263.45C125.46 254.59 115.68 245.256 114.608 244.222C115.059 243.099 115.762 241.686 116.646 240.124L118.427 236.976L114.294 237.025L113.59 237.029C109.688 237.029 105.963 236.653 105.059 236.554C104.321 231.208 106.139 216.183 121.139 212.2L121.219 212.22C121.273 234.846 132.251 246.466 136.978 250.417L137.998 251.271L138 251.272Z" fill="#003872"/>
<path d="M138 251.272V263.45C125.46 254.59 115.68 245.256 114.608 244.222C115.059 243.099 115.762 241.686 116.646 240.124L118.427 236.976L114.294 237.025L113.59 237.029C109.688 237.029 105.963 236.653 105.059 236.554C104.321 231.208 106.139 216.183 121.139 212.2L121.219 212.22C121.273 234.846 132.251 246.466 136.978 250.417L137.998 251.271L138 251.272Z" stroke="#031A3E" stroke-width="3.547" stroke-miterlimit="10" stroke-linecap="round"/>
<path d="M138 251.272V263.45C150.539 254.59 160.319 245.256 161.392 244.222C160.941 243.099 160.238 241.686 159.354 240.124L157.572 236.976L161.706 237.025L162.41 237.029C166.312 237.029 170.037 236.653 170.941 236.554C171.679 231.208 169.861 216.183 154.861 212.2L154.78 212.22C154.727 234.846 143.749 246.466 139.022 250.417L138.001 251.271L138 251.272Z" fill="#003872"/>
<path d="M138 251.272V263.45C150.539 254.59 160.319 245.256 161.392 244.222C160.941 243.099 160.238 241.686 159.354 240.124L157.572 236.976L161.706 237.025L162.41 237.029C166.312 237.029 170.037 236.653 170.941 236.554C171.679 231.208 169.861 216.183 154.861 212.2L154.78 212.22C154.727 234.846 143.749 246.466 139.022 250.417L138.001 251.271L138 251.272Z" stroke="#031A3E" stroke-width="3.547" stroke-miterlimit="10" stroke-linecap="round"/>
<path d="M134.149 231.494C135.146 232.639 140.854 232.639 141.85 231.494" stroke="#031A3E" stroke-width="3.547" stroke-miterlimit="10" stroke-linecap="round"/>
<path d="M123.952 229.305C129.915 226.628 142.61 212.215 142.61 212.215" stroke="#031A3E" stroke-width="3.547" stroke-miterlimit="10" stroke-linecap="round"/>
<path d="M151.939 229.305C145.976 226.628 133.281 212.215 133.281 212.215" stroke="#031A3E" stroke-width="3.547" stroke-miterlimit="10" stroke-linecap="round"/>
<path d="M203.458 163.529C203.458 175.026 206.344 184.346 215.53 184.346C224.715 184.346 227.787 175.025 227.787 163.529C227.787 152.031 224.715 142.711 215.53 142.711C206.344 142.711 203.458 152.032 203.458 163.529Z" fill="#003872"/>
<path d="M215.529 142.71C213.524 142.71 211.835 143.177 210.394 143.992C210.484 143.991 210.565 143.975 210.657 143.975C220.631 143.975 223.968 154.098 223.968 166.583C223.968 173.056 223.058 178.879 220.805 183.001C225.922 180.037 227.787 172.449 227.787 163.53C227.787 152.032 224.716 142.71 215.529 142.71Z" fill="#47B4EA"/>
<path d="M203.458 163.529C203.458 175.026 206.344 184.346 215.53 184.346C224.715 184.346 227.787 175.025 227.787 163.529C227.787 152.031 224.715 142.711 215.53 142.711C206.344 142.711 203.458 152.032 203.458 163.529Z" stroke="#031A3E" stroke-width="3.404" stroke-miterlimit="10"/>
<path d="M72.5323 163.529C72.5323 175.026 69.6458 184.346 60.4607 184.346C51.2756 184.346 48.2031 175.025 48.2031 163.529C48.2031 152.031 51.2756 142.711 60.4607 142.711C69.6458 142.711 72.5323 152.032 72.5323 163.529Z" fill="#003872"/>
<path d="M60.4627 142.71C62.4683 142.71 64.1568 143.177 65.5986 143.992C65.5084 143.991 65.4266 143.975 65.335 143.975C55.3606 143.975 52.0246 154.098 52.0246 166.583C52.0246 173.056 52.9336 178.879 55.1873 183.001C50.0697 180.037 48.2051 172.449 48.2051 163.53C48.2051 152.032 51.2762 142.71 60.4627 142.71Z" fill="#47B4EA"/>
<path d="M72.5323 163.529C72.5323 175.026 69.6458 184.346 60.4607 184.346C51.2756 184.346 48.2031 175.025 48.2031 163.529C48.2031 152.031 51.2756 142.711 60.4607 142.711C69.6458 142.711 72.5323 152.032 72.5323 163.529Z" stroke="#031A3E" stroke-width="3.404" stroke-miterlimit="10"/>
<path d="M92.6157 106.634C77.8296 108.576 65.9736 121.784 64.4275 138.619C63.8285 145.143 63.5156 151.831 63.5156 158.645C63.5156 165.46 63.8285 172.148 64.4275 178.672C65.975 195.507 77.8296 208.713 92.6157 210.657C106.861 212.529 122.119 213.546 137.996 213.546C153.873 213.546 169.131 212.529 183.376 210.657C198.162 208.714 210.018 195.507 211.564 178.672C212.163 172.148 212.476 165.46 212.476 158.645C212.476 151.831 212.163 145.143 211.564 138.619C210.016 121.784 198.162 108.578 183.376 106.634C169.131 104.762 153.873 103.745 137.996 103.745C122.119 103.745 106.859 104.762 92.6157 106.634Z" fill="white"/>
<path d="M183.376 106.634C169.133 104.762 153.873 103.745 137.996 103.745C122.119 103.745 106.861 104.762 92.6161 106.634C81.0603 108.152 71.3171 116.562 66.8662 128.196C79.9258 137.431 106.858 143.778 138 143.778C169.143 143.778 196.065 137.434 209.129 128.202C204.678 116.564 194.933 108.153 183.376 106.634Z" fill="#47B4EA"/>
<path d="M113.849 141.855C113.849 143.573 115.106 145.047 116.808 145.274C123.506 146.166 130.621 146.648 138 146.648C145.38 146.648 152.49 146.166 159.185 145.276C160.886 145.05 162.145 143.574 162.145 141.856L113.849 141.855Z" fill="#47B4EA"/>
<path opacity="0.5" d="M211.56 180.58C212.163 174.302 212.477 167.861 212.477 161.299C212.477 152.114 212.177 145.631 211.016 137.032C210.061 129.972 202.042 121.119 193.91 120.349C199.807 126.078 201.58 135.485 202.482 150.635C203.027 159.796 201.907 168.742 200.823 177.324C199.426 188.395 191.96 196.899 182.689 198.403C168.315 200.736 152.643 202.021 136.23 202.021C122.035 202.021 89.674 201.059 71.8887 199.29C75.57 204.945 81.2598 208.884 87.8502 209.867C103.744 212.238 121.071 213.546 139.217 213.546C154.908 213.546 169.986 212.568 184.055 210.771C198.48 208.927 210.032 196.47 211.56 180.58Z" fill="#47B4EA"/>
<path d="M183.378 106.634C198.164 108.576 210.02 121.784 211.566 138.619C212.165 145.143 212.478 151.831 212.478 158.645C212.478 165.46 212.165 172.148 211.566 178.672C210.018 195.507 198.164 208.713 183.378 210.657C169.133 212.529 153.875 213.546 137.998 213.546C122.121 213.546 106.862 212.529 92.6176 210.657C77.8315 208.714 65.9756 195.507 64.4295 178.672C63.8305 172.148 63.5176 165.46 63.5176 158.645C63.5176 151.831 63.8305 145.143 64.4295 138.619C65.977 121.784 77.8315 108.578 92.6176 106.634C106.862 104.762 122.121 103.745 137.998 103.745C153.875 103.745 169.134 104.762 183.378 106.634Z" stroke="#031A3E" stroke-width="4.043" stroke-miterlimit="10"/>
<path d="M168.929 181.682C177.211 181.682 183.924 174.921 183.924 166.581C183.924 158.242 177.211 151.481 168.929 151.481C160.648 151.481 153.935 158.242 153.935 166.581C153.935 174.921 160.648 181.682 168.929 181.682Z" fill="#031A3E"/>
<path d="M107.063 181.682C115.344 181.682 122.058 174.921 122.058 166.581C122.058 158.242 115.344 151.481 107.063 151.481C98.7817 151.481 92.0684 158.242 92.0684 166.581C92.0684 174.921 98.7817 181.682 107.063 181.682Z" fill="#031A3E"/>
<path d="M148.663 181.735C145.935 184.452 142.176 186.132 138.022 186.132C133.842 186.132 130.061 184.43 127.329 181.682" stroke="#031A3E" stroke-width="3.717" stroke-miterlimit="10"/>
<path d="M215.16 98.0208H60.8246L46.4825 83.5735C42.522 79.5843 42.8842 73.0406 47.259 69.5127C60.943 58.4804 73.5262 46.1462 84.8324 32.6835L95.5312 19.943C119.022 -3.42777 156.962 -3.42777 180.452 19.943L190.682 32.1644C201.936 45.6101 214.464 57.9359 228.089 68.9696L228.755 69.5098C233.118 73.042 233.471 79.5744 229.517 83.5594L215.159 98.0236L215.16 98.0208Z" fill="#1A79B4"/>
<path d="M97.9315 25.8773C118.099 2.90723 160.546 0.929576 184.812 25.749L185.47 25.9352L180.452 19.9402C156.962 -3.43057 119.022 -3.43057 95.5313 19.9402L88.232 28.6322C76.6241 42.4547 63.8943 55.2868 50.1738 66.9962C47.8581 68.9724 44.3769 72.4933 44.2754 73.7275C56.5105 68.7735 75.2654 51.6926 97.9329 25.8759L97.9315 25.8773Z" fill="white"/>
<path d="M228.093 68.9711C214.466 57.9374 201.937 45.6102 190.68 32.1616L180.452 19.9416C178.137 17.6367 175.676 15.5688 173.106 13.7195C187.738 28.3417 196.79 48.5541 196.79 70.8838C196.79 80.4067 195.131 89.5375 192.108 98.0208H215.159L228.916 84.1632C233.192 79.8552 232.81 72.7909 228.093 68.9711Z" fill="#031A3E"/>
<path d="M215.16 98.0208H60.8246L46.4825 83.5735C42.522 79.5843 42.8842 73.0406 47.259 69.5127C60.943 58.4804 73.5262 46.1462 84.8324 32.6835L95.5312 19.943C119.022 -3.42777 156.962 -3.42777 180.452 19.943L190.682 32.1644C201.936 45.6101 214.464 57.9359 228.089 68.9696L228.755 69.5098C233.118 73.042 233.471 79.5744 229.517 83.5594L215.159 98.0236L215.16 98.0208Z" stroke="#031A3E" stroke-width="3.421" stroke-miterlimit="10"/>
<path d="M115.844 135C115.844 136.575 116.998 137.928 118.558 138.135C124.702 138.952 131.229 139.395 138 139.395C144.77 139.395 151.292 138.952 157.434 138.135C158.994 137.928 160.148 136.575 160.148 135H115.844Z" fill="#031A3E" stroke="#031A3E" stroke-width="2.716" stroke-linecap="round" stroke-linejoin="round"/>
<path d="M212.897 116.642C212.922 115.988 212.946 115.334 212.965 114.681C201.761 102.024 172.425 82.486 137.996 82.486C103.567 82.486 74.2312 102.024 63.0264 114.681C63.0447 115.332 63.0686 115.982 63.094 116.634C74.1029 127.522 103.478 135.314 138 135.314C172.522 135.314 201.881 127.526 212.897 116.642Z" fill="white"/>
<path d="M212.897 116.642C212.922 115.988 212.946 115.334 212.965 114.681C201.761 102.024 172.425 82.486 137.996 82.486C129.388 82.486 129.369 135.314 138 135.314C172.512 135.314 201.881 127.526 212.897 116.642Z" fill="#40AFEC"/>
<path d="M212.897 116.642C212.922 115.988 212.946 115.334 212.965 114.681C208.579 109.726 201.413 103.717 192.252 98.238C191.251 111.512 175.658 127.598 161.452 134.07C185.38 131.458 204.487 124.952 212.897 116.642Z" fill="#196DA7"/>
<path d="M212.897 116.642C212.922 115.988 212.946 115.334 212.965 114.681C201.761 102.024 172.425 82.486 137.996 82.486C103.567 82.486 74.2312 102.024 63.0264 114.681C63.0447 115.332 63.0686 115.982 63.094 116.634C74.1029 127.522 103.478 135.314 138 135.314C172.522 135.314 201.881 127.526 212.897 116.642Z" stroke="#031A3E" stroke-width="2.99" stroke-linecap="round" stroke-linejoin="round"/>
<path d="M137.995 70.9839C103.18 70.9839 73.5119 82.6777 62.1816 99.0674C62.2986 104.367 62.5664 109.645 62.9808 115.756C63.0653 116.996 64.6143 117.463 65.3951 116.495C78.4927 100.283 106.072 89.1072 137.994 89.1072C169.915 89.1072 197.496 100.283 210.594 116.495C211.374 117.462 212.923 116.996 213.008 115.756C213.424 109.645 213.692 104.367 213.807 99.0674C202.477 82.6791 172.81 70.9839 137.994 70.9839H137.995Z" fill="#F8B30D"/>
<path d="M155.822 72.039C155.447 74.272 155.454 78.4868 155.027 81.6593C154.467 85.8078 154.067 86.9814 153.413 90.0001C159.512 90.711 165.363 91.8367 170.888 93.3249C172.092 89.6587 173.066 88.1776 173.675 83.6553C174.052 80.8566 174.264 78.137 174.327 75.5556C168.528 74.0026 162.321 72.8162 155.822 72.039Z" fill="white"/>
<path d="M114.862 83.283C115.394 86.9336 116.073 87.6643 116.848 90.8028C120.779 90.161 124.826 89.6885 128.971 89.4106C128.009 84.1561 126.004 76.7392 126.024 71.4594C121.852 71.788 117.786 72.286 113.848 72.9405C114.001 76.1595 114.332 79.6479 114.862 83.283Z" fill="white"/>
<path d="M67.2062 101.377C78.5364 84.9883 108.203 73.2931 143.02 73.2931C162.045 73.2931 179.523 76.7914 193.321 82.6326C178.871 75.4118 159.411 70.9825 137.995 70.9825C103.18 70.9825 73.5119 82.6764 62.1816 99.0661C62.2986 104.366 62.5664 109.644 62.9808 115.755C63.0653 116.995 64.6143 117.462 65.3951 116.494C66.1336 115.58 66.9243 114.684 67.753 113.803C67.4796 108.561 67.2978 105.511 67.2062 101.377Z" fill="white"/>
<path d="M137.995 70.9839C103.18 70.9839 73.5119 82.6777 62.1816 99.0674C62.2986 104.367 62.5664 109.645 62.9808 115.756C63.0653 116.996 64.6143 117.463 65.3951 116.495C78.4927 100.283 106.072 89.1072 137.994 89.1072C169.915 89.1072 197.496 100.283 210.594 116.495C211.374 117.462 212.923 116.996 213.008 115.756C213.424 109.645 213.692 104.367 213.807 99.0674C202.477 82.6791 172.81 70.9839 137.994 70.9839H137.995Z" stroke="#031A3E" stroke-width="3.421" stroke-linecap="round" stroke-linejoin="round"/>
<path d="M118.406 54.4419C118.406 65.0933 127.177 73.7275 137.997 73.7275C142.245 73.7275 146.176 72.3945 149.389 70.1362C150.587 69.2912 151.681 68.3151 152.655 67.236C153.142 66.6986 153.596 66.1315 154.012 65.5447C156.252 62.4343 157.568 58.6384 157.588 54.5463V54.4419C157.588 43.7905 148.817 35.1562 137.997 35.1562C134.54 35.1562 131.287 36.0393 128.462 37.5881C124.978 39.5009 122.154 42.4321 120.396 45.9685C120.074 46.6103 119.79 47.2775 119.546 47.956C119.053 49.3017 118.716 50.7151 118.546 52.1779C118.454 52.9185 118.408 53.6774 118.408 54.4433L118.406 54.4419Z" fill="#F8B30D"/>
<g opacity="0.6">
<path d="M120.364 45.9684L153.981 65.5447C156.221 62.4343 157.537 58.6384 157.557 54.5462L128.432 37.5867C124.948 39.4994 122.123 42.4307 120.366 45.967L120.364 45.9684Z" fill="white"/>
</g>
<g opacity="0.6">
<path d="M118.514 52.1764L149.359 70.1361C150.557 69.2912 151.65 68.315 152.624 67.2359L119.514 47.9559C119.021 49.3016 118.684 50.7151 118.514 52.1778V52.1764Z" fill="white"/>
</g>
<path d="M128.01 55.9922C128.01 61.7389 132.48 66.3981 137.997 66.3981C143.513 66.3981 147.984 61.7389 147.984 55.9922" stroke="#031A3E" stroke-width="1.414" stroke-miterlimit="10"/>
<path d="M137.997 51.0791C140.368 51.0791 142.29 49.1554 142.29 46.7824C142.29 44.4094 140.368 42.4857 137.997 42.4857C135.626 42.4857 133.704 44.4094 133.704 46.7824C133.704 49.1554 135.626 51.0791 137.997 51.0791Z" stroke="#031A3E" stroke-width="1.414" stroke-miterlimit="10"/>
<path d="M137.995 66.3996L137.997 51.0791" stroke="#031A3E" stroke-width="1.414" stroke-miterlimit="10"/>
<path d="M142.067 54.4419H133.925" stroke="#031A3E" stroke-width="1.414" stroke-miterlimit="10"/>
<path d="M130.017 55.9922H126.003" stroke="#031A3E" stroke-width="1.414" stroke-miterlimit="10"/>
<path d="M149.99 55.9922H145.976" stroke="#031A3E" stroke-width="1.414" stroke-miterlimit="10"/>
<path d="M137.996 74.0576C148.82 74.0576 157.595 65.2754 157.595 54.4419C157.595 43.6084 148.82 34.8262 137.996 34.8262C127.171 34.8262 118.396 43.6084 118.396 54.4419C118.396 65.2754 127.171 74.0576 137.996 74.0576Z" stroke="#031A3E" stroke-width="3.536" stroke-miterlimit="10"/>
</g>
<defs>
<clipPath id="clip0_133_3277">
<rect width="276" height="392" fill="white"/>
</clipPath>
</defs>
</svg>
