<svg width="384" height="771" viewBox="0 0 384 771" fill="none" xmlns="http://www.w3.org/2000/svg">
<path d="M376.062 123.284H375.34V47.4981C375.34 22.37 354.975 2 329.854 2H54.1461C29.025 2 8.66036 22.37 8.66036 47.4981V123.284H7.93821C4.65857 123.284 2 125.943 2 129.224V181.648C2 184.928 4.65857 187.588 7.93821 187.588H8.66036V200.091H7.93821C4.65857 200.091 2 202.751 2 206.031V258.455C2 261.735 4.65857 264.395 7.93821 264.395H8.66036V723.502C8.66036 748.63 29.025 769 54.1461 769H329.854C354.975 769 375.339 748.63 375.339 723.502V219.739H376.061C379.341 219.739 382 217.08 382 213.799V129.223C382 125.943 379.341 123.284 376.062 123.284Z" stroke="#031A3E" stroke-width="3.666" stroke-miterlimit="10"/>
<path d="M375.339 47.4981C375.339 22.37 354.975 2 329.854 2H54.1459C29.0248 2 8.66016 22.37 8.66016 47.4981C8.66016 272.218 8.66016 497.858 8.66016 723.502C8.66016 748.63 29.0248 769 54.1459 769H329.853C354.974 769 375.339 748.63 375.339 723.502C375.339 498.031 375.339 272.561 375.339 47.4981Z" stroke="#031A3E" stroke-width="3.666" stroke-miterlimit="10"/>
<path d="M325.159 13.2532H58.8408C38.437 13.2532 21.8965 29.7983 21.8965 50.2078V720.792C21.8965 741.202 38.437 757.747 58.8408 757.747H325.159C345.563 757.747 362.104 741.202 362.104 720.792V50.2078C362.104 29.7983 345.563 13.2532 325.159 13.2532Z" fill="#019BD8"/>
<path d="M325.159 13.2532H58.8408C38.437 13.2532 21.8965 29.7983 21.8965 50.2078V720.792C21.8965 741.202 38.437 757.747 58.8408 757.747H325.159C345.563 757.747 362.104 741.202 362.104 720.792V50.2078C362.104 29.7983 345.563 13.2532 325.159 13.2532Z" stroke="#031A3E" stroke-width="3.666" stroke-miterlimit="10"/>
<mask id="mask0_131_2030" style="mask-type:alpha" maskUnits="userSpaceOnUse" x="24" y="13" width="336" height="745">
<path d="M323.513 13H60.4874C40.336 13 24 29.5564 24 49.9797V721.02C24 741.444 40.336 758 60.4874 758H323.513C343.664 758 360 741.444 360 721.02V49.9797C360 29.5564 343.664 13 323.513 13Z" fill="#D9D9D9"/>
</mask>
<g mask="url(#mask0_131_2030)">
<path d="M159.204 373H266.204C281.668 373 294.204 385.536 294.204 401V512C294.204 527.464 281.668 540 266.204 540H159.204C143.74 540 131.204 527.464 131.204 512V401L131.213 400.277C131.59 385.387 143.592 373.386 158.481 373.009L159.204 373Z" fill="#003872" fill-opacity="0.28" stroke="#F8B30D" stroke-width="4"/>
<path d="M328.101 491.082C309.371 470.801 310.614 439.163 330.879 420.424C351.139 401.684 382.753 402.932 401.48 423.215C420.212 443.491 418.967 475.127 398.706 493.864C378.439 512.609 346.83 511.363 328.101 491.082Z" fill="#9DCCED"/>
<path d="M331.826 422.147C336.039 418.324 340.722 415.334 345.654 413.144C343.527 414.563 341.478 416.152 339.528 417.92C319.131 436.426 317.361 467.097 335.568 486.425C350.013 501.758 372.691 505.331 391.635 496.919C371.5 510.344 344.333 508.132 327.866 490.651C309.659 471.323 311.429 440.65 331.826 422.147Z" fill="#72AACC"/>
<path d="M341.462 480.222C327.789 464.974 328.052 441.782 342.058 428.425C356.057 415.069 378.497 416.601 392.167 431.849C405.842 447.092 405.574 470.284 391.575 483.637C377.572 496.997 355.134 495.469 341.462 480.222Z" stroke="#72AACC" stroke-width="4.64294" stroke-miterlimit="10"/>
<path d="M328.101 491.082C309.371 470.801 310.614 439.163 330.879 420.424C351.139 401.684 382.753 402.932 401.48 423.215C420.212 443.491 418.967 475.127 398.706 493.864C378.439 512.609 346.83 511.363 328.101 491.082Z" stroke="#031A3E" stroke-width="6.78982" stroke-miterlimit="10"/>
<path d="M389.087 450.531L385.064 469.943C384.807 471.182 383.909 472.191 382.709 472.587L363.903 478.81C363.302 479.011 362.669 479.04 362.073 478.916C361.472 478.792 360.909 478.51 360.436 478.091L352.182 470.724L348.306 467.266L345.653 464.898C344.71 464.056 344.287 462.774 344.544 461.535L348.567 442.123C348.823 440.884 349.722 439.875 350.922 439.479L369.725 433.26C370.326 433.06 370.959 433.031 371.556 433.155C372.152 433.278 372.72 433.558 373.192 433.979L387.979 447.17C388.925 448.013 389.346 449.295 389.089 450.534L389.087 450.531ZM386.248 449.939C386.293 449.718 386.217 449.481 386.046 449.328L371.263 436.135C371.177 436.063 371.074 436.009 370.966 435.987C370.858 435.964 370.743 435.971 370.633 436.007L351.824 442.229C351.606 442.301 351.444 442.484 351.397 442.709L347.371 462.125C347.326 462.346 347.403 462.582 347.574 462.735L349.848 464.765L362.62 444.113C362.791 443.836 363.117 443.696 363.437 443.761L367.695 444.644C367.96 444.701 368.091 445 367.944 445.23L353.725 468.224L355.265 469.598L370.07 445.658C370.241 445.381 370.567 445.242 370.887 445.307L375.144 446.19C375.408 446.244 375.536 446.546 375.394 446.776L359.141 473.056L362.354 475.922C362.44 475.994 362.543 476.048 362.651 476.07C362.759 476.093 362.879 476.091 362.985 476.052L367.107 474.689L365.891 466.354C365.866 466.171 365.905 465.989 365.999 465.831L369.473 460.214C369.662 459.906 370.135 460.003 370.187 460.363L372.04 473.058L374.001 472.409L371.736 456.909C371.711 456.727 371.749 456.544 371.844 456.387L375.318 450.77C375.507 450.462 375.98 450.558 376.031 450.919L378.933 470.778L381.795 469.832C382.013 469.76 382.175 469.578 382.223 469.352L386.246 449.941L386.248 449.939Z" fill="white"/>
<path d="M16.4954 469.242C9.82177 442.455 26.1109 415.321 52.8799 408.643C79.6421 401.965 106.753 418.267 113.425 445.057C120.1 471.842 103.811 498.971 77.0514 505.649C50.2802 512.33 23.1691 496.027 16.4954 469.242Z" fill="#3C6EF2"/>
<path d="M52.8799 410.609C58.4101 409.284 63.9494 408.915 69.3266 409.37C66.7809 409.59 64.2195 409.998 61.6625 410.609C34.8936 417.016 18.6045 443.049 25.2781 468.751C30.5721 489.139 48.7339 503.185 69.3806 504.923C45.2834 507.005 22.5299 491.995 16.4954 468.751C9.82177 443.049 26.1109 417.016 52.8799 410.609Z" fill="#1D54CE"/>
<path d="M33.4258 466.15C28.7666 446.208 40.14 426.006 58.833 421.033C77.5215 416.062 96.4531 428.198 101.112 448.142C105.774 468.082 94.3982 488.282 75.7119 493.255C57.0166 498.228 38.085 486.092 33.4258 466.15Z" stroke="#1D54CE" stroke-width="4.64177" stroke-miterlimit="10"/>
<path d="M16.4954 469.242C9.82177 442.455 26.1109 415.321 52.8799 408.643C79.6421 401.965 106.753 418.267 113.425 445.057C120.1 471.842 103.811 498.971 77.0514 505.649C50.2802 512.33 23.1691 496.027 16.4954 469.242Z" stroke="#031A3E" stroke-width="6.7881" stroke-miterlimit="10"/>
<path d="M73.0918 435.894C62.6143 433 51.6595 439.205 47.8106 449.886L77.4359 458.071L76.4703 461.573L46.845 453.388C44.673 464.53 50.8943 475.481 61.3718 478.378C72.4053 481.425 83.9723 474.387 87.209 462.657C90.4456 450.926 84.1253 438.942 73.0918 435.894Z" fill="white"/>
<path d="M161.645 470.306C154.304 440.838 172.223 410.989 201.671 403.642C231.111 396.296 260.936 414.23 268.275 443.7C275.619 473.166 257.699 503.01 228.261 510.357C198.811 517.706 168.987 499.772 161.645 470.306Z" fill="#C464EE"/>
<path d="M201.671 405.805C207.755 404.348 213.848 403.942 219.764 404.443C216.963 404.685 214.145 405.134 211.332 405.805C181.885 412.855 163.965 441.493 171.307 469.766C177.131 492.195 197.11 507.646 219.823 509.559C193.314 511.849 168.283 495.337 161.645 469.766C154.304 441.493 172.223 412.855 201.671 405.805Z" fill="#963FDD"/>
<path d="M180.269 466.907C175.143 444.969 187.655 422.746 208.218 417.275C228.777 411.806 249.604 425.156 254.729 447.097C259.857 469.033 247.343 491.253 226.787 496.724C206.22 502.195 185.394 488.845 180.269 466.907Z" stroke="#963FDD" stroke-width="4.64177" stroke-miterlimit="10"/>
<path d="M161.645 470.306C154.304 440.838 172.223 410.989 201.671 403.642C231.111 396.296 260.936 414.23 268.275 443.7C275.619 473.166 257.699 503.01 228.261 510.357C198.811 517.706 168.987 499.772 161.645 470.306Z" stroke="#031A3E" stroke-width="6.78811" stroke-miterlimit="10"/>
<path d="M238.409 469.236L230.77 476.33C230.604 476.483 230.406 476.602 230.19 476.679C229.975 476.756 229.745 476.788 229.517 476.773L195.421 474.751C195.258 474.741 195.102 474.687 194.971 474.59C194.84 474.496 194.74 474.365 194.684 474.216C194.627 474.067 194.617 473.904 194.654 473.75C194.691 473.597 194.773 473.455 194.892 473.346L202.535 466.252C202.701 466.099 202.897 465.98 203.112 465.903C203.327 465.826 203.555 465.794 203.783 465.806L237.876 467.828C238.04 467.838 238.196 467.893 238.327 467.989C238.458 468.084 238.557 468.215 238.614 468.364C238.671 468.512 238.681 468.676 238.644 468.829C238.607 468.983 238.525 469.124 238.406 469.233L238.409 469.236ZM232.114 453.665C231.968 453.492 231.785 453.351 231.582 453.249C231.377 453.148 231.154 453.088 230.923 453.076L196.828 451.054C196.664 451.044 196.503 451.081 196.362 451.16C196.221 451.24 196.107 451.356 196.033 451.497C195.959 451.639 195.929 451.8 195.949 451.956C195.966 452.114 196.033 452.263 196.137 452.387L202.889 460.333C203.035 460.504 203.216 460.645 203.422 460.747C203.627 460.848 203.85 460.908 204.078 460.923L238.171 462.945C238.334 462.955 238.495 462.917 238.636 462.838C238.778 462.759 238.891 462.642 238.966 462.501C239.04 462.36 239.067 462.199 239.05 462.043C239.033 461.884 238.966 461.736 238.862 461.614L232.114 453.668V453.665ZM197.118 446.17L231.213 448.192C231.443 448.207 231.671 448.172 231.887 448.098C232.102 448.021 232.3 447.902 232.466 447.749L240.105 440.655C240.224 440.546 240.305 440.404 240.342 440.251C240.38 440.097 240.37 439.934 240.313 439.785C240.256 439.636 240.157 439.505 240.025 439.411C239.894 439.317 239.738 439.26 239.575 439.25L205.482 437.228C205.254 437.216 205.024 437.248 204.811 437.325C204.595 437.401 204.4 437.52 204.234 437.674L196.593 444.768C196.474 444.877 196.392 445.018 196.355 445.172C196.318 445.325 196.328 445.489 196.385 445.637C196.442 445.786 196.541 445.917 196.672 446.012C196.803 446.106 196.959 446.163 197.12 446.173L197.118 446.17Z" fill="white"/>
<path d="M121.593 659.154C104.173 638.175 107.042 607.029 128.007 589.597C148.968 572.167 180.088 575.042 197.506 596.026C214.929 617.001 212.058 648.145 191.099 665.573C170.131 683.007 139.013 680.134 121.593 659.154Z" fill="#01A5DE"/>
<path d="M128.853 591.348C133.207 587.796 137.982 585.09 142.962 583.187C140.789 584.476 138.685 585.938 136.672 587.58C115.589 604.772 112.249 634.936 129.204 654.95C142.655 670.827 164.841 675.534 183.965 668.221C163.407 680.416 136.721 676.818 121.387 658.72C104.431 638.706 107.772 608.542 128.855 591.35L128.853 591.348Z" fill="#018AC2"/>
<path d="M135.336 649.138C122.639 633.386 124.107 610.521 138.616 598.074C153.121 585.626 175.176 588.306 187.868 604.06C200.565 619.81 199.097 642.67 184.592 655.117C170.083 667.567 148.033 664.89 135.336 649.138Z" stroke="#018AC2" stroke-width="4.58641" stroke-miterlimit="10"/>
<path d="M121.593 659.154C104.173 638.175 107.042 607.029 128.007 589.597C148.968 572.167 180.088 575.042 197.506 596.026C214.929 617.001 212.058 648.145 191.099 665.573C170.131 683.007 139.013 680.134 121.593 659.154Z" stroke="#031A3E" stroke-width="6.70715" stroke-miterlimit="10"/>
<path d="M180.23 613.89C177.027 612.715 173.513 613.354 170.971 615.445C169.637 616.545 168.734 618.187 168.087 619.845C167.455 621.263 165.803 623.066 163.328 621.966C161.431 621.287 160.528 619.104 161.208 617.204C161.622 615.523 161.924 613.703 161.729 611.838C161.195 608.466 158.991 605.787 155.788 604.612C152.586 603.437 149.067 604.084 146.525 606.176C143.983 608.268 142.674 611.586 143.209 614.967C143.743 618.339 145.947 621.018 149.15 622.193C150.813 622.847 152.648 622.91 154.401 622.58C155.777 622.344 158.195 622.825 158.662 625.578C158.962 627.57 157.545 629.408 155.666 629.842C153.909 630.165 152.241 630.864 150.907 631.963C148.362 634.057 147.055 637.373 147.597 640.754C148.131 644.125 150.335 646.805 153.538 647.98C156.74 649.155 160.256 648.516 162.796 646.424C165.336 644.332 166.644 641.012 166.108 637.631C165.785 635.873 164.951 634.315 163.743 632.844C162.752 631.638 162.233 629.379 164.242 627.726C165.85 626.402 168.04 626.622 169.357 628.224C170.455 629.56 171.932 630.815 173.596 631.469C176.798 632.644 180.312 632.005 182.854 629.913C185.396 627.821 186.702 624.501 186.163 621.123C185.952 619.498 185.12 617.945 184.128 616.738C183.148 615.532 181.769 614.413 180.23 613.892" fill="white"/>
<path d="M-18.9147 639.684C-25.5884 612.896 -9.29921 585.762 17.4697 579.084C44.2319 572.406 71.343 588.708 78.0144 615.498C84.6903 642.283 68.4012 669.412 41.6412 676.091C14.87 682.771 -12.241 666.469 -18.9147 639.684Z" fill="#3C6EF2"/>
<path d="M17.4697 581.05C23 579.726 28.5393 579.356 33.9165 579.811C31.3708 580.032 28.8093 580.44 26.2524 581.05C-0.516577 587.458 -16.8057 613.491 -10.132 639.192C-4.83809 659.58 13.3237 673.626 33.9705 675.365C9.87322 677.446 -12.8803 662.436 -18.9147 639.192C-25.5884 613.491 -9.29921 587.458 17.4697 581.05Z" fill="#1D54CE"/>
<path d="M-1.98437 636.591C-6.64356 616.649 4.7298 596.448 23.4228 591.475C42.1113 586.504 61.0429 598.639 65.7021 618.584C70.3636 638.524 58.988 658.723 40.3017 663.696C21.6065 668.669 2.67482 656.534 -1.98437 636.591Z" stroke="#1D54CE" stroke-width="4.64177" stroke-miterlimit="10"/>
<path d="M-18.9147 639.684C-25.5884 612.896 -9.29921 585.762 17.4697 579.084C44.2319 572.406 71.343 588.708 78.0144 615.498C84.6903 642.283 68.4012 669.412 41.6412 676.091C14.87 682.771 -12.241 666.469 -18.9147 639.684Z" stroke="#031A3E" stroke-width="6.7881" stroke-miterlimit="10"/>
<path d="M37.6817 606.335C27.2041 603.441 16.2494 609.646 12.4005 620.327L42.0257 628.512L41.0601 632.014L11.4349 623.829C9.26285 634.972 15.4841 645.923 25.9617 648.819C36.9952 651.867 48.5621 644.828 51.7988 633.098C55.0355 621.367 48.7152 609.383 37.6817 606.335Z" fill="white"/>
<path d="M251.593 659.273C233.877 637.953 236.795 606.303 258.115 588.586C279.431 570.873 311.078 573.797 328.793 595.12C346.511 616.435 343.591 648.085 322.278 665.796C300.955 683.513 269.308 680.593 251.593 659.273Z" fill="#E82896"/>
<path d="M258.975 590.365C263.403 586.756 268.259 584.006 273.322 582.072C271.113 583.382 268.973 584.867 266.927 586.536C245.486 604.008 242.089 634.662 259.332 655C273.01 671.135 295.572 675.918 315.02 668.487C294.114 680.88 266.976 677.223 251.382 658.832C234.137 638.491 237.534 607.836 258.975 590.365Z" fill="#BA2A8A"/>
<path d="M265.571 649.095C252.659 633.088 254.152 609.852 268.907 597.202C283.657 584.553 306.086 587.276 318.993 603.286C331.905 619.292 330.412 642.523 315.662 655.172C300.907 667.824 278.48 665.103 265.569 649.095H265.571Z" stroke="#BA2A8A" stroke-width="4.59" stroke-miterlimit="10"/>
<path d="M251.593 659.273C233.877 637.953 236.795 606.303 258.115 588.586C279.431 570.873 311.078 573.797 328.793 595.12C346.511 616.435 343.591 648.085 322.278 665.796C300.955 683.513 269.308 680.593 251.593 659.273Z" stroke="#031A3E" stroke-width="6.70715" stroke-miterlimit="10"/>
<path d="M306.398 613.161C310.647 622.121 306.83 632.83 297.869 637.082C297.869 637.082 295.775 638.016 295.293 638.276C292.952 639.563 291.659 642.173 292.054 644.814C292.054 644.814 292.581 648.32 292.615 648.643C292.622 648.684 292.627 648.722 292.631 648.763C292.785 650.079 291.84 651.271 290.523 651.425C290.478 651.432 290.435 651.439 290.39 651.443C289.078 651.588 287.898 650.64 287.753 649.329C287.671 649.107 283.971 622.587 283.971 622.587C283.781 621.241 284.718 619.995 286.063 619.805C287.409 619.615 288.655 620.552 288.845 621.897L290.306 632.778L290.668 634.915C290.645 634.988 290.675 635.064 290.738 635.105C290.817 635.157 290.921 635.135 290.971 635.055C291.358 634.791 291.758 634.549 292.17 634.329C293.301 633.748 295.608 632.735 295.608 632.735C301.757 630.055 304.844 623.125 302.727 616.761C300.468 609.967 293.129 606.292 286.335 608.551C279.541 610.811 275.866 618.15 278.125 624.944C278.591 626.43 279.349 627.809 280.353 629.001C281.176 630.075 281.02 631.606 279.998 632.493C278.908 633.309 277.37 633.135 276.492 632.095C275.255 630.541 274.278 628.8 273.597 626.936C270.228 617.618 275.006 607.328 284.299 603.888C292.952 600.891 302.474 604.885 306.398 613.161Z" fill="white"/>
<path d="M312.242 637.727C310.598 637.976 309.469 639.511 309.718 641.155C309.718 641.16 309.718 641.167 309.72 641.171C309.949 642.8 311.453 643.933 313.081 643.706C313.108 643.702 313.135 643.697 313.165 643.693C314.77 643.487 315.906 642.019 315.7 640.414C315.693 640.359 315.684 640.307 315.675 640.253C315.377 638.636 313.875 637.53 312.242 637.727Z" fill="white"/>
<path d="M-12.8891 321.522C-31.3903 301.488 -30.1627 270.236 -10.1447 251.724C9.86884 233.212 41.0979 234.445 59.5969 254.481C78.1004 274.511 76.8705 305.761 56.857 324.271C36.8367 342.787 5.61215 341.556 -12.8891 321.522Z" fill="#45DBB8"/>
<path d="M-9.2096 253.429C-5.04855 249.652 -0.422682 246.699 4.45005 244.536C2.34839 245.938 0.324572 247.507 -1.60139 249.254C-21.7506 267.534 -23.4986 297.832 -5.51336 316.924C8.75566 332.071 31.1578 335.601 49.8703 327.291C29.9813 340.552 3.14457 338.367 -13.1216 321.099C-31.1069 302.007 -29.3566 271.709 -9.2096 253.429Z" fill="#31AFA0"/>
<path d="M0.307558 310.798C-13.1986 295.736 -12.9384 272.827 0.89691 259.632C14.7256 246.439 36.8919 247.952 50.3959 263.015C63.9043 278.072 63.6397 300.981 49.811 314.172C35.9779 327.369 13.8138 325.858 0.307558 310.796V310.798Z" stroke="#31AFA0" stroke-width="4.58641" stroke-miterlimit="10"/>
<path d="M-12.8891 321.522C-31.3903 301.488 -30.1627 270.236 -10.1447 251.724C9.86884 233.212 41.0979 234.445 59.5969 254.481C78.1004 274.511 76.8705 305.761 56.857 324.271C36.8367 342.787 5.61215 341.556 -12.8891 321.522Z" stroke="#031A3E" stroke-width="6.70715" stroke-miterlimit="10"/>
<path d="M16.3495 275.263L38.0889 297.298L6.86426 308.474L27.2181 286.28L44.376 265.08L16.3495 275.263Z" fill="white"/>
<path d="M247.93 320.348C230.295 299.11 233.199 267.581 254.423 249.934C275.642 232.289 307.145 235.2 324.777 256.442C342.414 277.676 339.508 309.203 318.291 326.845C297.065 344.494 265.564 341.586 247.93 320.348Z" fill="#627EEB"/>
<path d="M255.275 251.706C259.683 248.111 264.517 245.371 269.558 243.445C267.358 244.749 265.228 246.23 263.191 247.892C241.848 265.296 238.466 295.831 255.631 316.092C269.247 332.164 291.707 336.929 311.066 329.526C290.254 341.872 263.24 338.229 247.717 319.908C230.553 299.648 233.935 269.112 255.277 251.709L255.275 251.706Z" fill="#4A5FC6"/>
<path d="M261.843 310.207C248.99 294.261 250.476 271.115 265.163 258.515C279.847 245.914 302.173 248.627 315.022 264.575C327.875 280.519 326.389 303.66 311.706 316.261C297.018 328.863 274.693 326.153 261.84 310.207H261.843Z" stroke="#4A5FC6" stroke-width="4.64288" stroke-miterlimit="10"/>
<path d="M247.93 320.348C230.295 299.11 233.199 267.581 254.423 249.934C275.642 232.289 307.145 235.2 324.777 256.442C342.414 277.676 339.508 309.203 318.291 326.845C297.065 344.494 265.564 341.586 247.93 320.348Z" stroke="#031A3E" stroke-width="6.78973" stroke-miterlimit="10"/>
<path d="M290.899 299.874V299.872L273.325 294.058L293.54 312.476L304.673 287.486L290.899 299.874Z" fill="white"/>
<path d="M283.034 262.299L272.193 288.656L289.77 294.473L303.532 282.086L283.034 262.299Z" fill="white"/>
<path d="M192.526 321.959C211.228 301.708 209.987 270.116 189.752 251.404C169.522 232.692 137.954 233.938 119.254 254.191C100.55 274.438 101.794 306.027 122.024 324.737C142.261 343.454 173.827 342.21 192.529 321.959H192.526Z" fill="#F1B90C"/>
<path d="M188.806 253.125C184.6 249.308 179.924 246.323 174.999 244.136C177.123 245.553 179.169 247.139 181.116 248.905C201.483 267.384 203.25 298.01 185.07 317.309C170.646 332.62 148.001 336.188 129.086 327.788C149.191 341.194 176.318 338.985 192.761 321.53C210.941 302.23 209.172 271.604 188.806 253.125Z" fill="#CC9212"/>
<path d="M179.185 311.117C192.838 295.891 192.575 272.734 178.59 259.396C164.611 246.06 142.204 247.589 128.554 262.815C114.899 278.036 115.166 301.193 129.145 314.527C143.128 327.867 165.533 326.34 179.185 311.114V311.117Z" stroke="#CC9212" stroke-width="5.10724" stroke-miterlimit="10"/>
<path d="M192.526 321.959C211.228 301.708 209.987 270.116 189.752 251.404C169.522 232.692 137.954 233.938 119.254 254.191C100.55 274.438 101.794 306.027 122.024 324.737C142.261 343.454 173.827 342.21 192.529 321.959H192.526Z" stroke="#031A3E" stroke-width="7.46881" stroke-miterlimit="10"/>
<path fill-rule="evenodd" clip-rule="evenodd" d="M161.863 292.24L165.739 298.748L148.024 309.265L137.509 291.554L144.024 287.693L150.667 298.883L161.863 292.24ZM155.209 281.032L159.136 287.648L152.524 291.578L148.608 284.98L148.613 284.964L155.209 281.03V281.032ZM137.426 276.58L141.297 283.102L134.782 286.962L130.911 280.44L137.426 276.58ZM172.955 285.635L176.826 292.156L170.311 296.017L166.44 289.495L172.955 285.635ZM159.716 263.332L170.23 281.043L163.713 284.917L157.074 273.714L145.892 280.362L142.017 273.853L159.716 263.332Z" fill="white"/>
<path d="M188.88 177.935C170.151 157.655 171.393 126.017 191.658 107.277C211.918 88.5373 243.532 89.7854 262.259 110.068C280.991 130.345 279.746 161.98 259.486 180.718C239.219 199.462 207.609 198.216 188.88 177.935Z" fill="#9DCCED"/>
<path d="M192.606 109C196.818 105.177 201.501 102.187 206.434 99.9976C204.306 101.417 202.257 103.005 200.308 104.774C179.91 123.279 178.141 153.951 196.348 173.278C210.792 188.612 233.471 192.185 252.414 183.772C232.28 197.198 205.112 194.985 188.646 177.505C170.439 158.177 172.208 127.503 192.606 109Z" fill="#72AACC"/>
<path d="M202.241 167.075C188.568 151.827 188.832 128.636 202.837 115.278C216.837 101.923 239.276 103.455 252.947 118.703C266.622 133.946 266.354 157.137 252.354 170.491C238.351 183.85 215.914 182.323 202.241 167.075Z" stroke="#72AACC" stroke-width="4.64294" stroke-miterlimit="10"/>
<path d="M188.88 177.935C170.151 157.655 171.393 126.017 191.658 107.277C211.918 88.5373 243.532 89.7854 262.259 110.068C280.991 130.345 279.746 161.98 259.486 180.718C239.219 199.462 207.609 198.216 188.88 177.935Z" stroke="#031A3E" stroke-width="6.78982" stroke-miterlimit="10"/>
<path d="M249.866 137.385L245.843 156.796C245.587 158.035 244.688 159.044 243.488 159.441L224.682 165.664C224.081 165.864 223.449 165.893 222.852 165.769C222.251 165.646 221.688 165.364 221.215 164.945L212.962 157.578L209.085 154.12L206.433 151.752C205.489 150.909 205.066 149.627 205.323 148.388L209.346 128.977C209.603 127.738 210.501 126.729 211.701 126.332L230.505 120.114C231.106 119.913 231.738 119.884 232.335 120.008C232.932 120.132 233.499 120.411 233.972 120.833L248.759 134.024C249.704 134.866 250.125 136.148 249.869 137.387L249.866 137.385ZM247.027 136.792C247.072 136.572 246.996 136.335 246.825 136.182L232.042 122.989C231.957 122.917 231.853 122.863 231.745 122.84C231.637 122.817 231.522 122.824 231.412 122.86L212.604 129.083C212.385 129.155 212.223 129.337 212.176 129.563L208.151 148.978C208.106 149.199 208.182 149.436 208.353 149.589L210.627 151.619L223.399 130.966C223.57 130.689 223.897 130.55 224.216 130.615L228.474 131.498C228.739 131.554 228.87 131.854 228.724 132.084L214.504 155.077L216.044 156.451L230.849 132.512C231.02 132.235 231.347 132.095 231.666 132.16L235.924 133.044C236.187 133.098 236.315 133.399 236.174 133.629L219.921 159.91L223.134 162.775C223.219 162.847 223.323 162.901 223.431 162.924C223.539 162.947 223.658 162.944 223.764 162.906L227.886 161.543L226.67 153.207C226.646 153.025 226.684 152.842 226.779 152.684L230.252 147.068C230.442 146.759 230.914 146.856 230.966 147.217L232.819 159.912L234.78 159.263L232.515 143.763C232.49 143.58 232.529 143.398 232.623 143.24L236.097 137.624C236.286 137.315 236.759 137.412 236.811 137.772L239.713 157.632L242.574 156.686C242.793 156.614 242.955 156.431 243.002 156.206L247.025 136.795L247.027 136.792Z" fill="white"/>
<path d="M56.2196 175.956C38.5848 154.718 41.489 123.189 62.7125 105.542C83.9316 87.8971 115.435 90.8079 133.067 112.05C150.704 133.284 147.798 164.811 126.581 182.453C105.355 200.102 73.8545 197.194 56.2196 175.956Z" fill="#F8B30D"/>
<path d="M63.5642 107.313C67.9723 103.717 72.806 100.978 77.8468 99.0515C75.6472 100.356 73.5174 101.836 71.4799 103.499C50.1371 120.902 46.7555 151.438 63.9199 171.698C77.5361 187.77 99.9956 192.535 119.355 185.132C98.5435 197.478 71.5295 193.835 56.0064 175.515C38.8421 155.254 42.2235 124.719 63.5664 107.315L63.5642 107.313Z" fill="#E28C0E"/>
<path d="M70.1307 165.816C57.2778 149.87 58.7637 126.723 73.4515 114.123C88.1348 101.523 110.462 104.235 123.31 120.183C136.163 136.127 134.677 159.269 119.994 171.869C105.306 184.472 82.9815 181.761 70.1285 165.816H70.1307Z" stroke="#E28C0E" stroke-width="4.64288" stroke-miterlimit="10"/>
<path d="M111.787 129.199C110.195 124.056 105.303 123.238 99.4855 123.923L97.9749 116.644L93.5487 117.563L95.0188 124.648C93.8548 124.889 92.6707 125.16 91.4932 125.43L90.0141 118.297L85.5902 119.217L87.0985 126.493C86.1439 126.712 85.2074 126.926 84.2889 127.117L84.2843 127.095L78.1787 128.361L79.1602 133.092C79.1602 133.092 82.4157 132.351 82.3752 132.423C84.1695 132.051 84.9688 132.973 85.3245 133.836L89.4602 153.774C89.4985 154.355 89.3544 155.324 88.1004 155.587C88.1679 155.626 84.881 156.254 84.881 156.254L85.0993 161.729L90.8606 160.532C91.9322 160.312 92.9926 160.111 94.0282 159.902L95.5569 167.262L99.9785 166.345L98.4679 159.061C99.6881 158.834 100.866 158.599 102.012 158.361L103.513 165.61L107.939 164.691L106.417 157.342C113.773 155.369 118.593 152.411 117.789 145.283C117.143 139.542 113.975 137.58 109.538 137.44C111.834 135.6 112.96 132.961 111.789 129.199H111.787ZM108.858 146.224C110.002 151.726 100.458 153.055 97.4593 153.679L95.4376 143.926C98.4386 143.304 107.669 140.486 108.858 146.224ZM103.945 132.892C104.981 137.898 97.0112 138.943 94.5122 139.463L92.6774 130.618C95.1764 130.1 102.863 127.672 103.945 132.892Z" fill="white"/>
<path d="M56.2196 175.956C38.5848 154.718 41.489 123.189 62.7125 105.542C83.9316 87.8971 115.435 90.8079 133.067 112.05C150.704 133.284 147.798 164.811 126.581 182.453C105.355 200.102 73.8545 197.194 56.2196 175.956Z" stroke="#031A3E" stroke-width="6.78973" stroke-miterlimit="10"/>
<path d="M317.931 175.959C300.51 154.979 303.379 123.834 324.345 106.401C345.306 88.9714 376.426 91.8467 393.844 112.831C411.267 133.806 408.395 164.95 387.437 182.377C366.469 199.812 335.351 196.939 317.931 175.959Z" fill="#01A5DE"/>
<path d="M325.191 108.153C329.545 104.601 334.32 101.894 339.3 99.9917C337.127 101.28 335.023 102.742 333.01 104.385C311.927 121.577 308.586 151.741 325.542 171.755C338.993 187.632 361.179 192.338 380.303 185.025C359.745 197.221 333.059 193.623 317.725 175.525C300.769 155.511 304.11 125.347 325.193 108.155L325.191 108.153Z" fill="#018AC2"/>
<path d="M331.674 165.942C318.977 150.19 320.445 127.326 334.954 114.878C349.459 102.431 371.514 105.111 384.206 120.865C396.903 136.615 395.435 159.475 380.93 171.922C366.421 184.372 344.37 181.694 331.674 165.942Z" stroke="#018AC2" stroke-width="4.58641" stroke-miterlimit="10"/>
<path d="M317.931 175.959C300.51 154.979 303.379 123.834 324.345 106.401C345.306 88.9714 376.426 91.8467 393.844 112.831C411.267 133.806 408.395 164.95 387.437 182.377C366.469 199.812 335.351 196.939 317.931 175.959Z" stroke="#031A3E" stroke-width="6.70715" stroke-miterlimit="10"/>
<path d="M376.568 130.695C373.365 129.52 369.851 130.158 367.309 132.25C365.975 133.35 365.072 134.992 364.425 136.65C363.793 138.068 362.141 139.87 359.665 138.771C357.768 138.092 356.865 135.909 357.546 134.009C357.96 132.328 358.262 130.508 358.066 128.643C357.533 125.271 355.329 122.592 352.126 121.417C348.924 120.242 345.405 120.889 342.863 122.981C340.321 125.073 339.011 128.391 339.547 131.772C340.081 135.144 342.285 137.823 345.488 138.998C347.151 139.652 348.986 139.715 350.738 139.385C352.115 139.149 354.533 139.63 355 142.383C355.3 144.375 353.883 146.213 352.004 146.647C350.247 146.97 348.579 147.669 347.245 148.768C344.7 150.862 343.393 154.178 343.935 157.559C344.469 160.93 346.673 163.61 349.876 164.785C353.078 165.96 356.594 165.321 359.134 163.229C361.674 161.137 362.981 157.817 362.445 154.436C362.123 152.678 361.289 151.12 360.081 149.649C359.089 148.443 358.571 146.184 360.579 144.531C362.187 143.207 364.378 143.427 365.695 145.029C366.793 146.364 368.27 147.62 369.934 148.274C373.136 149.449 376.65 148.81 379.192 146.718C381.734 144.626 383.039 141.306 382.501 137.928C382.29 136.303 381.458 134.75 380.466 133.543C379.486 132.337 378.107 131.218 376.568 130.697" fill="white"/>
<g filter="url(#filter0_d_131_2030)">
<path d="M266.756 548.379L250.691 555.68L243.39 571.734C243.214 572.122 242.927 572.448 242.566 572.673C242.205 572.898 241.785 573.012 241.359 572.999C240.934 572.986 240.521 572.848 240.174 572.602C239.827 572.356 239.56 572.013 239.407 571.616L224.133 531.923C223.99 531.533 223.962 531.111 224.051 530.706C224.141 530.301 224.344 529.93 224.638 529.636C224.931 529.343 225.303 529.14 225.708 529.051C226.114 528.962 226.536 528.99 226.926 529.133L266.638 544.4C267.03 544.557 267.368 544.826 267.609 545.172C267.851 545.519 267.987 545.928 267.999 546.351C268.012 546.773 267.901 547.19 267.68 547.55C267.459 547.91 267.138 548.198 266.756 548.379Z" fill="#F8B30D"/>
<path d="M226.236 531.011L265.896 546.257C265.91 546.263 265.923 546.271 265.935 546.28L265.969 546.316C265.988 546.344 265.999 546.377 266 546.409V546.41C266.001 546.443 265.992 546.476 265.975 546.505V546.506C265.958 546.534 265.932 546.556 265.902 546.57L249.863 553.858L249.181 554.169L248.87 554.852L241.569 570.906C241.557 570.934 241.536 570.959 241.509 570.976H241.508C241.481 570.992 241.45 571 241.418 570.999C241.387 570.998 241.356 570.989 241.33 570.971H241.331C241.305 570.952 241.285 570.927 241.273 570.897L226.011 531.234C225.999 531.203 225.997 531.169 226.004 531.137C226.011 531.105 226.027 531.075 226.051 531.052C226.074 531.028 226.105 531.011 226.138 531.004C226.171 530.997 226.205 530.999 226.236 531.011Z" stroke="#031A3E" stroke-width="4"/>
</g>
</g>
<defs>
<filter id="filter0_d_131_2030" x="209" y="514" width="84" height="84" filterUnits="userSpaceOnUse" color-interpolation-filters="sRGB">
<feFlood flood-opacity="0" result="BackgroundImageFix"/>
<feColorMatrix in="SourceAlpha" type="matrix" values="0 0 0 0 0 0 0 0 0 0 0 0 0 0 0 0 0 0 127 0" result="hardAlpha"/>
<feOffset dx="5" dy="5"/>
<feGaussianBlur stdDeviation="10"/>
<feComposite in2="hardAlpha" operator="out"/>
<feColorMatrix type="matrix" values="0 0 0 0 0 0 0 0 0 0 0 0 0 0 0 0 0 0 0.25 0"/>
<feBlend mode="normal" in2="BackgroundImageFix" result="effect1_dropShadow_131_2030"/>
<feBlend mode="normal" in="SourceGraphic" in2="effect1_dropShadow_131_2030" result="shape"/>
</filter>
</defs>
</svg>
