<svg width="384" height="771" viewBox="0 0 384 771" fill="none" xmlns="http://www.w3.org/2000/svg">
<path d="M376.062 123.284H375.34V47.4981C375.34 22.37 354.975 2 329.854 2H54.1461C29.025 2 8.66036 22.37 8.66036 47.4981V123.284H7.93821C4.65857 123.284 2 125.943 2 129.224V181.648C2 184.928 4.65857 187.588 7.93821 187.588H8.66036V200.091H7.93821C4.65857 200.091 2 202.751 2 206.031V258.455C2 261.735 4.65857 264.395 7.93821 264.395H8.66036V723.502C8.66036 748.63 29.025 769 54.1461 769H329.854C354.975 769 375.339 748.63 375.339 723.502V219.739H376.061C379.341 219.739 382 217.08 382 213.799V129.223C382 125.943 379.341 123.284 376.062 123.284Z" stroke="#031A3E" stroke-width="3.666" stroke-miterlimit="10"/>
<path d="M375.339 47.4981C375.339 22.37 354.975 2 329.854 2H54.1459C29.0248 2 8.66016 22.37 8.66016 47.4981C8.66016 272.218 8.66016 497.858 8.66016 723.502C8.66016 748.63 29.0248 769 54.1459 769H329.853C354.974 769 375.339 748.63 375.339 723.502C375.339 498.031 375.339 272.561 375.339 47.4981Z" stroke="#031A3E" stroke-width="3.666" stroke-miterlimit="10"/>
<path d="M325.159 13.2532H58.8408C38.437 13.2532 21.8965 29.7983 21.8965 50.2078V720.792C21.8965 741.202 38.437 757.747 58.8408 757.747H325.159C345.563 757.747 362.104 741.202 362.104 720.792V50.2078C362.104 29.7983 345.563 13.2532 325.159 13.2532Z" fill="#019BD8"/>
<path d="M325.159 13.2532H58.8408C38.437 13.2532 21.8965 29.7983 21.8965 50.2078V720.792C21.8965 741.202 38.437 757.747 58.8408 757.747H325.159C345.563 757.747 362.104 741.202 362.104 720.792V50.2078C362.104 29.7983 345.563 13.2532 325.159 13.2532Z" stroke="#031A3E" stroke-width="3.666" stroke-miterlimit="10"/>
<mask id="mask0_131_1930" style="mask-type:alpha" maskUnits="userSpaceOnUse" x="24" y="13" width="336" height="745">
<path d="M323.513 13H60.4874C40.336 13 24 29.5564 24 49.9797V721.02C24 741.444 40.336 758 60.4874 758H323.513C343.664 758 360 741.444 360 721.02V49.9797C360 29.5564 343.664 13 323.513 13Z" fill="#D9D9D9"/>
</mask>
<g mask="url(#mask0_131_1930)">
<path d="M187.59 517.935C168.861 497.655 170.103 466.017 190.368 447.277C210.628 428.537 242.242 429.785 260.969 450.068C279.701 470.345 278.456 501.98 258.196 520.718C237.929 539.462 206.319 538.216 187.59 517.935Z" fill="#9DCCED"/>
<path d="M191.316 449C195.528 445.177 200.211 442.187 205.144 439.998C203.016 441.417 200.967 443.005 199.018 444.774C178.62 463.279 176.851 493.951 195.058 513.278C209.502 528.612 232.181 532.185 251.124 523.772C230.99 537.198 203.822 534.985 187.356 517.505C169.149 498.177 170.918 467.503 191.316 449Z" fill="#72AACC"/>
<path d="M200.951 507.075C187.278 491.827 187.542 468.636 201.547 455.278C215.547 441.923 237.986 443.455 251.657 458.703C265.331 473.946 265.064 497.137 251.064 510.491C237.061 523.85 214.624 522.323 200.951 507.075Z" stroke="#72AACC" stroke-width="4.64294" stroke-miterlimit="10"/>
<path d="M187.59 517.935C168.861 497.655 170.103 466.017 190.368 447.277C210.628 428.537 242.242 429.785 260.969 450.068C279.701 470.345 278.456 501.98 258.196 520.718C237.929 539.462 206.319 538.216 187.59 517.935Z" stroke="#031A3E" stroke-width="6.78982" stroke-miterlimit="10"/>
<path d="M248.576 477.385L244.553 496.796C244.297 498.035 243.398 499.044 242.198 499.441L223.392 505.664C222.791 505.864 222.159 505.893 221.562 505.769C220.961 505.646 220.398 505.364 219.925 504.945L211.672 497.578L207.795 494.12L205.143 491.752C204.199 490.909 203.776 489.627 204.033 488.388L208.056 468.977C208.313 467.738 209.211 466.729 210.411 466.332L229.215 460.114C229.816 459.913 230.448 459.884 231.045 460.008C231.642 460.132 232.209 460.411 232.682 460.833L247.469 474.024C248.414 474.866 248.835 476.148 248.579 477.387L248.576 477.385ZM245.737 476.792C245.782 476.572 245.706 476.335 245.535 476.182L230.752 462.989C230.667 462.917 230.563 462.863 230.455 462.84C230.347 462.817 230.232 462.824 230.122 462.86L211.314 469.083C211.095 469.155 210.933 469.337 210.886 469.563L206.86 488.978C206.815 489.199 206.892 489.436 207.063 489.589L209.337 491.619L222.109 470.966C222.28 470.689 222.607 470.55 222.926 470.615L227.184 471.498C227.449 471.554 227.58 471.854 227.434 472.084L213.214 495.077L214.754 496.451L229.559 472.512C229.73 472.235 230.057 472.095 230.376 472.16L234.634 473.044C234.897 473.098 235.025 473.399 234.884 473.629L218.631 499.91L221.843 502.775C221.929 502.847 222.033 502.901 222.141 502.924C222.249 502.947 222.368 502.944 222.474 502.906L226.596 501.543L225.38 493.207C225.356 493.025 225.394 492.842 225.488 492.684L228.962 487.068C229.151 486.759 229.624 486.856 229.676 487.217L231.529 499.912L233.49 499.263L231.225 483.763C231.2 483.58 231.239 483.398 231.333 483.24L234.807 477.624C234.996 477.315 235.469 477.412 235.521 477.772L238.423 497.632L241.284 496.686C241.503 496.614 241.665 496.431 241.712 496.206L245.735 476.795L245.737 476.792Z" fill="white"/>
<path d="M130.045 517.935C148.774 497.655 147.531 466.017 127.267 447.277C107.006 428.537 75.3925 429.785 56.6655 450.068C37.9339 470.345 39.1789 501.98 59.4392 520.718C79.7062 539.462 111.318 538.216 130.047 517.935H130.045Z" fill="#F1B90C"/>
<path d="M126.32 449.001C122.107 445.178 117.425 442.188 112.492 439.998C114.619 441.418 116.668 443.006 118.618 444.774C139.015 463.28 140.785 493.951 122.578 513.279C108.133 528.612 85.4549 532.186 66.5117 523.773C86.6459 537.198 113.813 534.986 130.28 517.506C148.487 498.178 146.715 467.506 126.32 449.001Z" fill="#CC9212"/>
<path d="M116.684 507.077C130.357 491.829 130.094 468.638 116.088 455.28C102.089 441.925 79.6492 443.457 65.9787 458.705C52.3038 473.948 52.5717 497.139 66.5709 510.492C80.5745 523.852 103.012 522.323 116.684 507.075V507.077Z" stroke="#CC9212" stroke-width="4.64294" stroke-miterlimit="10"/>
<path d="M130.045 517.935C148.774 497.655 147.531 466.017 127.267 447.277C107.006 428.537 75.3925 429.785 56.6655 450.068C37.9339 470.345 39.1789 501.98 59.4392 520.718C79.7061 539.462 111.318 538.216 130.047 517.935H130.045Z" stroke="#031A3E" stroke-width="6.78982" stroke-miterlimit="10"/>
<path fill-rule="evenodd" clip-rule="evenodd" d="M99.3369 488.173L103.218 494.69L85.4774 505.223L74.9477 487.486L81.4722 483.62L88.125 494.826L99.3369 488.173ZM92.6729 476.949L96.606 483.574L89.9847 487.51L86.0628 480.902L86.0672 480.887L92.6729 476.946V476.949ZM74.8644 472.49L78.7412 479.021L72.2168 482.887L68.3398 476.356L74.8644 472.49ZM110.445 481.558L114.322 488.089L107.798 491.955L103.921 485.424L110.445 481.558ZM97.1868 459.223L107.717 476.96L101.19 480.839L94.5415 469.62L83.3431 476.277L79.4617 469.76L97.1868 459.223Z" fill="white"/>
<path d="M316.641 515.959C299.22 494.979 302.089 463.834 323.055 446.401C344.016 428.971 375.136 431.847 392.554 452.831C409.977 473.806 407.105 504.95 386.147 522.377C365.179 539.812 334.061 536.939 316.641 515.959Z" fill="#01A5DE"/>
<path d="M323.901 448.153C328.255 444.601 333.03 441.894 338.01 439.992C335.837 441.28 333.733 442.742 331.72 444.385C310.637 461.577 307.296 491.741 324.252 511.755C337.703 527.632 359.889 532.338 379.013 525.025C358.455 537.221 331.769 533.623 316.435 515.525C299.479 495.511 302.82 465.347 323.903 448.155L323.901 448.153Z" fill="#018AC2"/>
<path d="M330.384 505.942C317.687 490.19 319.155 467.326 333.664 454.878C348.169 442.431 370.224 445.111 382.916 460.865C395.613 476.615 394.145 499.475 379.64 511.922C365.131 524.372 343.08 521.694 330.384 505.942Z" stroke="#018AC2" stroke-width="4.58641" stroke-miterlimit="10"/>
<path d="M316.641 515.959C299.22 494.979 302.089 463.834 323.055 446.401C344.016 428.971 375.136 431.847 392.554 452.831C409.977 473.806 407.105 504.95 386.147 522.377C365.179 539.812 334.061 536.939 316.641 515.959Z" stroke="#031A3E" stroke-width="6.70715" stroke-miterlimit="10"/>
<path d="M375.278 470.695C372.075 469.52 368.561 470.158 366.019 472.25C364.685 473.35 363.782 474.992 363.135 476.65C362.503 478.068 360.851 479.87 358.375 478.771C356.478 478.092 355.575 475.909 356.256 474.009C356.67 472.328 356.972 470.508 356.776 468.643C356.243 465.271 354.039 462.592 350.836 461.417C347.634 460.242 344.115 460.889 341.573 462.981C339.031 465.073 337.721 468.391 338.257 471.772C338.791 475.144 340.995 477.823 344.198 478.998C345.861 479.652 347.696 479.715 349.448 479.385C350.825 479.149 353.242 479.63 353.71 482.383C354.01 484.375 352.593 486.213 350.714 486.647C348.957 486.97 347.289 487.669 345.955 488.768C343.41 490.862 342.103 494.178 342.645 497.559C343.179 500.93 345.383 503.61 348.585 504.785C351.788 505.96 355.304 505.321 357.844 503.229C360.384 501.137 361.691 497.817 361.155 494.436C360.833 492.678 359.999 491.12 358.791 489.649C357.799 488.443 357.281 486.184 359.289 484.531C360.897 483.207 363.088 483.427 364.405 485.029C365.503 486.364 366.98 487.62 368.643 488.274C371.846 489.449 375.36 488.81 377.902 486.718C380.444 484.626 381.749 481.306 381.211 477.928C381 476.303 380.168 474.75 379.176 473.543C378.195 472.337 376.817 471.218 375.278 470.697" fill="white"/>
<path d="M110.888 644.096C104.214 617.309 120.504 590.175 147.272 583.496C174.035 576.818 201.146 593.121 207.817 619.91C214.493 646.695 198.204 673.825 171.444 680.503C144.673 687.183 117.562 670.881 110.888 644.096Z" fill="#C464EE"/>
<path d="M147.272 585.463C152.803 584.138 158.342 583.769 163.719 584.224C161.173 584.444 158.612 584.852 156.055 585.463C129.286 591.87 112.997 617.903 119.671 643.605C124.965 663.993 143.126 678.039 163.773 679.777C139.676 681.859 116.922 666.849 110.888 643.605C104.214 617.903 120.504 591.87 147.272 585.463Z" fill="#963FDD"/>
<path d="M127.816 641.006C123.157 621.063 134.531 600.862 153.224 595.889C171.912 590.918 190.844 603.054 195.503 622.998C200.164 642.938 188.789 663.137 170.102 668.111C151.407 673.084 132.476 660.948 127.816 641.006Z" stroke="#963FDD" stroke-width="4.64177" stroke-miterlimit="10"/>
<path d="M110.888 644.096C104.214 617.309 120.504 590.175 147.272 583.496C174.035 576.818 201.146 593.121 207.817 619.91C214.493 646.695 198.204 673.825 171.444 680.503C144.673 687.183 117.562 670.881 110.888 644.096Z" stroke="#031A3E" stroke-width="6.78811" stroke-miterlimit="10"/>
<path d="M180.668 643.122L173.724 649.571C173.574 649.711 173.394 649.819 173.198 649.888C173.002 649.958 172.793 649.988 172.585 649.974L141.592 648.136C141.443 648.127 141.301 648.078 141.182 647.99C141.063 647.904 140.973 647.785 140.921 647.65C140.869 647.514 140.86 647.366 140.894 647.226C140.928 647.087 141.002 646.958 141.11 646.859L148.058 640.411C148.209 640.271 148.387 640.163 148.583 640.093C148.779 640.023 148.986 639.994 149.193 640.005L180.184 641.843C180.333 641.852 180.475 641.902 180.594 641.989C180.713 642.075 180.803 642.194 180.855 642.33C180.907 642.465 180.916 642.613 180.882 642.753C180.848 642.893 180.774 643.021 180.666 643.12L180.668 643.122ZM174.947 628.969C174.814 628.811 174.647 628.683 174.463 628.59C174.276 628.498 174.073 628.444 173.864 628.433L142.87 626.595C142.722 626.586 142.575 626.619 142.447 626.691C142.319 626.764 142.215 626.869 142.148 626.998C142.08 627.126 142.053 627.273 142.071 627.414C142.087 627.559 142.148 627.694 142.242 627.806L148.38 635.03C148.513 635.185 148.677 635.313 148.864 635.406C149.051 635.498 149.254 635.552 149.461 635.566L180.452 637.404C180.601 637.413 180.747 637.379 180.875 637.307C181.004 637.235 181.107 637.129 181.175 637.001C181.242 636.872 181.267 636.726 181.251 636.584C181.235 636.44 181.175 636.305 181.08 636.194L174.947 628.971V628.969ZM143.134 622.155L174.127 623.993C174.337 624.007 174.544 623.975 174.74 623.908C174.935 623.838 175.115 623.73 175.266 623.59L182.21 617.142C182.318 617.042 182.392 616.914 182.426 616.774C182.46 616.635 182.451 616.486 182.399 616.351C182.347 616.216 182.257 616.096 182.138 616.011C182.019 615.925 181.877 615.873 181.728 615.864L150.737 614.027C150.53 614.015 150.32 614.045 150.127 614.114C149.931 614.184 149.753 614.292 149.602 614.432L142.656 620.88C142.548 620.98 142.474 621.108 142.44 621.248C142.407 621.387 142.416 621.536 142.467 621.671C142.519 621.806 142.609 621.926 142.728 622.011C142.848 622.097 142.99 622.148 143.136 622.158L143.134 622.155Z" fill="white"/>
<path d="M-6.88909 665.522C-25.3903 645.488 -24.1627 614.236 -4.14471 595.724C15.8688 577.212 47.0979 578.445 65.5969 598.481C84.1004 618.511 82.8705 649.761 62.857 668.271C42.8367 686.787 11.6122 685.556 -6.88909 665.522Z" fill="#45DBB8"/>
<path d="M-3.2096 597.429C0.95145 593.652 5.57732 590.699 10.45 588.536C8.34839 589.938 6.32457 591.507 4.39861 593.254C-15.7506 611.534 -17.4986 641.832 0.486639 660.924C14.7557 676.071 37.1578 679.601 55.8703 671.291C35.9813 684.552 9.14457 682.367 -7.12158 665.099C-25.1069 646.007 -23.3566 615.709 -3.2096 597.429Z" fill="#31AFA0"/>
<path d="M6.30756 654.798C-7.19864 639.736 -6.93844 616.827 6.89691 603.632C20.7256 590.439 42.8919 591.952 56.3959 607.015C69.9043 622.072 69.6397 644.981 55.811 658.172C41.9779 671.369 19.8138 669.858 6.30756 654.796V654.798Z" stroke="#31AFA0" stroke-width="4.58641" stroke-miterlimit="10"/>
<path d="M-6.88909 665.522C-25.3903 645.488 -24.1627 614.236 -4.14471 595.724C15.8688 577.212 47.0979 578.445 65.5969 598.481C84.1004 618.511 82.8705 649.761 62.857 668.271C42.8367 686.787 11.6121 685.556 -6.88909 665.522Z" stroke="#031A3E" stroke-width="6.70715" stroke-miterlimit="10"/>
<path d="M22.3495 619.263L44.0889 641.298L12.8643 652.474L33.2181 630.28L50.376 609.08L22.3495 619.263Z" fill="white"/>
<path d="M251.93 664.348C234.295 643.11 237.199 611.581 258.423 593.934C279.642 576.289 311.145 579.2 328.777 600.442C346.414 621.676 343.508 653.203 322.291 670.845C301.065 688.494 269.564 685.586 251.93 664.348Z" fill="#627EEB"/>
<path d="M259.275 595.706C263.683 592.111 268.517 589.371 273.558 587.445C271.358 588.749 269.228 590.23 267.191 591.892C245.848 609.296 242.466 639.831 259.631 660.092C273.247 676.164 295.707 680.929 315.066 673.526C294.254 685.872 267.24 682.229 251.717 663.908C234.553 643.648 237.935 613.112 259.277 595.709L259.275 595.706Z" fill="#4A5FC6"/>
<path d="M265.843 654.207C252.99 638.261 254.476 615.115 269.163 602.515C283.847 589.914 306.173 592.627 319.022 608.575C331.875 624.519 330.389 647.66 315.706 660.261C301.018 672.863 278.693 670.153 265.84 654.207H265.843Z" stroke="#4A5FC6" stroke-width="4.64288" stroke-miterlimit="10"/>
<path d="M251.93 664.348C234.295 643.11 237.199 611.581 258.423 593.934C279.642 576.289 311.145 579.2 328.777 600.442C346.414 621.676 343.508 653.203 322.291 670.845C301.065 688.494 269.564 685.586 251.93 664.348Z" stroke="#031A3E" stroke-width="6.78973" stroke-miterlimit="10"/>
<path d="M294.899 643.874V643.872L277.325 638.058L297.54 656.476L308.673 631.486L294.899 643.874Z" fill="white"/>
<path d="M287.034 606.299L276.193 632.656L293.77 638.473L307.532 626.086L287.034 606.299Z" fill="white"/>
<rect x="63" y="235" width="163" height="167" rx="28" fill="#003872" fill-opacity="0.28" stroke="#F8B30D" stroke-width="4"/>
<path d="M246.326 331.096C239.653 304.309 255.942 277.175 282.711 270.496C309.473 263.818 336.584 280.121 343.256 306.91C349.932 333.695 333.642 360.825 306.882 367.503C280.111 374.183 253 357.881 246.326 331.096Z" fill="#3C6EF2"/>
<path d="M282.711 272.462C288.241 271.138 293.78 270.768 299.158 271.223C296.612 271.444 294.051 271.852 291.494 272.462C264.725 278.87 248.436 304.903 255.109 330.604C260.403 350.993 278.565 365.038 299.212 366.777C275.114 368.858 252.361 353.848 246.326 330.604C239.653 304.903 255.942 278.87 282.711 272.462Z" fill="#1D54CE"/>
<path d="M263.257 328.003C258.598 308.061 269.971 287.86 288.664 282.887C307.353 277.916 326.284 290.051 330.943 309.996C335.605 329.936 324.229 350.135 305.543 355.108C286.848 360.081 267.916 347.946 263.257 328.003Z" stroke="#1D54CE" stroke-width="4.64177" stroke-miterlimit="10"/>
<path d="M246.326 331.096C239.653 304.309 255.942 277.175 282.711 270.496C309.473 263.818 336.584 280.121 343.256 306.91C349.932 333.695 333.642 360.825 306.882 367.503C280.111 374.183 253 357.881 246.326 331.096Z" stroke="#031A3E" stroke-width="6.7881" stroke-miterlimit="10"/>
<path d="M302.923 297.748C292.445 294.853 281.491 301.059 277.642 311.739L307.267 319.924L306.301 323.427L276.676 315.242C274.504 326.384 280.725 337.335 291.203 340.231C302.236 343.279 313.803 336.24 317.04 324.51C320.277 312.78 313.956 300.795 302.923 297.748Z" fill="white"/>
<path d="M-53.5046 331.096C-60.1782 304.309 -43.8891 277.175 -17.1201 270.496C9.64211 263.818 36.7532 280.121 43.4246 306.91C50.1005 333.695 33.8113 360.825 7.05138 367.503C-19.7198 374.183 -46.8309 357.881 -53.5046 331.096Z" fill="#C464EE"/>
<path d="M-36.5762 328.006C-41.2354 308.063 -29.862 287.862 -11.169 282.889C7.51956 277.918 26.4512 290.054 31.1104 309.998C35.7718 329.938 24.3962 350.137 5.70989 355.111C-12.9854 360.084 -31.917 347.948 -36.5762 328.006Z" stroke="#963FDD" stroke-width="4.64177" stroke-miterlimit="10"/>
<path d="M-53.5046 331.096C-60.1782 304.309 -43.8891 277.175 -17.1201 270.496C9.64211 263.818 36.7532 280.121 43.4246 306.91C50.1005 333.695 33.8113 360.825 7.05138 367.503C-19.7198 374.183 -46.8309 357.881 -53.5046 331.096Z" stroke="#031A3E" stroke-width="6.78811" stroke-miterlimit="10"/>
<path d="M102.609 354.151C83.2104 330.79 86.4051 296.108 109.751 276.696C133.092 257.287 167.745 260.489 187.141 283.855C206.542 307.212 203.345 341.892 180.007 361.299C156.658 380.713 122.007 377.513 102.609 354.151Z" fill="#F8B30D"/>
<path d="M110.688 278.644C115.536 274.689 120.853 271.675 126.398 269.557C123.979 270.992 121.636 272.62 119.395 274.449C95.9177 293.592 92.198 327.182 111.079 349.468C126.057 367.147 150.762 372.389 172.057 364.245C149.165 377.826 119.449 373.819 102.374 353.666C83.4932 331.38 87.2128 297.791 110.69 278.647L110.688 278.644Z" fill="#E28C0E"/>
<path d="M117.911 342.997C103.772 325.457 105.407 299.996 121.563 286.135C137.715 272.275 162.274 275.259 176.408 292.802C190.546 310.34 188.912 335.796 172.76 349.656C156.603 363.519 132.046 360.538 117.908 342.997H117.911Z" stroke="#E28C0E" stroke-width="5.10716" stroke-miterlimit="10"/>
<path d="M163.733 302.719C161.982 297.061 156.6 296.162 150.201 296.915L148.539 288.908L143.671 289.919L145.288 297.713C144.007 297.978 142.705 298.276 141.41 298.573L139.783 290.727L134.916 291.738L136.575 299.743C135.525 299.983 134.495 300.219 133.485 300.429L133.48 300.404L126.764 301.797L127.843 307.001C127.843 307.001 131.424 306.186 131.38 306.265C133.354 305.856 134.233 306.87 134.624 307.819L139.173 329.751C139.215 330.39 139.057 331.456 137.678 331.746C137.752 331.788 134.136 332.48 134.136 332.48L134.376 338.501L140.714 337.186C141.893 336.943 143.059 336.722 144.198 336.492L145.88 344.588L150.743 343.579L149.082 335.567C150.424 335.317 151.719 335.059 152.98 334.797L154.632 342.771L159.5 341.76L157.826 333.677C165.917 331.506 171.219 328.252 170.335 320.411C169.624 314.096 166.14 311.938 161.259 311.784C163.785 309.76 165.023 306.858 163.735 302.719H163.733ZM160.511 321.447C161.769 327.498 151.271 328.961 147.972 329.647L145.748 318.919C149.05 318.235 159.203 315.135 160.511 321.447ZM155.107 306.781C156.246 312.287 147.479 313.437 144.731 314.01L142.712 304.28C145.461 303.71 153.916 301.039 155.107 306.781Z" fill="white"/>
<path d="M102.609 354.151C83.2104 330.79 86.4051 296.108 109.751 276.696C133.092 257.287 167.745 260.489 187.141 283.855C206.542 307.212 203.345 341.892 180.006 361.299C156.658 380.713 122.007 377.513 102.609 354.151Z" stroke="#031A3E" stroke-width="7.4687" stroke-miterlimit="10"/>
<path d="M188.111 177.914C169.61 157.88 170.837 126.627 190.855 108.115C210.869 89.6038 242.098 90.8367 260.597 110.873C279.1 130.902 277.871 162.153 257.857 180.662C237.837 199.178 206.612 197.947 188.111 177.914Z" fill="#45DBB8"/>
<path d="M191.79 109.82C195.951 106.044 200.577 103.09 205.45 100.927C203.348 102.329 201.325 103.898 199.399 105.645C179.249 123.925 177.501 154.223 195.487 173.316C209.756 188.462 232.158 191.992 250.87 183.682C230.981 196.944 204.145 194.758 187.878 177.491C169.893 158.398 171.643 128.1 191.79 109.82Z" fill="#31AFA0"/>
<path d="M201.308 167.189C187.801 152.127 188.062 129.218 201.897 116.023C215.726 102.83 237.892 104.344 251.396 119.406C264.904 134.464 264.64 157.373 250.811 170.563C236.978 183.76 214.814 182.249 201.308 167.187V167.189Z" stroke="#31AFA0" stroke-width="4.58641" stroke-miterlimit="10"/>
<path d="M188.111 177.914C169.61 157.88 170.837 126.627 190.855 108.115C210.869 89.6038 242.098 90.8367 260.597 110.873C279.1 130.902 277.871 162.153 257.857 180.662C237.837 199.178 206.612 197.947 188.111 177.914Z" stroke="#031A3E" stroke-width="6.70715" stroke-miterlimit="10"/>
<path d="M217.35 131.655L239.089 153.689L207.864 164.866L228.218 142.671L245.376 121.471L217.35 131.655Z" fill="white"/>
<path d="M56.3977 175.959C38.9773 154.979 41.8462 123.834 62.8116 106.401C83.7726 88.9714 114.893 91.8467 132.311 112.831C149.733 133.806 146.862 164.95 125.904 182.377C104.936 199.812 73.8181 196.939 56.3977 175.959Z" fill="#01A5DE"/>
<path d="M63.6574 108.153C68.012 104.601 72.7869 101.894 77.7663 99.9917C75.5935 101.28 73.4896 102.742 71.4769 104.385C50.3937 121.577 47.0532 151.741 64.0088 171.755C77.4594 187.632 99.6458 192.338 118.77 185.025C98.2113 197.221 71.5259 193.623 56.1916 175.525C39.236 155.511 42.5764 125.347 63.6597 108.155L63.6574 108.153Z" fill="#018AC2"/>
<path d="M70.1406 165.942C57.4439 150.19 58.9117 127.326 73.421 114.878C87.9257 102.431 109.981 105.111 122.673 120.865C135.37 136.615 133.902 159.475 119.397 171.922C104.888 184.372 82.8373 181.694 70.1406 165.942Z" stroke="#018AC2" stroke-width="4.58641" stroke-miterlimit="10"/>
<path d="M56.3977 175.959C38.9773 154.979 41.8462 123.834 62.8116 106.401C83.7726 88.9714 114.893 91.8467 132.311 112.831C149.733 133.806 146.862 164.95 125.904 182.377C104.936 199.812 73.8181 196.939 56.3977 175.959Z" stroke="#031A3E" stroke-width="6.70715" stroke-miterlimit="10"/>
<path d="M115.034 130.695C111.832 129.52 108.318 130.158 105.776 132.25C104.442 133.35 103.539 134.992 102.892 136.65C102.26 138.068 100.608 139.87 98.1322 138.771C96.2352 138.092 95.3323 135.909 96.0128 134.009C96.4265 132.328 96.7289 130.508 96.5332 128.643C95.9995 125.271 93.7955 122.592 90.593 121.417C87.3905 120.242 83.8721 120.889 81.3301 122.981C78.7881 125.073 77.4782 128.391 78.0142 131.772C78.5479 135.144 80.7519 137.823 83.9544 138.998C85.6179 139.652 87.4527 139.715 89.2052 139.385C90.5819 139.149 92.9993 139.63 93.4663 142.383C93.7666 144.375 92.3499 146.213 90.4707 146.647C88.7137 146.97 87.0457 147.669 85.7114 148.768C83.1671 150.862 81.8594 154.178 82.4021 157.559C82.9358 160.93 85.1398 163.61 88.3423 164.785C91.5448 165.96 95.0609 165.321 97.6007 163.229C100.141 161.137 101.448 157.817 100.912 154.436C100.59 152.678 99.7557 151.12 98.5481 149.649C97.5562 148.443 97.038 146.184 99.0463 144.531C100.654 143.207 102.845 143.427 104.161 145.029C105.26 146.364 106.737 147.62 108.4 148.274C111.603 149.449 115.117 148.81 117.659 146.718C120.201 144.626 121.506 141.306 120.968 137.928C120.757 136.303 119.925 134.75 118.933 133.543C117.952 132.337 116.573 131.218 115.034 130.697" fill="white"/>
<path d="M316.593 176.273C298.877 154.953 301.795 123.303 323.115 105.586C344.431 87.8727 376.078 90.797 393.793 112.12C411.511 133.435 408.591 165.085 387.278 182.796C365.955 200.513 334.308 197.593 316.593 176.273Z" fill="#E82896"/>
<path d="M323.975 107.365C328.403 103.756 333.259 101.006 338.322 99.072C336.113 100.382 333.973 101.867 331.927 103.536C310.486 121.008 307.089 151.662 324.332 172C338.01 188.135 360.572 192.918 380.02 185.487C359.114 197.88 331.976 194.223 316.382 175.832C299.137 155.491 302.534 124.836 323.975 107.365Z" fill="#BA2A8A"/>
<path d="M330.571 166.095C317.659 150.088 319.152 126.852 333.907 114.202C348.657 101.553 371.086 104.276 383.993 120.286C396.905 136.292 395.412 159.523 380.662 172.172C365.907 184.824 343.48 182.103 330.569 166.095H330.571Z" stroke="#BA2A8A" stroke-width="4.59" stroke-miterlimit="10"/>
<path d="M316.593 176.273C298.877 154.953 301.795 123.303 323.115 105.586C344.431 87.8727 376.078 90.797 393.793 112.12C411.511 133.435 408.591 165.085 387.278 182.796C365.955 200.513 334.308 197.593 316.593 176.273Z" stroke="#031A3E" stroke-width="6.70715" stroke-miterlimit="10"/>
<path d="M371.398 130.161C375.647 139.121 371.83 149.83 362.869 154.082C362.869 154.082 360.775 155.016 360.293 155.276C357.952 156.563 356.659 159.173 357.054 161.814C357.054 161.814 357.581 165.32 357.615 165.643C357.622 165.684 357.627 165.722 357.631 165.763C357.785 167.079 356.84 168.271 355.523 168.425C355.478 168.432 355.435 168.439 355.39 168.443C354.078 168.588 352.898 167.64 352.753 166.329C352.671 166.107 348.971 139.587 348.971 139.587C348.781 138.241 349.718 136.995 351.063 136.805C352.409 136.615 353.655 137.552 353.845 138.897L355.306 149.778L355.668 151.915C355.645 151.988 355.675 152.064 355.738 152.105C355.817 152.157 355.921 152.135 355.971 152.055C356.358 151.791 356.758 151.549 357.17 151.329C358.301 150.748 360.608 149.735 360.608 149.735C366.757 147.055 369.844 140.125 367.727 133.761C365.468 126.967 358.129 123.292 351.335 125.551C344.541 127.811 340.866 135.15 343.125 141.944C343.591 143.43 344.349 144.809 345.353 146.001C346.176 147.075 346.02 148.606 344.998 149.493C343.908 150.309 342.37 150.135 341.492 149.095C340.255 147.541 339.278 145.8 338.597 143.936C335.228 134.618 340.006 124.328 349.299 120.888C357.952 117.891 367.474 121.885 371.398 130.161Z" fill="white"/>
<g filter="url(#filter0_d_131_1930)">
<path d="M250.756 402.379L234.691 409.68L227.39 425.734C227.214 426.122 226.927 426.448 226.566 426.673C226.205 426.898 225.785 427.012 225.359 426.999C224.934 426.986 224.521 426.848 224.174 426.602C223.827 426.356 223.56 426.013 223.407 425.616L208.133 385.923C207.99 385.533 207.962 385.111 208.051 384.706C208.141 384.301 208.344 383.93 208.638 383.636C208.931 383.343 209.303 383.14 209.708 383.051C210.114 382.962 210.536 382.99 210.926 383.133L250.638 398.4C251.03 398.557 251.368 398.826 251.609 399.172C251.851 399.519 251.987 399.928 251.999 400.351C252.012 400.773 251.901 401.19 251.68 401.55C251.459 401.91 251.138 402.198 250.756 402.379Z" fill="#F8B30D"/>
<path d="M210.236 385.011L249.896 400.257C249.91 400.263 249.923 400.271 249.935 400.28L249.969 400.316C249.988 400.344 249.999 400.377 250 400.409V400.41C250.001 400.443 249.992 400.476 249.975 400.505V400.506C249.958 400.534 249.932 400.556 249.902 400.57L233.863 407.858L233.181 408.169L232.87 408.852L225.569 424.906C225.557 424.934 225.536 424.959 225.509 424.976H225.508C225.481 424.992 225.45 425 225.418 424.999C225.387 424.998 225.356 424.989 225.33 424.971H225.331C225.305 424.952 225.285 424.927 225.273 424.897L210.011 385.234C209.999 385.203 209.997 385.169 210.004 385.137C210.011 385.105 210.027 385.075 210.051 385.052C210.074 385.028 210.105 385.011 210.138 385.004C210.171 384.997 210.205 384.999 210.236 385.011Z" stroke="#031A3E" stroke-width="4"/>
</g>
</g>
<defs>
<filter id="filter0_d_131_1930" x="193" y="368" width="84" height="84" filterUnits="userSpaceOnUse" color-interpolation-filters="sRGB">
<feFlood flood-opacity="0" result="BackgroundImageFix"/>
<feColorMatrix in="SourceAlpha" type="matrix" values="0 0 0 0 0 0 0 0 0 0 0 0 0 0 0 0 0 0 127 0" result="hardAlpha"/>
<feOffset dx="5" dy="5"/>
<feGaussianBlur stdDeviation="10"/>
<feComposite in2="hardAlpha" operator="out"/>
<feColorMatrix type="matrix" values="0 0 0 0 0 0 0 0 0 0 0 0 0 0 0 0 0 0 0.25 0"/>
<feBlend mode="normal" in2="BackgroundImageFix" result="effect1_dropShadow_131_1930"/>
<feBlend mode="normal" in="SourceGraphic" in2="effect1_dropShadow_131_1930" result="shape"/>
</filter>
</defs>
</svg>
