<svg width="468" height="316" viewBox="0 0 468 316" fill="none" xmlns="http://www.w3.org/2000/svg">
<path d="M313.289 163.101C309.757 161.417 305.6 151.59 303.654 136.989C301.708 122.388 305.208 115.072 309.064 102.55C311.702 93.9887 313.238 85.1131 313.3 76.1594C313.546 40.6749 292.874 15.8332 258.308 5.97947C238.556 0.350068 218.887 1.00711 201.459 5.97947C166.894 15.8332 146.221 40.6749 146.467 76.1594C146.528 85.1131 148.065 93.9887 150.703 102.55C154.559 115.072 157.252 124.393 156.113 136.989C154.975 149.585 149.924 159.077 148.188 162.133C143.687 170.057 318.104 169.843 313.288 163.1L313.289 163.101Z" fill="#1A79B4"/>
<path opacity="0.5" d="M229.885 58.2122C253.022 58.2122 271.779 46.6661 271.779 32.4233C271.779 18.1806 253.022 6.63452 229.885 6.63452C206.747 6.63452 187.99 18.1806 187.99 32.4233C187.99 46.6661 206.747 58.2122 229.885 58.2122Z" fill="#40AFEC"/>
<path d="M201.459 13.0432C218.887 8.07084 238.556 7.41379 258.308 13.0432C291.511 22.5089 311.883 45.8095 313.22 79.0829C313.261 78.1098 313.293 77.1357 313.3 76.1607C313.546 40.6762 292.874 15.8344 258.308 5.98069C238.556 0.351289 218.887 1.00834 201.459 5.98069C166.894 15.8344 146.221 40.6762 146.467 76.1607C146.474 77.1357 146.506 78.1088 146.547 79.0819C147.885 45.8095 168.257 22.5089 201.459 13.0432Z" fill="#A3D9F4"/>
<path d="M312.979 163.908C307.352 156.027 305.6 151.59 303.654 136.989C301.708 122.388 305.208 115.072 309.064 102.55C311.702 93.9887 313.238 85.1131 313.3 76.1594C313.546 40.6749 292.874 15.8332 258.308 5.97947C238.556 0.350068 218.887 1.00711 201.459 5.97947C166.894 15.8332 146.221 40.6749 146.467 76.1594C146.528 85.1131 148.065 93.9887 150.703 102.55C154.559 115.072 157.252 124.393 156.113 136.989C154.975 149.585 149.924 159.077 148.188 162.133" stroke="#031A3E" stroke-width="3.547" stroke-miterlimit="10" stroke-linecap="round"/>
<path d="M299.406 165.056C321.345 200.022 365.049 205.505 393.946 175.841C421.929 147.115 390.886 117.504 400.061 100.288C409.473 82.6251 419.696 93.8719 419.696 98.8763" stroke="#031A3E" stroke-width="27" stroke-miterlimit="10" stroke-linecap="round"/>
<path d="M295.477 157.993C315.699 199.177 363.203 207.4 393.945 175.841C421.928 147.115 390.885 117.504 400.06 100.288C409.472 82.6251 419.695 93.8719 419.695 98.8763" stroke="#1A79B4" stroke-width="20" stroke-miterlimit="10" stroke-linecap="round"/>
<path d="M159.961 165.056C138.023 200.022 101.69 205.134 72.4169 175.84C53.5954 157.006 74.1418 120.124 58.6213 86.2871C50.2774 68.0938 30.0508 70.0599 30.0508 75.0643" stroke="#031A3E" stroke-width="27" stroke-miterlimit="10" stroke-linecap="round"/>
<path d="M163.89 157.993C143.667 199.177 103.56 207.005 72.4169 175.84C53.5954 157.006 74.1418 120.124 58.6213 86.2871C50.2774 68.0938 30.0508 70.0599 30.0508 75.0643" stroke="#1A79B4" stroke-width="20" stroke-miterlimit="10" stroke-linecap="round"/>
<path d="M158.972 145.232C150.468 190.082 107.073 204.767 75.256 170.6C67.7596 162.062 69.3536 149.649 69.5845 139.255C69.8493 134.062 70.1342 128.918 70.2641 123.796C70.5919 104.917 68.5791 80.7277 51.7794 69.0249C43.8063 63.1745 32.1914 60.8153 23.6426 66.8737C31.7376 59.1632 44.6447 60.8183 53.4624 66.4817C72.3638 78.2555 75.1841 103.541 74.6654 123.909C74.5325 129.143 74.1327 134.338 73.8209 139.488C73.4931 148.731 71.9191 160.601 78.1882 167.882C91.618 182.657 113.265 190.619 131.639 180.428C145.151 173.03 153.094 159.331 158.972 145.232Z" fill="#A3D9F4"/>
<path d="M290.787 140.291C290.714 185.062 306.816 239.787 346.68 227.505C384.994 215.701 410.523 144.173 440.505 175.234" stroke="#031A3E" stroke-width="27" stroke-miterlimit="10" stroke-linecap="round"/>
<path d="M290.951 132.892C288.99 178.737 304.588 240.473 346.682 227.505C384.995 215.701 410.525 144.173 440.506 175.235" stroke="#1A79B4" stroke-width="20" stroke-miterlimit="10" stroke-linecap="round"/>
<path d="M308.175 190.37C312.156 200.134 316.5 210.677 325.612 216.373C331.468 220.005 338.706 219.748 345.115 217.73C355.175 214.295 362.853 206.563 370.116 198.871C388.106 179.875 411.58 144.345 441.505 163.234C427.106 155.724 413.977 159.127 402.147 169.469C391.2 178.899 382.643 190.717 372.906 201.437C365.467 209.477 357.14 217.977 346.306 221.491C323.351 228.53 312.102 210.243 308.176 190.369L308.175 190.37Z" fill="#A3D9F4"/>
<path d="M168.543 140.291C168.616 185.062 154.362 227.505 112.65 227.505C73.2592 227.505 58.801 144.173 28.8193 175.234" stroke="#031A3E" stroke-width="27" stroke-miterlimit="10" stroke-linecap="round"/>
<path d="M168.381 132.892C170.342 178.737 156.693 227.505 112.65 227.505C73.2592 227.505 58.801 144.173 28.8193 175.235" stroke="#1A79B4" stroke-width="20" stroke-miterlimit="10" stroke-linecap="round"/>
<path d="M155.445 173.47C154.911 188.876 149.659 205.728 136.35 214.781C127.308 220.973 111.666 224.071 101.72 218.664C79.6988 207.159 70.4794 168.275 48.22 160.251C40.9685 157.778 33.0973 160.272 26.7002 164.059C29.8643 161.949 33.2662 160.058 37.0199 159.073C57.7482 153.707 70.4944 177.23 80.6852 191.267C84.9916 197.421 89.3729 203.651 94.6936 208.907C98.5923 212.72 103.05 215.93 108.336 217.115C117.139 218.552 126.834 216.427 134.114 211.505C146.458 202.835 151.337 187.562 155.445 173.47Z" fill="#A3D9F4"/>
<path d="M192.669 154.655C194.104 197.056 191.475 232.665 161.961 251.606C130.637 271.708 102.562 222.227 106.652 185.193" stroke="#031A3E" stroke-width="27" stroke-miterlimit="10" stroke-linecap="round"/>
<path d="M192.364 146.782C194.325 192.628 193.285 231.503 161.961 251.607C130.637 271.709 102.562 222.228 106.652 185.194" stroke="#1A79B4" stroke-width="20" stroke-miterlimit="10" stroke-linecap="round"/>
<path d="M267.456 154.655C269.436 196.408 275.092 231.097 305.668 247.46C338.483 265.02 365.647 214.458 399.531 237.121" stroke="#031A3E" stroke-width="27" stroke-miterlimit="10" stroke-linecap="round"/>
<path d="M267.071 145.372C268.741 191.229 272.852 229.9 305.667 247.46C338.482 265.02 365.646 214.458 399.53 237.121" stroke="#1A79B4" stroke-width="20" stroke-miterlimit="10" stroke-linecap="round"/>
<path d="M281.604 194.295C284.328 206.496 288.389 218.759 296.564 228.366C300.544 233.01 305.529 236.717 310.963 239.163C316.379 241.647 322.335 241.76 328.046 240.128C339.952 236.612 350.528 228.654 362.459 224.521C374.576 219.836 388.588 220.168 400.119 226.179C388.287 221.815 375.108 222.392 363.635 227.55C357.909 229.969 352.474 233.104 346.942 236.239C338.63 240.88 329.249 246.255 319.124 245.703C308.875 245.113 299.911 238.327 293.942 230.483C286.053 220.027 282.808 207.047 281.604 194.295Z" fill="#A3D9F4"/>
<path d="M86.4489 285.606C78.6207 276.178 79.9099 262.182 89.3312 254.348C98.7504 246.516 112.735 247.808 120.562 257.238C128.391 266.663 127.101 280.658 117.683 288.49C108.261 296.324 94.2772 295.033 86.4489 285.606Z" fill="#627EEB"/>
<path d="M89.7102 255.135C91.667 253.539 93.8127 252.323 96.0503 251.468C95.0739 252.047 94.1285 252.704 93.224 253.442C83.7498 261.168 82.2487 274.723 89.8681 283.716C95.9124 290.851 105.882 292.966 114.476 289.68C105.238 295.16 93.246 293.543 86.3552 285.41C78.7359 276.417 80.237 262.862 89.7112 255.136L89.7102 255.135Z" fill="#4A5FC6"/>
<path d="M92.6256 281.104C86.92 274.026 87.5796 263.751 94.0997 258.157C100.618 252.564 110.529 253.768 116.232 260.848C121.938 267.925 121.278 278.198 114.76 283.791C108.24 289.386 98.3301 288.183 92.6246 281.104H92.6256Z" stroke="#4A5FC6" stroke-width="2.061" stroke-miterlimit="10"/>
<path d="M86.4489 285.606C78.6207 276.178 79.9099 262.182 89.3312 254.348C98.7504 246.516 112.735 247.808 120.562 257.238C128.391 266.663 127.101 280.658 117.683 288.49C108.261 296.324 94.2772 295.033 86.4489 285.606Z" stroke="#031A3E" stroke-width="3.014" stroke-miterlimit="10"/>
<path d="M105.524 276.517V276.516L97.7227 273.935L106.696 282.111L111.638 271.018L105.524 276.517Z" fill="white"/>
<path d="M102.032 259.838L97.2197 271.537L105.022 274.12L111.131 268.621L102.032 259.838Z" fill="white"/>
<path d="M83.7354 249.109C117.62 226.445 144.785 277.008 177.599 259.447C210.414 241.887 214.615 203.218 216.194 157.359C216.383 151.879 240.237 155.271 241.274 159.939C251.386 205.452 221.757 243.474 249.975 280.536C278.193 317.598 330.044 299.596 336.04 283.007" stroke="#031A3E" stroke-width="27" stroke-miterlimit="10" stroke-linecap="round"/>
<path d="M83.7354 249.109C117.62 226.445 144.785 277.008 177.599 259.448C210.414 241.887 215.333 203.238 216.194 157.359C216.466 142.892 237.806 140.291 241.274 159.94C249.379 205.852 221.757 243.474 249.975 280.536C278.193 317.598 330.044 299.596 336.04 283.007" stroke="#1A79B4" stroke-width="20" stroke-miterlimit="10" stroke-linecap="round"/>
<path d="M247.506 251.243C252.605 276.755 272.537 294.549 299.125 292.131C307.13 291.485 315.049 289.199 322.208 285.548C323.193 285.036 324.407 285.426 324.91 286.415C325.401 287.381 325.031 288.562 324.087 289.079C316.504 293.227 308.071 295.663 299.461 296.365C286.563 297.473 272.981 293.752 263.121 285.124C258.268 280.824 253.945 275.82 251.315 269.862C248.737 264 247.847 257.525 247.506 251.243Z" fill="#A3D9F4"/>
<path d="M88.7432 235.533C123.808 225.198 144.606 258.967 169.319 252.049C184.263 247.427 193.914 233.182 198.691 218.818C200.729 212.853 202.133 206.653 203.062 200.376C202.552 206.701 201.562 213.013 199.902 219.188C195.816 234.569 186.518 250.777 170.468 255.991C143.954 263.301 124.127 227.048 88.7432 235.533Z" fill="#A3D9F4"/>
<path d="M260.819 118.759C268.649 118.759 274.996 111.724 274.996 103.046C274.996 94.3675 268.649 87.3325 260.819 87.3325C252.989 87.3325 246.642 94.3675 246.642 103.046C246.642 111.724 252.989 118.759 260.819 118.759Z" fill="#031A3E"/>
<path d="M196.429 118.759C204.259 118.759 210.607 111.724 210.607 103.046C210.607 94.3675 204.259 87.3325 196.429 87.3325C188.599 87.3325 182.252 94.3675 182.252 103.046C182.252 111.724 188.599 118.759 196.429 118.759Z" fill="#031A3E"/>
<path d="M406.289 119.455C403.326 107.561 410.558 95.5129 422.444 92.5477C434.327 89.5825 446.365 96.821 449.327 108.716C452.291 120.609 445.058 132.655 433.177 135.62C421.29 138.586 409.252 131.347 406.289 119.455Z" fill="#3C6EF2"/>
<path d="M422.444 93.4206C424.9 92.8325 427.359 92.6685 429.747 92.8705C428.616 92.9685 427.479 93.1495 426.344 93.4206C414.458 96.2658 407.225 107.825 410.189 119.236C412.539 128.289 420.603 134.525 429.771 135.298C419.071 136.222 408.968 129.557 406.289 119.236C403.326 107.825 410.558 96.2658 422.444 93.4206Z" fill="#1D54CE"/>
<path d="M413.806 118.082C411.738 109.227 416.787 100.257 425.087 98.0492C433.385 95.842 441.791 101.23 443.86 110.086C445.93 118.94 440.879 127.908 432.582 130.116C424.281 132.325 415.875 126.936 413.806 118.082Z" stroke="#1D54CE" stroke-width="2.061" stroke-miterlimit="10"/>
<path d="M406.289 119.455C403.326 107.561 410.558 95.5129 422.444 92.5477C434.327 89.5825 446.365 96.821 449.327 108.716C452.291 120.609 445.058 132.655 433.177 135.62C421.29 138.586 409.252 131.347 406.289 119.455Z" stroke="#031A3E" stroke-width="3.014" stroke-miterlimit="10"/>
<path d="M431.418 104.648C426.766 103.363 421.902 106.118 420.193 110.86L433.347 114.494L432.919 116.049L419.765 112.415C418.8 117.363 421.563 122.225 426.215 123.511C431.114 124.864 436.25 121.739 437.687 116.53C439.124 111.322 436.317 106.001 431.418 104.648Z" fill="white"/>
<path d="M417.309 80.229C426.191 82.4512 431.688 91.1198 431.688 97.8762C431.688 103.399 427.213 107.877 421.694 107.877C417.456 107.877 410.743 103.898 409.29 100.17" fill="#1A79B4"/>
<path d="M417.309 80.229C426.191 82.4512 431.688 91.1198 431.688 97.8762C431.688 103.399 427.213 107.877 421.694 107.877C417.456 107.877 410.743 103.898 409.29 100.17" stroke="#031A3E" stroke-width="3.547" stroke-miterlimit="10" stroke-linecap="round"/>
<path d="M7.89166 113.48C-0.422261 104.478 0.129401 90.4337 9.1249 82.1151C18.1184 73.7965 32.1518 74.3506 40.4648 83.3542C48.7797 92.3548 48.227 106.398 39.2335 114.715C30.237 123.036 16.2056 122.483 7.89166 113.48Z" fill="#9DCCED"/>
<path d="M9.5456 82.8801C11.4155 81.183 13.4942 79.8559 15.6838 78.8838C14.7394 79.5138 13.83 80.2189 12.9645 81.0039C3.91004 89.2185 3.12452 102.833 11.2066 111.413C17.6187 118.22 27.6855 119.806 36.0944 116.071C27.1568 122.031 15.0972 121.049 7.78767 113.289C-0.294387 104.71 0.491132 91.0937 9.5456 82.8801Z" fill="#72AACC"/>
<path d="M13.8228 108.659C7.75352 101.891 7.87044 91.5963 14.0876 85.6669C20.3018 79.7384 30.2628 80.4185 36.3311 87.187C42.4013 93.9535 42.2824 104.248 36.0682 110.176C29.852 116.106 19.8921 115.428 13.8228 108.659Z" stroke="#72AACC" stroke-width="2.061" stroke-miterlimit="10"/>
<path d="M7.89166 113.48C-0.422261 104.478 0.129401 90.4337 9.1249 82.1151C18.1184 73.7965 32.1518 74.3506 40.4648 83.3542C48.7797 92.3548 48.227 106.398 39.2335 114.715C30.237 123.036 16.2056 122.483 7.89166 113.48Z" stroke="#031A3E" stroke-width="3.014" stroke-miterlimit="10"/>
<path d="M34.9639 95.48L33.178 104.097C33.064 104.647 32.6653 105.095 32.1326 105.271L23.7847 108.033C23.5179 108.122 23.237 108.135 22.9722 108.08C22.7054 108.025 22.4555 107.9 22.2456 107.714L18.5819 104.444L16.8609 102.909L15.6837 101.857C15.2649 101.483 15.077 100.914 15.191 100.364L16.9769 91.7478C17.0908 91.1977 17.4895 90.7497 18.0222 90.5737L26.3691 87.8135C26.636 87.7245 26.9168 87.7115 27.1816 87.7665C27.4465 87.8215 27.6983 87.9455 27.9082 88.1325L34.4722 93.9879C34.8919 94.362 35.0788 94.931 34.9649 95.481L34.9639 95.48ZM33.7036 95.217C33.7236 95.119 33.6896 95.014 33.6137 94.946L27.0517 89.0896C27.0137 89.0576 26.9678 89.0336 26.9198 89.0236C26.8718 89.0136 26.8208 89.0166 26.7719 89.0326L18.423 91.7948C18.326 91.8268 18.2541 91.9078 18.2331 92.0078L16.4462 100.626C16.4262 100.724 16.4602 100.829 16.5361 100.897L17.5455 101.798L23.215 92.6308C23.291 92.5078 23.4359 92.4458 23.5778 92.4748L25.4677 92.8669C25.5856 92.8919 25.6436 93.0249 25.5786 93.1269L19.2665 103.334L19.95 103.944L26.522 93.3169C26.598 93.1939 26.7429 93.1319 26.8848 93.1609L28.7747 93.5529C28.8916 93.5769 28.9485 93.7109 28.8856 93.8129L21.671 105.479L23.0971 106.751C23.1351 106.783 23.1811 106.807 23.229 106.817C23.277 106.827 23.33 106.826 23.3769 106.809L25.2068 106.204L24.6672 102.504C24.6562 102.423 24.6732 102.342 24.7151 102.272L26.2572 99.7783C26.3411 99.6413 26.551 99.6843 26.574 99.8444L27.3965 105.48L28.267 105.192L27.2616 98.3112C27.2506 98.2302 27.2676 98.1492 27.3095 98.0792L28.8516 95.5861C28.9356 95.449 29.1454 95.492 29.1684 95.6521L30.4566 104.468L31.7268 104.048C31.8238 104.016 31.8957 103.935 31.9167 103.835L33.7026 95.218L33.7036 95.217Z" fill="white"/>
<path d="M39.875 81.5088C38.4219 85.2361 28.7108 89.2153 24.4724 89.2153C18.9538 89.2153 14.4785 84.737 14.4785 79.2146C14.4785 72.4572 19.9762 63.7885 28.8577 61.5674" fill="#1A79B4"/>
<path d="M39.875 81.5088C38.4219 85.2361 28.7108 89.2153 24.4724 89.2153C18.9538 89.2153 14.4785 84.737 14.4785 79.2146C14.4785 72.4572 19.9762 63.7885 28.8577 61.5674" stroke="#031A3E" stroke-width="3.547" stroke-miterlimit="10" stroke-linecap="round"/>
<path d="M11.1212 212.029C2.80723 203.027 3.35889 188.983 12.3544 180.664C21.3479 172.345 35.3813 172.899 43.6942 181.903C52.0092 190.904 51.4565 204.947 42.463 213.264C33.4665 221.585 19.4351 221.032 11.1212 212.029Z" fill="#45DBB8"/>
<path d="M12.7747 181.43C14.6446 179.733 16.7233 178.406 18.913 177.434C17.9686 178.064 17.0591 178.769 16.1937 179.554C7.13919 187.769 6.35367 201.384 14.4357 209.963C20.8478 216.77 30.9147 218.356 39.3235 214.621C30.386 220.581 18.3264 219.599 11.0168 211.839C2.93476 203.26 3.72128 189.645 12.7747 181.43Z" fill="#31AFA0"/>
<path d="M17.0513 207.21C10.982 200.442 11.099 190.147 17.3162 184.217C23.5304 178.289 33.4913 178.969 39.5596 185.738C45.6299 192.504 45.5109 202.799 39.2967 208.726C33.0805 214.657 23.1206 213.978 17.0513 207.209V207.21Z" stroke="#31AFA0" stroke-width="2.061" stroke-miterlimit="10"/>
<path d="M11.1212 212.029C2.80723 203.027 3.35889 188.983 12.3544 180.664C21.3479 172.345 35.3813 172.899 43.6942 181.903C52.0092 190.904 51.4565 204.947 42.463 213.264C33.4665 221.585 19.4351 221.032 11.1212 212.029Z" stroke="#031A3E" stroke-width="3.014" stroke-miterlimit="10"/>
<path d="M24.2604 191.242L34.0295 201.144L19.998 206.166L29.1445 196.192L36.8547 186.666L24.2604 191.242Z" fill="white"/>
<path d="M42.1045 179.058C40.6514 182.785 30.9403 186.764 26.7019 186.764C21.1833 186.764 16.708 182.286 16.708 176.764C16.708 170.006 22.2056 161.338 31.0872 159.116" fill="#1A79B4"/>
<path d="M42.1045 179.058C40.6514 182.785 30.9403 186.764 26.7019 186.764C21.1833 186.764 16.708 182.286 16.708 176.764C16.708 170.006 22.2056 161.338 31.0872 159.116" stroke="#031A3E" stroke-width="3.547" stroke-miterlimit="10" stroke-linecap="round"/>
<path d="M460.108 209.748C468.422 200.745 467.87 186.701 458.875 178.383C449.881 170.064 435.848 170.618 427.535 179.622C419.22 188.622 419.773 202.665 428.766 210.983C437.763 219.304 451.795 218.751 460.109 209.748H460.108Z" fill="#F1B90C"/>
<path d="M458.454 179.148C456.584 177.451 454.505 176.124 452.316 175.152C453.26 175.782 454.17 176.487 455.035 177.272C464.09 185.486 464.875 199.101 456.793 207.681C450.381 214.487 440.314 216.074 431.905 212.339C440.843 218.299 452.902 217.317 460.212 209.557C468.294 200.977 467.508 187.362 458.454 179.148Z" fill="#CC9212"/>
<path d="M454.177 204.928C460.246 198.159 460.129 187.865 453.912 181.935C447.698 176.007 437.737 176.687 431.669 183.455C425.598 190.222 425.717 200.516 431.932 206.444C438.148 212.374 448.108 211.695 454.177 204.927V204.928Z" stroke="#CC9212" stroke-width="2.061" stroke-miterlimit="10"/>
<path d="M460.108 209.748C468.422 200.745 467.87 186.701 458.875 178.383C449.881 170.064 435.848 170.618 427.535 179.622C419.22 188.622 419.773 202.665 428.766 210.983C437.763 219.304 451.795 218.751 460.109 209.748H460.108Z" stroke="#031A3E" stroke-width="3.014" stroke-miterlimit="10"/>
<path fill-rule="evenodd" clip-rule="evenodd" d="M446.476 196.536L448.199 199.429L440.324 204.105L435.65 196.231L438.546 194.515L441.499 199.489L446.476 196.536ZM443.518 191.554L445.264 194.495L442.325 196.242L440.584 193.309L440.586 193.302L443.518 191.553V191.554ZM435.613 189.575L437.334 192.474L434.438 194.19L432.717 191.291L435.613 189.575ZM451.407 193.6L453.128 196.499L450.232 198.215L448.511 195.316L451.407 193.6ZM445.522 183.685L450.196 191.559L447.299 193.281L444.348 188.301L439.377 191.256L437.654 188.363L445.522 183.685Z" fill="white"/>
<path d="M438.143 158.834C447.025 161.056 452.522 169.725 452.522 176.481C452.522 182.004 448.047 186.482 442.529 186.482C438.29 186.482 428.579 182.503 427.126 178.776" fill="#1A79B4"/>
<path d="M438.143 158.834C447.025 161.056 452.522 169.725 452.522 176.481C452.522 182.004 448.047 186.482 442.529 186.482C438.29 186.482 428.579 182.503 427.126 178.776" stroke="#031A3E" stroke-width="3.547" stroke-miterlimit="10" stroke-linecap="round"/>
<path d="M304.604 151.792C314.631 179.673 344.28 192.581 371.26 180.114C379.307 176.279 386.571 170.311 391.546 162.902C405.107 141.613 380.828 117.746 391.297 95.0928C397.204 80.2758 417.684 75.3784 426.808 89.8175C421.184 82.3669 409.987 81.1568 402.754 86.5522C395.84 91.8676 392.227 100.83 392.677 109.499C393.344 123.524 401.005 136.643 399.744 151.032C399.059 161.097 392.663 169.64 385.074 175.794C357.614 199.157 312.736 188.455 304.604 151.792Z" fill="#A3D9F4"/>
<path d="M360.68 253.967C357.716 242.073 364.949 230.025 376.835 227.06C388.717 224.095 400.755 231.333 403.717 243.228C406.682 255.121 399.449 267.167 387.567 270.132C375.68 273.098 363.643 265.86 360.68 253.967Z" fill="#C464EE"/>
<path d="M376.835 227.933C379.29 227.345 381.75 227.181 384.137 227.383C383.007 227.481 381.87 227.662 380.734 227.933C368.849 230.778 361.616 242.337 364.579 253.749C366.93 262.802 374.994 269.038 384.161 269.81C373.462 270.734 363.359 264.07 360.68 253.749C357.716 242.337 364.949 230.778 376.835 227.933Z" fill="#963FDD"/>
<path d="M368.196 252.595C366.127 243.74 371.177 234.771 379.477 232.563C387.775 230.355 396.181 235.744 398.25 244.599C400.319 253.453 395.268 262.422 386.971 264.63C378.671 266.838 370.265 261.45 368.196 252.595Z" stroke="#963FDD" stroke-width="2.061" stroke-miterlimit="10"/>
<path d="M360.68 253.967C357.716 242.073 364.949 230.025 376.835 227.06C388.717 224.095 400.755 231.333 403.717 243.228C406.682 255.121 399.449 267.167 387.567 270.132C375.68 273.098 363.643 265.86 360.68 253.967Z" stroke="#031A3E" stroke-width="3.014" stroke-miterlimit="10"/>
<path d="M391.663 253.535L388.58 256.398C388.513 256.46 388.433 256.508 388.346 256.539C388.259 256.57 388.166 256.583 388.074 256.577L374.313 255.761C374.247 255.757 374.184 255.735 374.131 255.696C374.078 255.658 374.038 255.605 374.015 255.545C373.992 255.485 373.988 255.419 374.003 255.357C374.018 255.295 374.051 255.238 374.099 255.194L377.184 252.331C377.251 252.269 377.33 252.221 377.417 252.19C377.504 252.159 377.596 252.146 377.688 252.151L391.448 252.967C391.514 252.971 391.577 252.993 391.63 253.032C391.683 253.07 391.723 253.123 391.746 253.183C391.769 253.243 391.773 253.309 391.758 253.371C391.743 253.433 391.71 253.49 391.662 253.534L391.663 253.535ZM389.123 247.251C389.064 247.18 388.99 247.123 388.908 247.082C388.825 247.041 388.735 247.017 388.642 247.012L374.88 246.196C374.815 246.192 374.75 246.207 374.693 246.239C374.636 246.271 374.59 246.318 374.56 246.375C374.53 246.432 374.518 246.497 374.526 246.56C374.533 246.624 374.56 246.684 374.602 246.734L377.327 249.942C377.386 250.011 377.459 250.068 377.542 250.109C377.625 250.15 377.715 250.174 377.807 250.18L391.567 250.996C391.633 251 391.698 250.985 391.755 250.953C391.812 250.921 391.858 250.874 391.888 250.817C391.918 250.76 391.929 250.695 391.922 250.632C391.915 250.568 391.888 250.508 391.846 250.459L389.123 247.252V247.251ZM374.997 244.225L388.759 245.041C388.852 245.047 388.944 245.033 389.031 245.003C389.118 244.972 389.198 244.924 389.265 244.862L392.348 241.999C392.396 241.955 392.429 241.898 392.444 241.836C392.459 241.774 392.455 241.708 392.432 241.648C392.409 241.588 392.369 241.535 392.316 241.497C392.263 241.459 392.2 241.436 392.134 241.432L378.373 240.616C378.281 240.611 378.188 240.624 378.103 240.655C378.016 240.686 377.937 240.734 377.87 240.796L374.786 243.659C374.738 243.703 374.705 243.76 374.69 243.822C374.675 243.884 374.679 243.95 374.702 244.01C374.725 244.07 374.765 244.123 374.818 244.161C374.87 244.199 374.933 244.222 374.998 244.226L374.997 244.225Z" fill="white"/>
<path d="M293.898 297.99C286.07 288.562 287.359 274.566 296.78 266.733C306.2 258.9 320.184 260.192 328.011 269.622C335.841 279.048 334.55 293.043 325.132 300.874C315.71 308.709 301.726 307.418 293.898 297.99Z" fill="#F8B30D"/>
<path d="M297.158 267.519C299.115 265.923 301.261 264.707 303.499 263.852C302.522 264.431 301.577 265.088 300.672 265.826C291.198 273.551 289.697 287.106 297.316 296.1C303.361 303.235 313.331 305.35 321.924 302.064C312.686 307.544 300.694 305.927 293.803 297.794C286.184 288.801 287.685 275.246 297.159 267.52L297.158 267.519Z" fill="#E28C0E"/>
<path d="M300.074 293.489C294.368 286.41 295.028 276.136 301.548 270.542C308.066 264.949 317.977 266.153 323.68 273.232C329.386 280.31 328.726 290.583 322.208 296.176C315.688 301.77 305.778 300.567 300.073 293.489H300.074Z" stroke="#E28C0E" stroke-width="2.061" stroke-miterlimit="10"/>
<path d="M318.565 277.235C317.859 274.951 315.687 274.588 313.105 274.892L312.434 271.661L310.469 272.069L311.122 275.214C310.605 275.321 310.08 275.441 309.557 275.561L308.9 272.395L306.936 272.803L307.606 276.033C307.182 276.13 306.767 276.225 306.359 276.31L306.357 276.3L303.646 276.862L304.082 278.963C304.082 278.963 305.527 278.634 305.509 278.666C306.306 278.501 306.661 278.91 306.819 279.293L308.654 288.143C308.671 288.401 308.607 288.831 308.051 288.948C308.081 288.965 306.622 289.244 306.622 289.244L306.719 291.675L309.276 291.143C309.752 291.045 310.222 290.956 310.682 290.863L311.361 294.131L313.324 293.724L312.653 290.49C313.195 290.389 313.717 290.285 314.226 290.179L314.893 293.398L316.857 292.99L316.182 289.727C319.447 288.851 321.587 287.538 321.23 284.374C320.943 281.826 319.537 280.955 317.567 280.893C318.586 280.076 319.086 278.905 318.566 277.235H318.565ZM317.265 284.792C317.773 287.234 313.536 287.824 312.205 288.101L311.308 283.772C312.64 283.496 316.737 282.245 317.265 284.792ZM315.084 278.874C315.544 281.096 312.006 281.56 310.897 281.791L310.083 277.865C311.192 277.635 314.604 276.556 315.084 278.874Z" fill="white"/>
<path d="M293.898 297.99C286.07 288.562 287.359 274.566 296.78 266.733C306.2 258.9 320.184 260.192 328.011 269.622C335.841 279.048 334.55 293.043 325.132 300.874C315.71 308.709 301.726 307.418 293.898 297.99Z" stroke="#031A3E" stroke-width="3.014" stroke-miterlimit="10"/>
<path d="M98.111 214.561C90.2828 205.134 91.572 191.138 100.993 183.304C110.413 175.472 124.397 176.764 132.224 186.193C140.053 195.619 138.763 209.614 129.345 217.446C119.923 225.28 105.939 223.989 98.111 214.561Z" fill="#01A5DE"/>
<path d="M101.373 184.091C103.33 182.495 105.476 181.279 107.713 180.424C106.737 181.003 105.792 181.66 104.887 182.398C95.4129 190.124 93.9118 203.678 101.531 212.672C107.575 219.807 117.545 221.922 126.139 218.636C116.901 224.116 104.909 222.499 98.0183 214.366C90.399 205.373 91.9001 191.818 101.374 184.092L101.373 184.091Z" fill="#018AC2"/>
<path d="M104.287 210.06C98.5812 202.982 99.2408 192.707 105.761 187.113C112.279 181.52 122.19 182.724 127.893 189.804C133.599 196.881 132.939 207.154 126.421 212.747C119.901 218.342 109.992 217.139 104.287 210.06Z" stroke="#018AC2" stroke-width="2.061" stroke-miterlimit="10"/>
<path d="M98.111 214.561C90.2828 205.134 91.572 191.138 100.993 183.304C110.413 175.472 124.397 176.764 132.224 186.193C140.053 195.619 138.763 209.614 129.345 217.446C119.923 225.28 105.939 223.989 98.111 214.561Z" stroke="#031A3E" stroke-width="3.014" stroke-miterlimit="10"/>
<path d="M124.461 194.221C123.022 193.693 121.442 193.98 120.3 194.92C119.701 195.414 119.295 196.152 119.004 196.897C118.72 197.534 117.978 198.344 116.865 197.85C116.013 197.545 115.607 196.564 115.913 195.71C116.099 194.955 116.235 194.137 116.147 193.299C115.907 191.784 114.916 190.58 113.477 190.052C112.038 189.524 110.457 189.815 109.315 190.755C108.173 191.695 107.584 193.186 107.825 194.705C108.065 196.22 109.055 197.424 110.494 197.952C111.242 198.246 112.066 198.274 112.854 198.126C113.472 198.02 114.559 198.236 114.769 199.473C114.903 200.368 114.267 201.194 113.422 201.389C112.633 201.534 111.883 201.848 111.284 202.342C110.14 203.284 109.553 204.774 109.797 206.293C110.036 207.808 111.027 209.012 112.466 209.54C113.905 210.068 115.485 209.781 116.626 208.841C117.768 207.901 118.355 206.409 118.115 204.89C117.97 204.1 117.595 203.4 117.052 202.738C116.606 202.196 116.374 201.181 117.276 200.438C117.999 199.843 118.983 199.942 119.575 200.662C120.068 201.262 120.732 201.826 121.479 202.12C122.919 202.648 124.498 202.361 125.64 201.421C126.782 200.481 127.369 198.989 127.127 197.471C127.032 196.741 126.658 196.043 126.213 195.501C125.772 194.959 125.152 194.456 124.461 194.222" fill="white"/>
</svg>
