<svg width="414" height="184" viewBox="0 0 414 184" fill="none" xmlns="http://www.w3.org/2000/svg">
<path d="M259.681 63.5883C259.681 63.5883 276.2 49.4198 290.593 50.5742C304.985 51.7286 292.921 72.4437 292.921 72.4437L259.681 63.5883Z" fill="#1A79B4"/>
<path d="M288.681 54.7389C277.951 53.9993 264.733 60.7404 259.682 63.5873C259.705 63.5673 276.21 49.4208 290.592 50.5742C304.984 51.7286 292.92 72.4437 292.92 72.4437L291.174 71.9788C292.879 69.2791 300.9 55.5806 288.681 54.7389Z" fill="#A3D9F4"/>
<path d="M148.067 53.0472C148.067 53.0472 160.169 33.9795 187.072 17.4802C199.812 9.66693 210.418 5.01524 218.054 2.28356C224.037 0.143104 230.183 5.0884 229.415 11.4005C227.859 24.1811 226.409 44.5706 229.534 63.4268L148.067 53.0472Z" fill="#1A79B4"/>
<path d="M229.195 13.2945C227.989 9.11678 223.098 6.39913 218.31 7.98743C210.844 10.4646 200.473 14.6824 188.016 21.7661C164.759 34.9926 152.822 50.0299 150.365 53.3398L148.066 53.0472C148.066 53.0472 160.168 33.9795 187.072 17.4802C199.812 9.66693 210.418 5.01524 218.055 2.28356C224.037 0.143104 230.183 5.0884 229.415 11.4005C229.341 12.0098 229.268 12.6511 229.195 13.2935V13.2945Z" fill="#A3D9F4"/>
<path d="M259.681 63.5883C259.681 63.5883 276.2 49.4198 290.593 50.5742C304.985 51.7286 292.921 72.4437 292.921 72.4437L259.681 63.5883Z" stroke="#031A3E" stroke-width="3.547" stroke-miterlimit="10" stroke-linecap="round"/>
<path d="M148.067 53.0472C148.067 53.0472 160.169 33.9795 187.072 17.4802C199.812 9.66693 210.418 5.01524 218.054 2.28356C224.037 0.143104 230.183 5.0884 229.415 11.4005C227.859 24.1811 226.409 44.5706 229.534 63.4268L148.067 53.0472Z" stroke="#031A3E" stroke-width="3.547" stroke-miterlimit="10" stroke-linecap="round"/>
<path d="M68.6946 147.081L62.1484 134.908L103.087 119.384C103.087 119.384 121.465 118.124 122.034 118.124C122.603 118.124 128.855 129.247 128.855 129.876C128.855 130.506 121.466 145.158 121.466 145.158L95.8899 151.912L68.6956 147.081H68.6946Z" fill="#031A3E"/>
<path d="M62.1483 134.908L66.5192 140.579L68.6135 134.032C68.6135 134.032 75.5192 138.793 75.5192 138.322C75.5192 137.851 77.0069 131.768 77.0069 131.768L85.1829 137.431C85.1829 137.431 87.8759 127.829 88.1142 127.755C88.3525 127.681 96.2662 134.166 96.2662 134.166L102.042 124.969C102.042 124.969 106.781 130.19 107.35 130.085C107.918 129.98 114.736 124.063 114.736 124.063L117.203 127.754L122.053 123.649L124.968 124.622L124.527 129.839L118.949 131.554V137.486L113.129 135.015L111.425 143.424L105.93 138.319L102.043 146.653L95.5014 139.946L92.6592 147.501L88.3094 139.001L83.8675 147.501L79.6878 140.47L75.5422 147.573L69.7408 141.252L68.6946 147.077L73.9084 149.982C73.9084 149.982 88.5917 150.154 88.9711 149.982C89.3496 149.811 100.997 148.342 102.042 148.236C103.087 148.131 115.117 144.354 115.117 144.354C115.117 144.354 121.464 139 122.317 138.32C123.17 137.638 125.917 130.294 125.917 130.294C125.917 130.294 126.486 123.14 125.917 123.149C125.349 123.158 120.657 122.738 118.456 122.634C116.254 122.529 113.034 121.278 110.381 121.222C107.728 121.165 99.9594 121.222 99.9594 121.222L87.076 124.157L70.7819 130.189L62.1473 134.905L62.1483 134.908Z" fill="white"/>
<path d="M5.83179 98.2524C8.73904 81.0787 89.4057 49.9198 146.574 50.0621C208.906 50.2084 315.415 67.9484 338.821 82.0427C373.519 11.2133 408.709 44.8292 410.638 46.8214C410.691 46.8685 410.722 46.9046 410.722 46.9046C404.106 48.543 395.72 61.3296 388.581 79.805C381.442 98.2685 368.495 99.6073 368.495 99.6073C374.42 102.199 383.272 113.219 385.647 134.271C388.01 155.323 391.923 161.4 391.923 161.4C350.375 165.862 338.695 113.623 338.695 113.623C338.695 113.623 337.223 114.483 337.211 114.493C327.467 120.063 272.769 147.716 206.725 164.103C154.364 177.088 87.3374 181.587 68.6946 147.082C70.2924 147.23 71.8481 147.355 73.3558 147.447C128.282 151.107 123.879 124.872 123.879 124.872C123.879 124.872 106.474 119.11 76.1329 130.16C60.3794 135.84 64.2557 135.512 44.2315 131.08C24.2072 126.648 12.346 114.301 6.93604 103.066C6.1842 101.519 5.77371 100.147 5.78174 98.9749C5.77573 98.7214 5.79675 98.4839 5.83179 98.2534V98.2524Z" fill="#1A79B4"/>
<path d="M340.855 80.68L338.821 82.0418C373.519 11.2134 408.709 44.8294 410.638 46.8215C410.691 46.8686 410.722 46.9047 410.722 46.9047C409.31 47.2544 408.218 47.4558 407.767 48.1503C397.034 41.5926 369.299 31.8724 340.855 80.68Z" fill="#A3D9F4"/>
<path d="M339.296 114.11C339.296 114.11 349.901 156.652 389.386 154.768C390.796 159.644 391.923 161.4 391.923 161.4C350.375 165.862 338.695 113.624 338.695 113.624L339.296 114.11Z" fill="#40AFEC"/>
<path d="M338.736 82.9204C316.927 72.0317 208.906 58.2511 146.574 58.1037C89.4057 57.9615 13.4913 84.3935 5.83182 98.2523C8.73904 81.0786 89.4057 49.9197 146.574 50.062C208.906 50.2083 315.415 67.9482 338.821 82.0426C338.841 82.0015 338.862 81.6287 338.736 82.9204Z" fill="#A3D9F4"/>
<path d="M111.56 95.5941C157.493 114.928 154.173 130.726 196.291 137.068C247.748 144.817 325.534 119.895 338.694 113.624C338.694 113.624 337.223 114.483 337.211 114.493C327.467 120.063 272.769 147.717 206.725 164.104C154.364 177.088 87.337 181.587 68.6943 147.082C70.2921 147.231 71.8478 147.355 73.3555 147.447C128.282 151.108 123.879 124.872 123.879 124.872C123.879 124.872 106.473 119.11 76.1326 130.16C60.3791 135.84 64.2554 135.512 44.2312 131.08C24.2069 126.648 12.3458 114.301 6.93674 103.067C6.32007 101.798 5.94858 100.656 5.83347 99.6355C20.8381 93.7543 71.0229 78.5316 111.561 95.5941H111.56Z" fill="#A3D9F4"/>
<path opacity="0.3" d="M85.2922 147.78C113.694 159.488 164.889 155.868 206.725 148.29C272.77 136.318 327.879 117.064 337.622 112.995C337.754 112.977 337.895 113.339 338.041 114.004C337.646 114.235 337.217 114.486 337.211 114.492C327.467 120.061 272.77 147.715 206.725 164.102C154.364 177.086 87.3375 181.586 68.6948 147.081C70.2925 147.229 71.8483 147.353 73.356 147.445C77.6948 147.735 81.6622 147.836 85.2922 147.78Z" fill="#001C3E"/>
<path opacity="0.3" d="M77.7607 129.587C77.2191 129.776 76.6825 129.959 76.1329 130.16C60.3794 135.84 64.2557 135.512 44.2315 131.08C25.2744 126.884 13.6425 115.595 7.86607 104.871C15.1462 113.035 45.3748 127.256 77.7607 129.587Z" fill="#001C3E"/>
<path d="M5.8318 98.2524C8.73903 81.0787 89.4057 49.9198 146.574 50.0621C208.906 50.2084 315.415 67.9484 338.821 82.0427C373.519 11.2133 408.709 44.8292 410.638 46.8214C410.691 46.8685 410.722 46.9046 410.722 46.9046C404.106 48.543 395.72 61.3296 388.581 79.805C381.442 98.2685 368.495 99.6073 368.495 99.6073C374.42 102.199 383.272 113.219 385.647 134.271C388.01 155.323 391.923 161.4 391.923 161.4C350.375 165.862 338.695 113.623 338.695 113.623C338.695 113.623 337.223 114.483 337.211 114.493C327.467 120.063 272.769 147.716 206.725 164.103C154.364 177.088 87.3374 181.587 68.6946 147.082C70.2924 147.23 71.8482 147.355 73.3558 147.447C128.282 151.107 123.879 124.872 123.879 124.872C123.879 124.872 106.474 119.11 76.1329 130.16C60.3794 135.84 64.2557 135.512 44.2315 131.08C24.2072 126.648 12.346 114.301 6.93603 103.066C6.18419 101.519 5.77372 100.147 5.78173 98.9749C5.77572 98.7214 5.79676 98.4839 5.8318 98.2534V98.2524Z" stroke="#031A3E" stroke-width="3.547" stroke-linecap="round" stroke-linejoin="round"/>
<path d="M142.959 87.6345C144.042 98.1765 143.673 108.638 141.003 118.891C140.677 120.416 140.166 121.893 139.884 123.521C139.783 123.996 140.427 124.318 140.746 123.954C147.562 116.696 149.96 105.877 147.983 96.2324C147.3 92.9987 146.197 89.8652 144.259 87.0894C143.827 86.4661 142.815 86.887 142.959 87.6365V87.6345Z" fill="#031A3E"/>
<path d="M158.452 102.513C156.554 110.063 154.012 117.356 149.95 123.995C149.41 125.01 148.722 125.93 148.197 126.974C148.032 127.241 148.12 127.601 148.404 127.743C148.557 127.821 148.732 127.818 148.877 127.75C150.554 126.962 152.044 125.849 153.382 124.566C158.082 119.712 160.32 112.799 160.23 106.129C160.207 104.917 160.103 103.726 159.834 102.5C159.751 102.12 159.375 101.878 158.993 101.961C158.71 102.023 158.508 102.246 158.451 102.512L158.452 102.513Z" fill="#031A3E"/>
<path d="M165.513 123.633C166.665 130.258 168.729 138.551 173.244 147.398C181.077 162.744 202.562 183.509 207.934 182.159C213.306 180.809 218.987 132.022 216.682 125.429C214.376 118.836 164.667 118.765 165.514 123.632L165.513 123.633Z" fill="#1A79B4"/>
<path d="M205.881 175.289C210.24 174.211 216.195 143.281 217.13 128.408C217.901 140.932 212.792 180.94 207.933 182.16C202.561 183.509 181.076 162.745 173.244 147.399C171.554 144.087 170.207 140.853 169.123 137.755C178.139 152.273 200.837 176.536 205.881 175.289Z" fill="#40AFEC"/>
<path d="M165.513 123.633C166.739 130.179 169.038 139.157 173.244 147.398C181.077 162.744 202.562 183.509 207.934 182.159C213.306 180.809 218.987 132.022 216.682 125.429" stroke="#031A3E" stroke-width="3.547" stroke-linecap="round" stroke-linejoin="round"/>
<path d="M111.56 101.807C105.525 101.807 100.633 96.3833 100.633 89.6928C100.633 83.0023 105.525 77.5786 111.56 77.5786C117.595 77.5786 122.487 83.0023 122.487 89.6928C122.487 96.3833 117.595 101.807 111.56 101.807Z" fill="#031A3E"/>
<path d="M68.6943 147.081L62.1481 134.908" stroke="#031A3E" stroke-width="3.547" stroke-linecap="round" stroke-linejoin="round"/>
<path d="M338.82 82.042C343.151 84.6304 344.683 85.3288 347.627 87.7499" stroke="#031A3E" stroke-width="3.547" stroke-linecap="round" stroke-linejoin="round"/>
<path d="M338.695 113.623C343.769 110.743 347.745 108.62 349.07 107.56" stroke="#031A3E" stroke-width="3.547" stroke-linecap="round" stroke-linejoin="round"/>
</svg>
