<svg width="21" height="22" viewBox="0 0 21 22" fill="none" xmlns="http://www.w3.org/2000/svg">
<path d="M14.5246 5.5925C13.9267 4.90959 13.5971 4.03272 13.5971 3.125H10.8934V13.975C10.873 14.5623 10.6252 15.1187 10.2024 15.5268C9.77961 15.9349 9.2148 16.1629 8.62715 16.1625C7.38465 16.1625 6.35215 15.1475 6.35215 13.8875C6.35215 12.3825 7.80465 11.2537 9.3009 11.7175V8.9525C6.28215 8.55 3.63965 10.895 3.63965 13.8875C3.63965 16.8013 6.05465 18.875 8.6184 18.875C11.3659 18.875 13.5971 16.6438 13.5971 13.8875V8.38375C14.6935 9.17112 16.0098 9.59357 17.3596 9.59125V6.8875C17.3596 6.8875 15.7146 6.96625 14.5246 5.5925Z" fill="#031A3E"/>
</svg>
