<svg width="610" height="243" viewBox="0 0 610 243" fill="none" xmlns="http://www.w3.org/2000/svg">
<g clip-path="url(#clip0_131_2372)">
<path d="M134.078 42.201C134.078 42.201 133.064 61.839 112.664 82.924C90.5539 105.775 49.1029 125.031 45.8299 121.36C39.7939 114.589 58.7409 82.954 57.1389 64.979C55.5369 47.004 112.729 30.167 134.079 42.202L134.078 42.201Z" fill="#28B9E5"/>
<path d="M115.191 80.211C114.385 81.114 113.538 82.015 112.662 82.923C90.5543 105.775 49.1002 125.029 45.8282 121.356C41.8932 116.942 48.5732 101.973 53.2622 87.1C55.7642 79.158 57.6913 71.236 57.1363 64.977C55.5382 46.999 112.727 30.166 134.078 42.203C134.078 42.203 133.155 60.187 115.191 80.211Z" fill="#1A79B4"/>
<path d="M51.8962 114.114C48.8652 110.987 56.6132 92.295 55.4372 79.444C54.8122 81.959 54.0742 84.525 53.2632 87.1C48.5742 101.973 41.8942 116.942 45.8292 121.356C49.1012 125.029 90.5552 105.775 112.663 82.923C113.539 82.014 114.386 81.114 115.192 80.211C116.355 78.915 117.443 77.629 118.467 76.354C96.4482 94.187 54.7142 117.023 51.8962 114.114Z" fill="#40AFEC"/>
<path d="M115.191 80.211C114.385 81.114 113.538 82.015 112.662 82.923C90.5543 105.775 49.1002 125.029 45.8282 121.356C41.8932 116.942 48.5732 101.973 53.2622 87.1C55.7643 79.158 57.6913 71.236 57.1363 64.977C55.5383 46.999 112.727 30.166 134.078 42.203C134.078 42.203 133.155 60.187 115.191 80.211Z" stroke="#031A3E" stroke-width="3.547" stroke-miterlimit="10" stroke-linecap="round"/>
<path opacity="0.3" d="M115.191 80.211C92.5997 76.892 69.7157 72.036 53.2627 87.1C55.7647 79.158 57.6917 71.236 57.1367 64.977C55.5387 46.999 112.728 30.166 134.079 42.203C134.079 42.203 133.155 60.187 115.191 80.211Z" fill="#001C3E"/>
<path d="M487.596 130.863C487.596 130.863 527.827 204.39 454.115 239.663C449 242.111 443.119 238.193 443.328 232.527C443.607 224.956 443.484 214.757 441.805 204.775C439.074 188.538 437.082 178.087 437.873 168.475C438.165 164.93 483.137 120.683 487.596 130.863Z" fill="#1A79B4"/>
<path d="M454.114 234.173C449.56 236.541 443.918 235.778 443.423 228.749C443.404 230.064 443.371 231.331 443.327 232.526C443.118 238.193 448.999 242.11 454.114 239.662C489.896 222.539 498.826 196.404 498.545 174.039C496.666 196.407 479.901 220.76 454.114 234.172V234.173Z" fill="#40AFEC"/>
<path d="M487.596 130.863C487.596 130.863 527.827 204.39 454.115 239.663C449 242.111 443.119 238.193 443.328 232.527C443.607 224.956 443.484 214.757 441.805 204.775C439.074 188.538 437.082 178.087 437.873 168.475C438.165 164.93 483.137 120.683 487.596 130.863Z" stroke="#031A3E" stroke-width="3.547" stroke-miterlimit="10" stroke-linecap="round"/>
<path d="M244.263 9.79995C295.288 13.892 348.184 16.49 420.027 15.996C523.131 15.287 546.806 -3.00705 585.92 2.97295C635.732 10.589 605.557 181.946 436.825 202.372C309.669 217.765 247.601 150.951 207.553 105.371C161.299 52.727 62.2767 71.305 57.7477 64.214C53.2187 57.123 76.8187 39.792 133.065 19.504C181.651 1.97895 219.058 7.77895 244.263 9.79995Z" fill="#1A79B4"/>
<path d="M129.049 24.879C176.934 7.68695 220.042 12.661 244.884 14.644C295.174 18.658 348.212 25.895 419.02 25.41C520.639 24.714 546.35 3.12995 584.901 8.99695C603.561 11.837 610.92 38.09 603.543 70.593C612.972 35.278 605.849 6.01995 585.92 2.97295C546.806 -3.00705 523.131 15.287 420.027 15.996C348.184 16.49 295.288 13.892 244.263 9.79995C219.058 7.77895 181.65 1.97895 133.066 19.504C87.9608 35.773 63.8699 47.992 58.4229 58.231C68.1869 47.62 91.5029 38.36 129.048 24.88L129.049 24.879Z" fill="#A3D9F4"/>
<path d="M436.822 202.372C309.666 217.765 247.599 150.954 207.554 105.37C161.297 52.728 62.2812 71.304 57.7492 64.216C57.5132 63.842 57.3472 63.414 57.2852 62.944C77.2332 58.122 137.769 46.737 207.615 64.782C293.262 86.902 309.199 133.136 398.755 133.136C495.507 133.136 537.773 62.202 556.242 41.806C573.741 22.483 593.273 6.85403 605.121 22.477C619.528 69.58 573.893 185.779 436.822 202.372Z" fill="#A3D9F4"/>
<path d="M58.4589 62.779C58.2729 62.169 58.8459 61.571 59.7359 61.444C100.118 55.701 144.624 55.415 173.129 60.715C194.08 64.607 227.852 73.967 279.022 110.172C357.48 165.688 438.867 151.257 479.834 133.976C547.174 105.576 569.025 52.378 576.057 23.196" stroke="#1A79B4" stroke-width="2" stroke-miterlimit="10" stroke-linecap="round"/>
<path d="M77.2891 65.762C111.752 61.104 149.037 62.379 177.028 69.172C211.974 77.654 230.049 91.065 252.933 110.576C261.222 117.644 269.795 124.952 280.138 132.825C346.514 183.35 432.041 175.124 478.432 157.27C548.564 130.266 588.23 68.396 596.428 17.077" stroke="#1A79B4" stroke-width="2" stroke-miterlimit="10" stroke-linecap="round"/>
<path d="M158.206 75.12C203.126 84.418 217.212 98.385 235.046 116.067C247.342 128.258 261.278 142.075 288.44 157.486C351.488 193.262 402.644 199.831 474.677 178.787C562.014 153.277 603.471 73.253 605.014 24.578" stroke="#1A79B4" stroke-width="2" stroke-miterlimit="10" stroke-linecap="round"/>
<path opacity="0.3" d="M436.822 179.291C309.666 192.352 259.045 137.249 217.64 100.029C160.019 48.232 56.0189 62.62 57.7489 64.217C63.9319 69.922 161.297 52.729 207.554 105.371C247.599 150.955 309.666 217.766 436.822 202.373C559.017 187.581 608.526 93.647 607.63 40.058C606.656 85.899 556.738 166.975 436.822 179.292V179.291Z" fill="#001C3E"/>
<path d="M57.2852 62.945C77.2332 58.123 137.769 46.738 207.615 64.783C293.262 86.903 309.199 133.137 398.755 133.137C495.507 133.137 537.773 62.203 556.242 41.807C573.741 22.484 593.273 6.85501 605.121 22.478" stroke="#031A3E" stroke-width="2" stroke-miterlimit="10" stroke-linecap="round"/>
<path d="M244.263 9.79995C295.288 13.892 348.184 16.49 420.027 15.996C523.131 15.287 546.806 -3.00705 585.92 2.97295C635.732 10.589 605.557 181.946 436.825 202.372C309.669 217.765 247.601 150.951 207.553 105.371C161.299 52.727 62.2767 71.305 57.7477 64.214C53.2187 57.123 76.8187 39.792 133.065 19.504C181.651 1.97895 219.058 7.77895 244.263 9.79995Z" stroke="#031A3E" stroke-width="3.547" stroke-miterlimit="10" stroke-linecap="round"/>
<path d="M435.032 122.231C435.032 122.231 419.742 206.85 340.219 188.04C334.701 186.735 332.581 179.994 336.301 175.714C341.27 169.996 347.577 161.979 352.535 153.154C360.601 138.8 366.107 129.855 372.259 122.428C377.196 116.468 439.993 105.707 435.032 122.231Z" fill="#1A79B4"/>
<path d="M348.308 183.747C342.612 183.424 333.607 179.644 338.383 173.27C331.313 179.996 335.098 186.828 340.219 188.039C396.429 201.334 420.543 162.959 429.853 139.313C413.902 171.06 387.854 185.992 348.309 183.746L348.308 183.747Z" fill="#40AFEC"/>
<path d="M435.032 122.231C435.032 122.231 419.742 206.85 340.219 188.04C334.701 186.735 332.581 179.994 336.301 175.714C341.27 169.996 347.577 161.979 352.535 153.154C360.601 138.8 366.107 129.855 372.259 122.428" stroke="#031A3E" stroke-width="3.547" stroke-miterlimit="10" stroke-linecap="round"/>
<path d="M129.366 28.323C120.941 48.624 64.0504 59.263 59.7464 53.944C48.0014 39.427 3.97345 18.433 1.87545 9.83099C1.80445 9.57499 1.77345 9.32798 1.77345 9.08698C1.74845 4.51498 48.7764 -0.794015 82.9194 6.43799C111.983 12.599 126.959 26.029 129.1 28.066C129.276 28.232 129.366 28.323 129.366 28.323Z" fill="#1A79B4"/>
<path d="M3.62542 12.7441C12.6044 8.11405 51.0424 5.33805 81.8254 11.1141C103.712 15.2251 121.049 23.8971 129.193 28.7001C129.25 28.5741 129.313 28.4491 129.366 28.3221C129.366 28.3221 129.276 28.2311 129.1 28.0651C126.959 26.0281 111.983 12.5981 82.9194 6.43705C48.7774 -0.792946 1.74942 4.51505 1.77442 9.08705C1.77442 9.32705 1.80542 9.57506 1.87642 9.83106C2.08542 10.6871 2.69942 11.6671 3.62542 12.7441Z" fill="#A3D9F4"/>
<path opacity="0.3" d="M29.096 24.7031C18.384 20.5531 7.332 13.7541 1.875 9.83105C3.972 18.4331 47.762 40.3731 60.189 54.4901C62.358 56.9541 120.941 48.6241 129.366 28.3231C129.366 28.3231 129.276 28.2321 129.1 28.0661C101.276 53.5451 60.013 36.6801 29.095 24.7021L29.096 24.7031Z" fill="#001C3E"/>
<path d="M60.5974 54.944C48.8524 40.428 3.97345 18.433 1.87545 9.83099C1.80445 9.57499 1.77345 9.32798 1.77345 9.08698C1.74845 4.51498 48.7764 -0.794015 82.9194 6.43799C111.983 12.599 126.959 26.029 129.1 28.066" stroke="#031A3E" stroke-width="3.547" stroke-miterlimit="10" stroke-linecap="round"/>
<path d="M448.806 106.496C499.934 119.247 527.985 72.482 556.242 41.807C573.905 22.634 593.273 6.85504 605.121 22.478" stroke="#031A3E" stroke-width="3.547" stroke-miterlimit="10" stroke-linecap="round"/>
<path d="M448.433 102.936C448.723 105.292 447.848 107.917 446.704 108.994" stroke="#031A3E" stroke-width="3.547" stroke-miterlimit="10" stroke-linecap="round"/>
<path d="M464.019 72.4671C470.047 72.4671 474.934 67.0546 474.934 60.3781C474.934 53.7015 470.047 48.2891 464.019 48.2891C457.99 48.2891 453.104 53.7015 453.104 60.3781C453.104 67.0546 457.99 72.4671 464.019 72.4671Z" fill="#031A3E"/>
</g>
<defs>
<clipPath id="clip0_131_2372">
<rect width="609.439" height="242.179" fill="white"/>
</clipPath>
</defs>
</svg>
