<svg width="17" height="16" viewBox="0 0 17 16" fill="none" xmlns="http://www.w3.org/2000/svg">
<g clip-path="url(#clip0_131_469)">
<path d="M16.1086 4.2752C15.9336 3.6002 15.4086 3.0752 14.7336 2.9002C13.5336 2.5752 8.68359 2.5752 8.68359 2.5752C8.68359 2.5752 3.83359 2.5752 2.63359 2.9002C1.95859 3.0752 1.43359 3.6002 1.25859 4.2752C0.933594 5.5002 0.933594 8.0002 0.933594 8.0002C0.933594 8.0002 0.933594 10.5252 1.25859 11.7252C1.43359 12.4002 1.95859 12.9252 2.63359 13.1002C3.83359 13.4252 8.68359 13.4252 8.68359 13.4252C8.68359 13.4252 13.5336 13.4252 14.7336 13.1002C15.4086 12.9252 15.9336 12.4002 16.1086 11.7252C16.4336 10.5252 16.4336 8.0002 16.4336 8.0002C16.4336 8.0002 16.4336 5.5002 16.1086 4.2752ZM7.13359 10.3252V5.6752L11.1586 8.0002L7.13359 10.3252Z" fill="#031A3E"/>
</g>
<defs>
<clipPath id="clip0_131_469">
<rect width="16" height="16" fill="white" transform="translate(0.683594)"/>
</clipPath>
</defs>
</svg>
